<?xml version="1.0" encoding="UTF-8" standalone="no"?>
<!DOCTYPE svg PUBLIC "-//W3C//DTD SVG 1.1//EN"
 "http://www.w3.org/Graphics/SVG/1.1/DTD/svg11.dtd">
<!-- Generated by graphviz version 2.43.0 (0)
 -->
<!-- Title: %3 Pages: 1 -->
<svg width="236pt" height="116pt"
 viewBox="0.00 0.00 236.00 116.00" xmlns="http://www.w3.org/2000/svg" xmlns:xlink="http://www.w3.org/1999/xlink">
<g id="graph0" class="graph" transform="scale(1 1) rotate(0) translate(4 112)">
<title>%3</title>
<polygon fill="transparent" stroke="transparent" points="-4,4 -4,-112 232,-112 232,4 -4,4"/>
<!-- terragrunt.hcl -->
<g id="node1" class="node">
<title>terragrunt.hcl</title>
<polygon fill="#4179ea" stroke="#5754dd" points="167,-36 55,-36 55,0 173,0 173,-30 167,-36"/>
<polyline fill="none" stroke="#5754dd" points="167,-36 167,-30 "/>
<polyline fill="none" stroke="#5754dd" points="173,-30 167,-30 "/>
<text text-anchor="middle" x="114" y="-14.3" font-family="Times,serif" font-size="14.00" fill="#c9d1d8">terragrunt.hcl</text>
</g>
<!-- examples/remote&#45;state/states -->
<g id="node2" class="node">
<title>examples/remote&#45;state/states</title>
<polygon fill="#4447cc" stroke="#5754dd" points="228,-108 4,-108 0,-104 0,-72 224,-72 228,-76 228,-108"/>
<polyline fill="none" stroke="#5754dd" points="224,-104 0,-104 "/>
<polyline fill="none" stroke="#5754dd" points="224,-104 224,-72 "/>
<polyline fill="none" stroke="#5754dd" points="224,-104 228,-108 "/>
<text text-anchor="middle" x="114" y="-86.3" font-family="Times,serif" font-size="14.00" fill="#c9d1d8">examples/remote&#45;state/states</text>
</g>
<!-- examples/remote&#45;state/states&#45;&gt;terragrunt.hcl -->
<g id="edge1" class="edge">
<title>examples/remote&#45;state/states&#45;&gt;terragrunt.hcl</title>
<path fill="none" stroke="#4ba8f1" d="M114,-71.7C114,-63.98 114,-54.71 114,-46.11"/>
<polygon fill="#4ba8f1" stroke="#4ba8f1" points="117.5,-46.1 114,-36.1 110.5,-46.1 117.5,-46.1"/>
</g>
</g>
</svg>
