<?xml version="1.0" encoding="UTF-8" standalone="no"?>
<!DOCTYPE svg PUBLIC "-//W3C//DTD SVG 1.1//EN"
 "http://www.w3.org/Graphics/SVG/1.1/DTD/svg11.dtd">
<!-- Generated by graphviz version 2.43.0 (0)
 -->
<!-- Title: %3 Pages: 1 -->
<svg width="1376pt" height="404pt"
 viewBox="0.00 0.00 1375.50 404.00" xmlns="http://www.w3.org/2000/svg" xmlns:xlink="http://www.w3.org/1999/xlink">
<g id="graph0" class="graph" transform="scale(1 1) rotate(0) translate(4 400)">
<title>%3</title>
<polygon fill="transparent" stroke="transparent" points="-4,4 -4,-400 1371.5,-400 1371.5,4 -4,4"/>
<!-- aws/poc/management/boot/organizations/roots/organization -->
<g id="node1" class="node">
<title>aws/poc/management/boot/organizations/roots/organization</title>
<polygon fill="#c0c0c0" stroke="#404040" points="1034.5,-36 595.5,-36 591.5,-32 591.5,0 1030.5,0 1034.5,-4 1034.5,-36"/>
<polyline fill="none" stroke="#404040" points="1030.5,-32 591.5,-32 "/>
<polyline fill="none" stroke="#404040" points="1030.5,-32 1030.5,0 "/>
<polyline fill="none" stroke="#404040" points="1030.5,-32 1034.5,-36 "/>
<text text-anchor="middle" x="813" y="-14.3" font-family="Times,serif" font-size="14.00">aws/poc/management/boot/organizations/roots/organization</text>
</g>
<!-- aws/poc/management/boot/organizations/units/workloads -->
<g id="node2" class="node">
<title>aws/poc/management/boot/organizations/units/workloads</title>
<polygon fill="#c0c0c0" stroke="#404040" points="1026,-108 604,-108 600,-104 600,-72 1022,-72 1026,-76 1026,-108"/>
<polyline fill="none" stroke="#404040" points="1022,-104 600,-104 "/>
<polyline fill="none" stroke="#404040" points="1022,-104 1022,-72 "/>
<polyline fill="none" stroke="#404040" points="1022,-104 1026,-108 "/>
<text text-anchor="middle" x="813" y="-86.3" font-family="Times,serif" font-size="14.00">aws/poc/management/boot/organizations/units/workloads</text>
</g>
<!-- aws/poc/management/boot/organizations/units/workloads&#45;&gt;aws/poc/management/boot/organizations/roots/organization -->
<g id="edge1" class="edge">
<title>aws/poc/management/boot/organizations/units/workloads&#45;&gt;aws/poc/management/boot/organizations/roots/organization</title>
<path fill="none" stroke="#808080" d="M813,-71.7C813,-63.98 813,-54.71 813,-46.11"/>
<polygon fill="#808080" stroke="#808080" points="816.5,-46.1 813,-36.1 809.5,-46.1 816.5,-46.1"/>
</g>
<!-- aws/poc/management/boot/state -->
<g id="node3" class="node">
<title>aws/poc/management/boot/state</title>
<polygon fill="#c0c0c0" stroke="#404040" points="248,-252 4,-252 0,-248 0,-216 244,-216 248,-220 248,-252"/>
<polyline fill="none" stroke="#404040" points="244,-248 0,-248 "/>
<polyline fill="none" stroke="#404040" points="244,-248 244,-216 "/>
<polyline fill="none" stroke="#404040" points="244,-248 248,-252 "/>
<text text-anchor="middle" x="124" y="-230.3" font-family="Times,serif" font-size="14.00">aws/poc/management/boot/state</text>
</g>
<!-- aws/poc/management/dev/organizations/accounts/workload&#45;example&#45;dev -->
<g id="node4" class="node">
<title>aws/poc/management/dev/organizations/accounts/workload&#45;example&#45;dev</title>
<polygon fill="#c0c0c0" stroke="#404040" points="800,-252 270,-252 266,-248 266,-216 796,-216 800,-220 800,-252"/>
<polyline fill="none" stroke="#404040" points="796,-248 266,-248 "/>
<polyline fill="none" stroke="#404040" points="796,-248 796,-216 "/>
<polyline fill="none" stroke="#404040" points="796,-248 800,-252 "/>
<text text-anchor="middle" x="533" y="-230.3" font-family="Times,serif" font-size="14.00">aws/poc/management/dev/organizations/accounts/workload&#45;example&#45;dev</text>
</g>
<!-- aws/poc/management/dev/organizations/units/workloads&#45;dev -->
<g id="node5" class="node">
<title>aws/poc/management/dev/organizations/units/workloads&#45;dev</title>
<polygon fill="#c0c0c0" stroke="#404040" points="800,-180 354,-180 350,-176 350,-144 796,-144 800,-148 800,-180"/>
<polyline fill="none" stroke="#404040" points="796,-176 350,-176 "/>
<polyline fill="none" stroke="#404040" points="796,-176 796,-144 "/>
<polyline fill="none" stroke="#404040" points="796,-176 800,-180 "/>
<text text-anchor="middle" x="575" y="-158.3" font-family="Times,serif" font-size="14.00">aws/poc/management/dev/organizations/units/workloads&#45;dev</text>
</g>
<!-- aws/poc/management/dev/organizations/accounts/workload&#45;example&#45;dev&#45;&gt;aws/poc/management/dev/organizations/units/workloads&#45;dev -->
<g id="edge2" class="edge">
<title>aws/poc/management/dev/organizations/accounts/workload&#45;example&#45;dev&#45;&gt;aws/poc/management/dev/organizations/units/workloads&#45;dev</title>
<path fill="none" stroke="#808080" d="M543.38,-215.7C548.26,-207.56 554.19,-197.69 559.58,-188.7"/>
<polygon fill="#808080" stroke="#808080" points="562.59,-190.48 564.74,-180.1 556.59,-186.88 562.59,-190.48"/>
</g>
<!-- aws/poc/management/dev/organizations/units/workloads&#45;dev&#45;&gt;aws/poc/management/boot/organizations/units/workloads -->
<g id="edge3" class="edge">
<title>aws/poc/management/dev/organizations/units/workloads&#45;dev&#45;&gt;aws/poc/management/boot/organizations/units/workloads</title>
<path fill="none" stroke="#808080" d="M632.92,-143.97C666.75,-134.01 709.62,-121.41 745.04,-110.99"/>
<polygon fill="#808080" stroke="#808080" points="746.22,-114.29 754.82,-108.11 744.24,-107.57 746.22,-114.29"/>
</g>
<!-- aws/poc/management/prod/iam/access -->
<g id="node6" class="node">
<title>aws/poc/management/prod/iam/access</title>
<polygon fill="#c0c0c0" stroke="#404040" points="678,-324 392,-324 388,-320 388,-288 674,-288 678,-292 678,-324"/>
<polyline fill="none" stroke="#404040" points="674,-320 388,-320 "/>
<polyline fill="none" stroke="#404040" points="674,-320 674,-288 "/>
<polyline fill="none" stroke="#404040" points="674,-320 678,-324 "/>
<text text-anchor="middle" x="533" y="-302.3" font-family="Times,serif" font-size="14.00">aws/poc/management/prod/iam/access</text>
</g>
<!-- aws/poc/management/prod/iam/access&#45;&gt;aws/poc/management/boot/state -->
<g id="edge4" class="edge">
<title>aws/poc/management/prod/iam/access&#45;&gt;aws/poc/management/boot/state</title>
<path fill="none" stroke="#808080" d="M433.47,-287.97C373.11,-277.63 296,-264.44 233.86,-253.8"/>
<polygon fill="#808080" stroke="#808080" points="234.07,-250.29 223.62,-252.05 232.89,-257.19 234.07,-250.29"/>
</g>
<!-- aws/poc/management/prod/iam/access&#45;&gt;aws/poc/management/dev/organizations/accounts/workload&#45;example&#45;dev -->
<g id="edge5" class="edge">
<title>aws/poc/management/prod/iam/access&#45;&gt;aws/poc/management/dev/organizations/accounts/workload&#45;example&#45;dev</title>
<path fill="none" stroke="#808080" d="M533,-287.7C533,-279.98 533,-270.71 533,-262.11"/>
<polygon fill="#808080" stroke="#808080" points="536.5,-262.1 533,-252.1 529.5,-262.1 536.5,-262.1"/>
</g>
<!-- aws/poc/management/prod/organizations/accounts/workload&#45;example&#45;prod -->
<g id="node7" class="node">
<title>aws/poc/management/prod/organizations/accounts/workload&#45;example&#45;prod</title>
<polygon fill="#c0c0c0" stroke="#404040" points="1367.5,-252 822.5,-252 818.5,-248 818.5,-216 1363.5,-216 1367.5,-220 1367.5,-252"/>
<polyline fill="none" stroke="#404040" points="1363.5,-248 818.5,-248 "/>
<polyline fill="none" stroke="#404040" points="1363.5,-248 1363.5,-216 "/>
<polyline fill="none" stroke="#404040" points="1363.5,-248 1367.5,-252 "/>
<text text-anchor="middle" x="1093" y="-230.3" font-family="Times,serif" font-size="14.00">aws/poc/management/prod/organizations/accounts/workload&#45;example&#45;prod</text>
</g>
<!-- aws/poc/management/prod/iam/access&#45;&gt;aws/poc/management/prod/organizations/accounts/workload&#45;example&#45;prod -->
<g id="edge6" class="edge">
<title>aws/poc/management/prod/iam/access&#45;&gt;aws/poc/management/prod/organizations/accounts/workload&#45;example&#45;prod</title>
<path fill="none" stroke="#808080" d="M669.28,-287.97C753.2,-277.47 860.77,-264.03 946.52,-253.31"/>
<polygon fill="#808080" stroke="#808080" points="947.11,-256.76 956.6,-252.05 946.24,-249.82 947.11,-256.76"/>
</g>
<!-- aws/poc/management/prod/organizations/units/workloads&#45;prod -->
<g id="node9" class="node">
<title>aws/poc/management/prod/organizations/units/workloads&#45;prod</title>
<polygon fill="#c0c0c0" stroke="#404040" points="1304.5,-180 843.5,-180 839.5,-176 839.5,-144 1300.5,-144 1304.5,-148 1304.5,-180"/>
<polyline fill="none" stroke="#404040" points="1300.5,-176 839.5,-176 "/>
<polyline fill="none" stroke="#404040" points="1300.5,-176 1300.5,-144 "/>
<polyline fill="none" stroke="#404040" points="1300.5,-176 1304.5,-180 "/>
<text text-anchor="middle" x="1072" y="-158.3" font-family="Times,serif" font-size="14.00">aws/poc/management/prod/organizations/units/workloads&#45;prod</text>
</g>
<!-- aws/poc/management/prod/organizations/accounts/workload&#45;example&#45;prod&#45;&gt;aws/poc/management/prod/organizations/units/workloads&#45;prod -->
<g id="edge8" class="edge">
<title>aws/poc/management/prod/organizations/accounts/workload&#45;example&#45;prod&#45;&gt;aws/poc/management/prod/organizations/units/workloads&#45;prod</title>
<path fill="none" stroke="#808080" d="M1087.81,-215.7C1085.47,-207.9 1082.65,-198.51 1080.05,-189.83"/>
<polygon fill="#808080" stroke="#808080" points="1083.36,-188.68 1077.13,-180.1 1076.65,-190.69 1083.36,-188.68"/>
</g>
<!-- aws/poc/management/prod/iam/identity -->
<g id="node8" class="node">
<title>aws/poc/management/prod/iam/identity</title>
<polygon fill="#c0c0c0" stroke="#404040" points="682.5,-396 387.5,-396 383.5,-392 383.5,-360 678.5,-360 682.5,-364 682.5,-396"/>
<polyline fill="none" stroke="#404040" points="678.5,-392 383.5,-392 "/>
<polyline fill="none" stroke="#404040" points="678.5,-392 678.5,-360 "/>
<polyline fill="none" stroke="#404040" points="678.5,-392 682.5,-396 "/>
<text text-anchor="middle" x="533" y="-374.3" font-family="Times,serif" font-size="14.00">aws/poc/management/prod/iam/identity</text>
</g>
<!-- aws/poc/management/prod/iam/identity&#45;&gt;aws/poc/management/prod/iam/access -->
<g id="edge7" class="edge">
<title>aws/poc/management/prod/iam/identity&#45;&gt;aws/poc/management/prod/iam/access</title>
<path fill="none" stroke="#808080" d="M533,-359.7C533,-351.98 533,-342.71 533,-334.11"/>
<polygon fill="#808080" stroke="#808080" points="536.5,-334.1 533,-324.1 529.5,-334.1 536.5,-334.1"/>
</g>
<!-- aws/poc/management/prod/organizations/units/workloads&#45;prod&#45;&gt;aws/poc/management/boot/organizations/units/workloads -->
<g id="edge9" class="edge">
<title>aws/poc/management/prod/organizations/units/workloads&#45;prod&#45;&gt;aws/poc/management/boot/organizations/units/workloads</title>
<path fill="none" stroke="#808080" d="M1008.97,-143.97C971.84,-133.93 924.7,-121.19 885.97,-110.72"/>
<polygon fill="#808080" stroke="#808080" points="886.88,-107.34 876.31,-108.11 885.05,-114.1 886.88,-107.34"/>
</g>
</g>
</svg>
