<?xml version="1.0" encoding="UTF-8" standalone="no"?>
<!DOCTYPE svg PUBLIC "-//W3C//DTD SVG 1.1//EN"
 "http://www.w3.org/Graphics/SVG/1.1/DTD/svg11.dtd">
<!-- Generated by graphviz version 2.43.0 (0)
 -->
<!-- Title: %3 Pages: 1 -->
<svg width="1689pt" height="476pt"
 viewBox="0.00 0.00 1688.78 476.00" xmlns="http://www.w3.org/2000/svg" xmlns:xlink="http://www.w3.org/1999/xlink">
<g id="graph0" class="graph" transform="scale(1 1) rotate(0) translate(4 472)">
<title>%3</title>
<polygon fill="transparent" stroke="transparent" points="-4,4 -4,-472 1684.78,-472 1684.78,4 -4,4"/>
<!-- terragrunt.hcl -->
<g id="node1" class="node">
<title>terragrunt.hcl</title>
<polygon fill="#4179ea" stroke="#5754dd" points="429.28,-36 317.28,-36 317.28,0 435.28,0 435.28,-30 429.28,-36"/>
<polyline fill="none" stroke="#5754dd" points="429.28,-36 429.28,-30 "/>
<polyline fill="none" stroke="#5754dd" points="435.28,-30 429.28,-30 "/>
<text text-anchor="middle" x="376.28" y="-14.3" font-family="Times,serif" font-size="14.00" fill="#c9d1d8">terragrunt.hcl</text>
</g>
<!-- aws/poc/management/boot/organizations/root -->
<g id="node2" class="node">
<title>aws/poc/management/boot/organizations/root</title>
<polygon fill="#4447cc" stroke="#5754dd" points="695.28,-108 357.28,-108 353.28,-104 353.28,-72 691.28,-72 695.28,-76 695.28,-108"/>
<polyline fill="none" stroke="#5754dd" points="691.28,-104 353.28,-104 "/>
<polyline fill="none" stroke="#5754dd" points="691.28,-104 691.28,-72 "/>
<polyline fill="none" stroke="#5754dd" points="691.28,-104 695.28,-108 "/>
<text text-anchor="middle" x="524.28" y="-86.3" font-family="Times,serif" font-size="14.00" fill="#c9d1d8">aws/poc/management/boot/organizations/root</text>
</g>
<!-- aws/poc/management/boot/organizations/root&#45;&gt;terragrunt.hcl -->
<g id="edge1" class="edge">
<title>aws/poc/management/boot/organizations/root&#45;&gt;terragrunt.hcl</title>
<path fill="none" stroke="#4ba8f1" d="M488.08,-71.88C468.03,-62.39 442.91,-50.51 421.57,-40.42"/>
<polygon fill="#4ba8f1" stroke="#4ba8f1" points="422.91,-37.18 412.37,-36.07 419.91,-43.51 422.91,-37.18"/>
</g>
<!-- aws/poc/management/boot/organizations/units/workloads -->
<g id="node3" class="node">
<title>aws/poc/management/boot/organizations/units/workloads</title>
<polygon fill="#4447cc" stroke="#5754dd" points="879.28,-180 457.28,-180 453.28,-176 453.28,-144 875.28,-144 879.28,-148 879.28,-180"/>
<polyline fill="none" stroke="#5754dd" points="875.28,-176 453.28,-176 "/>
<polyline fill="none" stroke="#5754dd" points="875.28,-176 875.28,-144 "/>
<polyline fill="none" stroke="#5754dd" points="875.28,-176 879.28,-180 "/>
<text text-anchor="middle" x="666.28" y="-158.3" font-family="Times,serif" font-size="14.00" fill="#c9d1d8">aws/poc/management/boot/organizations/units/workloads</text>
</g>
<!-- aws/poc/management/boot/organizations/units/workloads&#45;&gt;aws/poc/management/boot/organizations/root -->
<g id="edge2" class="edge">
<title>aws/poc/management/boot/organizations/units/workloads&#45;&gt;aws/poc/management/boot/organizations/root</title>
<path fill="none" stroke="#4ba8f1" d="M631.55,-143.88C612.46,-134.47 588.6,-122.71 568.24,-112.67"/>
<polygon fill="#4ba8f1" stroke="#4ba8f1" points="569.67,-109.47 559.15,-108.19 566.58,-115.75 569.67,-109.47"/>
</g>
<!-- aws/poc/management/boot/terraform&#45;state -->
<g id="node4" class="node">
<title>aws/poc/management/boot/terraform&#45;state</title>
<polygon fill="#4447cc" stroke="#5754dd" points="342.28,-180 24.28,-180 20.28,-176 20.28,-144 338.28,-144 342.28,-148 342.28,-180"/>
<polyline fill="none" stroke="#5754dd" points="338.28,-176 20.28,-176 "/>
<polyline fill="none" stroke="#5754dd" points="338.28,-176 338.28,-144 "/>
<polyline fill="none" stroke="#5754dd" points="338.28,-176 342.28,-180 "/>
<text text-anchor="middle" x="181.28" y="-158.3" font-family="Times,serif" font-size="14.00" fill="#c9d1d8">aws/poc/management/boot/terraform&#45;state</text>
</g>
<!-- aws/poc/management/boot/terraform&#45;state&#45;&gt;terragrunt.hcl -->
<g id="edge3" class="edge">
<title>aws/poc/management/boot/terraform&#45;state&#45;&gt;terragrunt.hcl</title>
<path fill="none" stroke="#4ba8f1" d="M204.8,-143.87C239.65,-118.5 305.07,-70.85 344.26,-42.32"/>
<polygon fill="#4ba8f1" stroke="#4ba8f1" points="346.65,-44.91 352.68,-36.19 342.53,-39.25 346.65,-44.91"/>
</g>
<!-- aws/poc/management/dev/organizations/accounts/workload&#45;example&#45;dev -->
<g id="node5" class="node">
<title>aws/poc/management/dev/organizations/accounts/workload&#45;example&#45;dev</title>
<polygon fill="#4447cc" stroke="#5754dd" points="556.28,-324 26.28,-324 22.28,-320 22.28,-288 552.28,-288 556.28,-292 556.28,-324"/>
<polyline fill="none" stroke="#5754dd" points="552.28,-320 22.28,-320 "/>
<polyline fill="none" stroke="#5754dd" points="552.28,-320 552.28,-288 "/>
<polyline fill="none" stroke="#5754dd" points="552.28,-320 556.28,-324 "/>
<text text-anchor="middle" x="289.28" y="-302.3" font-family="Times,serif" font-size="14.00" fill="#c9d1d8">aws/poc/management/dev/organizations/accounts/workload&#45;example&#45;dev</text>
</g>
<!-- aws/poc/management/dev/organizations/units/workloads&#45;dev -->
<g id="node6" class="node">
<title>aws/poc/management/dev/organizations/units/workloads&#45;dev</title>
<polygon fill="#4447cc" stroke="#5754dd" points="535.28,-252 89.28,-252 85.28,-248 85.28,-216 531.28,-216 535.28,-220 535.28,-252"/>
<polyline fill="none" stroke="#5754dd" points="531.28,-248 85.28,-248 "/>
<polyline fill="none" stroke="#5754dd" points="531.28,-248 531.28,-216 "/>
<polyline fill="none" stroke="#5754dd" points="531.28,-248 535.28,-252 "/>
<text text-anchor="middle" x="310.28" y="-230.3" font-family="Times,serif" font-size="14.00" fill="#c9d1d8">aws/poc/management/dev/organizations/units/workloads&#45;dev</text>
</g>
<!-- aws/poc/management/dev/organizations/accounts/workload&#45;example&#45;dev&#45;&gt;aws/poc/management/dev/organizations/units/workloads&#45;dev -->
<g id="edge4" class="edge">
<title>aws/poc/management/dev/organizations/accounts/workload&#45;example&#45;dev&#45;&gt;aws/poc/management/dev/organizations/units/workloads&#45;dev</title>
<path fill="none" stroke="#4ba8f1" d="M294.47,-287.7C296.81,-279.9 299.63,-270.51 302.23,-261.83"/>
<polygon fill="#4ba8f1" stroke="#4ba8f1" points="305.63,-262.69 305.15,-252.1 298.93,-260.68 305.63,-262.69"/>
</g>
<!-- aws/poc/management/dev/organizations/units/workloads&#45;dev&#45;&gt;aws/poc/management/boot/organizations/units/workloads -->
<g id="edge5" class="edge">
<title>aws/poc/management/dev/organizations/units/workloads&#45;dev&#45;&gt;aws/poc/management/boot/organizations/units/workloads</title>
<path fill="none" stroke="#4ba8f1" d="M396.92,-215.97C449.13,-205.7 515.74,-192.6 569.66,-182"/>
<polygon fill="#4ba8f1" stroke="#4ba8f1" points="570.43,-185.41 579.57,-180.05 569.08,-178.55 570.43,-185.41"/>
</g>
<!-- aws/poc/management/prod/iam/access -->
<g id="node7" class="node">
<title>aws/poc/management/prod/iam/access</title>
<polygon fill="#4447cc" stroke="#5754dd" points="711.28,-396 425.28,-396 421.28,-392 421.28,-360 707.28,-360 711.28,-364 711.28,-396"/>
<polyline fill="none" stroke="#5754dd" points="707.28,-392 421.28,-392 "/>
<polyline fill="none" stroke="#5754dd" points="707.28,-392 707.28,-360 "/>
<polyline fill="none" stroke="#5754dd" points="707.28,-392 711.28,-396 "/>
<text text-anchor="middle" x="566.28" y="-374.3" font-family="Times,serif" font-size="14.00" fill="#c9d1d8">aws/poc/management/prod/iam/access</text>
</g>
<!-- aws/poc/management/prod/iam/access&#45;&gt;aws/poc/management/boot/terraform&#45;state -->
<g id="edge6" class="edge">
<title>aws/poc/management/prod/iam/access&#45;&gt;aws/poc/management/boot/terraform&#45;state</title>
<path fill="none" stroke="#4ba8f1" d="M421.02,-373C266.42,-367.21 40.3,-353.73 13.28,-324 -34.88,-271 64.23,-214.19 129.73,-184.27"/>
<polygon fill="#4ba8f1" stroke="#4ba8f1" points="131.44,-187.34 139.13,-180.06 128.58,-180.96 131.44,-187.34"/>
</g>
<!-- aws/poc/management/prod/iam/access&#45;&gt;aws/poc/management/dev/organizations/accounts/workload&#45;example&#45;dev -->
<g id="edge7" class="edge">
<title>aws/poc/management/prod/iam/access&#45;&gt;aws/poc/management/dev/organizations/accounts/workload&#45;example&#45;dev</title>
<path fill="none" stroke="#4ba8f1" d="M498.88,-359.97C458.99,-349.89 408.32,-337.08 366.79,-326.59"/>
<polygon fill="#4ba8f1" stroke="#4ba8f1" points="367.55,-323.17 356.99,-324.11 365.83,-329.95 367.55,-323.17"/>
</g>
<!-- aws/poc/management/test/organizations/accounts/workload&#45;example&#45;test -->
<g id="node8" class="node">
<title>aws/poc/management/test/organizations/accounts/workload&#45;example&#45;test</title>
<polygon fill="#4447cc" stroke="#5754dd" points="1113.78,-324 578.78,-324 574.78,-320 574.78,-288 1109.78,-288 1113.78,-292 1113.78,-324"/>
<polyline fill="none" stroke="#5754dd" points="1109.78,-320 574.78,-320 "/>
<polyline fill="none" stroke="#5754dd" points="1109.78,-320 1109.78,-288 "/>
<polyline fill="none" stroke="#5754dd" points="1109.78,-320 1113.78,-324 "/>
<text text-anchor="middle" x="844.28" y="-302.3" font-family="Times,serif" font-size="14.00" fill="#c9d1d8">aws/poc/management/test/organizations/accounts/workload&#45;example&#45;test</text>
</g>
<!-- aws/poc/management/prod/iam/access&#45;&gt;aws/poc/management/test/organizations/accounts/workload&#45;example&#45;test -->
<g id="edge8" class="edge">
<title>aws/poc/management/prod/iam/access&#45;&gt;aws/poc/management/test/organizations/accounts/workload&#45;example&#45;test</title>
<path fill="none" stroke="#4ba8f1" d="M633.93,-359.97C673.96,-349.89 724.81,-337.08 766.49,-326.59"/>
<polygon fill="#4ba8f1" stroke="#4ba8f1" points="767.49,-329.95 776.33,-324.11 765.78,-323.16 767.49,-329.95"/>
</g>
<!-- aws/poc/management/prod/organizations/accounts/workload&#45;example&#45;prod -->
<g id="node9" class="node">
<title>aws/poc/management/prod/organizations/accounts/workload&#45;example&#45;prod</title>
<polygon fill="#4447cc" stroke="#5754dd" points="1680.78,-324 1135.78,-324 1131.78,-320 1131.78,-288 1676.78,-288 1680.78,-292 1680.78,-324"/>
<polyline fill="none" stroke="#5754dd" points="1676.78,-320 1131.78,-320 "/>
<polyline fill="none" stroke="#5754dd" points="1676.78,-320 1676.78,-288 "/>
<polyline fill="none" stroke="#5754dd" points="1676.78,-320 1680.78,-324 "/>
<text text-anchor="middle" x="1406.28" y="-302.3" font-family="Times,serif" font-size="14.00" fill="#c9d1d8">aws/poc/management/prod/organizations/accounts/workload&#45;example&#45;prod</text>
</g>
<!-- aws/poc/management/prod/iam/access&#45;&gt;aws/poc/management/prod/organizations/accounts/workload&#45;example&#45;prod -->
<g id="edge9" class="edge">
<title>aws/poc/management/prod/iam/access&#45;&gt;aws/poc/management/prod/organizations/accounts/workload&#45;example&#45;prod</title>
<path fill="none" stroke="#4ba8f1" d="M711.64,-364.89C844.07,-353.85 1041.37,-337.41 1191.89,-324.87"/>
<polygon fill="#4ba8f1" stroke="#4ba8f1" points="1192.52,-328.33 1202.19,-324.01 1191.93,-321.35 1192.52,-328.33"/>
</g>
<!-- aws/poc/management/test/organizations/units/workloads&#45;test -->
<g id="node12" class="node">
<title>aws/poc/management/test/organizations/units/workloads&#45;test</title>
<polygon fill="#4447cc" stroke="#5754dd" points="1050.78,-252 599.78,-252 595.78,-248 595.78,-216 1046.78,-216 1050.78,-220 1050.78,-252"/>
<polyline fill="none" stroke="#5754dd" points="1046.78,-248 595.78,-248 "/>
<polyline fill="none" stroke="#5754dd" points="1046.78,-248 1046.78,-216 "/>
<polyline fill="none" stroke="#5754dd" points="1046.78,-248 1050.78,-252 "/>
<text text-anchor="middle" x="823.28" y="-230.3" font-family="Times,serif" font-size="14.00" fill="#c9d1d8">aws/poc/management/test/organizations/units/workloads&#45;test</text>
</g>
<!-- aws/poc/management/test/organizations/accounts/workload&#45;example&#45;test&#45;&gt;aws/poc/management/test/organizations/units/workloads&#45;test -->
<g id="edge13" class="edge">
<title>aws/poc/management/test/organizations/accounts/workload&#45;example&#45;test&#45;&gt;aws/poc/management/test/organizations/units/workloads&#45;test</title>
<path fill="none" stroke="#4ba8f1" d="M839.09,-287.7C836.75,-279.9 833.94,-270.51 831.33,-261.83"/>
<polygon fill="#4ba8f1" stroke="#4ba8f1" points="834.64,-260.68 828.41,-252.1 827.94,-262.69 834.64,-260.68"/>
</g>
<!-- aws/poc/management/prod/organizations/units/workloads&#45;prod -->
<g id="node11" class="node">
<title>aws/poc/management/prod/organizations/units/workloads&#45;prod</title>
<polygon fill="#4447cc" stroke="#5754dd" points="1596.78,-252 1135.78,-252 1131.78,-248 1131.78,-216 1592.78,-216 1596.78,-220 1596.78,-252"/>
<polyline fill="none" stroke="#5754dd" points="1592.78,-248 1131.78,-248 "/>
<polyline fill="none" stroke="#5754dd" points="1592.78,-248 1592.78,-216 "/>
<polyline fill="none" stroke="#5754dd" points="1592.78,-248 1596.78,-252 "/>
<text text-anchor="middle" x="1364.28" y="-230.3" font-family="Times,serif" font-size="14.00" fill="#c9d1d8">aws/poc/management/prod/organizations/units/workloads&#45;prod</text>
</g>
<!-- aws/poc/management/prod/organizations/accounts/workload&#45;example&#45;prod&#45;&gt;aws/poc/management/prod/organizations/units/workloads&#45;prod -->
<g id="edge11" class="edge">
<title>aws/poc/management/prod/organizations/accounts/workload&#45;example&#45;prod&#45;&gt;aws/poc/management/prod/organizations/units/workloads&#45;prod</title>
<path fill="none" stroke="#4ba8f1" d="M1395.9,-287.7C1391.02,-279.56 1385.1,-269.69 1379.7,-260.7"/>
<polygon fill="#4ba8f1" stroke="#4ba8f1" points="1382.69,-258.88 1374.55,-252.1 1376.69,-262.48 1382.69,-258.88"/>
</g>
<!-- aws/poc/management/prod/iam/identity -->
<g id="node10" class="node">
<title>aws/poc/management/prod/iam/identity</title>
<polygon fill="#4447cc" stroke="#5754dd" points="715.78,-468 420.78,-468 416.78,-464 416.78,-432 711.78,-432 715.78,-436 715.78,-468"/>
<polyline fill="none" stroke="#5754dd" points="711.78,-464 416.78,-464 "/>
<polyline fill="none" stroke="#5754dd" points="711.78,-464 711.78,-432 "/>
<polyline fill="none" stroke="#5754dd" points="711.78,-464 715.78,-468 "/>
<text text-anchor="middle" x="566.28" y="-446.3" font-family="Times,serif" font-size="14.00" fill="#c9d1d8">aws/poc/management/prod/iam/identity</text>
</g>
<!-- aws/poc/management/prod/iam/identity&#45;&gt;aws/poc/management/prod/iam/access -->
<g id="edge10" class="edge">
<title>aws/poc/management/prod/iam/identity&#45;&gt;aws/poc/management/prod/iam/access</title>
<path fill="none" stroke="#4ba8f1" d="M566.28,-431.7C566.28,-423.98 566.28,-414.71 566.28,-406.11"/>
<polygon fill="#4ba8f1" stroke="#4ba8f1" points="569.78,-406.1 566.28,-396.1 562.78,-406.1 569.78,-406.1"/>
</g>
<!-- aws/poc/management/prod/organizations/units/workloads&#45;prod&#45;&gt;aws/poc/management/boot/organizations/units/workloads -->
<g id="edge12" class="edge">
<title>aws/poc/management/prod/organizations/units/workloads&#45;prod&#45;&gt;aws/poc/management/boot/organizations/units/workloads</title>
<path fill="none" stroke="#4ba8f1" d="M1194.43,-215.97C1088.87,-205.38 953.31,-191.79 845.96,-181.02"/>
<polygon fill="#4ba8f1" stroke="#4ba8f1" points="846.29,-177.54 835.99,-180.02 845.59,-184.5 846.29,-177.54"/>
</g>
<!-- aws/poc/management/test/organizations/units/workloads&#45;test&#45;&gt;aws/poc/management/boot/organizations/units/workloads -->
<g id="edge14" class="edge">
<title>aws/poc/management/test/organizations/units/workloads&#45;test&#45;&gt;aws/poc/management/boot/organizations/units/workloads</title>
<path fill="none" stroke="#4ba8f1" d="M784.88,-215.88C763.41,-206.31 736.48,-194.3 713.71,-184.15"/>
<polygon fill="#4ba8f1" stroke="#4ba8f1" points="715.12,-180.94 704.56,-180.07 712.27,-187.34 715.12,-180.94"/>
</g>
</g>
</svg>
