<?xml version="1.0" encoding="UTF-8" standalone="no"?>
<!DOCTYPE svg PUBLIC "-//W3C//DTD SVG 1.1//EN"
 "http://www.w3.org/Graphics/SVG/1.1/DTD/svg11.dtd">
<!-- Generated by graphviz version 2.48.0 (20210717.1556)
 -->
<!-- Pages: 1 -->
<svg width="1434pt" height="476pt"
 viewBox="0.00 0.00 1434.00 476.00" xmlns="http://www.w3.org/2000/svg" xmlns:xlink="http://www.w3.org/1999/xlink">
<g id="graph0" class="graph" transform="scale(1 1) rotate(0) translate(4 472)">
<polygon fill="transparent" stroke="transparent" points="-4,4 -4,-472 1430,-472 1430,4 -4,4"/>
<!-- terragrunt.hcl -->
<g id="node1" class="node">
<title>terragrunt.hcl</title>
<polygon fill="#4179ea" stroke="#5754dd" points="952.5,-36 866.5,-36 866.5,0 958.5,0 958.5,-30 952.5,-36"/>
<polyline fill="none" stroke="#5754dd" points="952.5,-36 952.5,-30 "/>
<polyline fill="none" stroke="#5754dd" points="958.5,-30 952.5,-30 "/>
<text text-anchor="middle" x="912.5" y="-14.3" font-family="Times,serif" font-size="14.00" fill="#c9d1d8">terragrunt.hcl</text>
</g>
<!-- aws/poc/management/boot/organizations/root -->
<g id="node2" class="node">
<title>aws/poc/management/boot/organizations/root</title>
<polygon fill="#4447cc" stroke="#5754dd" points="785.5,-108 517.5,-108 513.5,-104 513.5,-72 781.5,-72 785.5,-76 785.5,-108"/>
<polyline fill="none" stroke="#5754dd" points="781.5,-104 513.5,-104 "/>
<polyline fill="none" stroke="#5754dd" points="781.5,-104 781.5,-72 "/>
<polyline fill="none" stroke="#5754dd" points="781.5,-104 785.5,-108 "/>
<text text-anchor="middle" x="649.5" y="-86.3" font-family="Times,serif" font-size="14.00" fill="#c9d1d8">aws/poc/management/boot/organizations/root</text>
</g>
<!-- aws/poc/management/boot/organizations/root&#45;&gt;terragrunt.hcl -->
<g id="edge1" class="edge">
<title>aws/poc/management/boot/organizations/root&#45;&gt;terragrunt.hcl</title>
<path fill="none" stroke="#4ba8f1" d="M713.5,-71.97C757.28,-60.31 814.75,-45.02 856.67,-33.86"/>
<polygon fill="#4ba8f1" stroke="#4ba8f1" points="857.67,-37.21 866.44,-31.26 855.87,-30.45 857.67,-37.21"/>
</g>
<!-- aws/poc/management/boot/organizations/units/workloads -->
<g id="node3" class="node">
<title>aws/poc/management/boot/organizations/units/workloads</title>
<polygon fill="#4447cc" stroke="#5754dd" points="769,-180 434,-180 430,-176 430,-144 765,-144 769,-148 769,-180"/>
<polyline fill="none" stroke="#5754dd" points="765,-176 430,-176 "/>
<polyline fill="none" stroke="#5754dd" points="765,-176 765,-144 "/>
<polyline fill="none" stroke="#5754dd" points="765,-176 769,-180 "/>
<text text-anchor="middle" x="599.5" y="-158.3" font-family="Times,serif" font-size="14.00" fill="#c9d1d8">aws/poc/management/boot/organizations/units/workloads</text>
</g>
<!-- aws/poc/management/boot/organizations/units/workloads&#45;&gt;aws/poc/management/boot/organizations/root -->
<g id="edge2" class="edge">
<title>aws/poc/management/boot/organizations/units/workloads&#45;&gt;aws/poc/management/boot/organizations/root</title>
<path fill="none" stroke="#4ba8f1" d="M611.86,-143.7C617.73,-135.47 624.87,-125.48 631.34,-116.42"/>
<polygon fill="#4ba8f1" stroke="#4ba8f1" points="634.32,-118.28 637.28,-108.1 628.62,-114.21 634.32,-118.28"/>
</g>
<!-- aws/poc/management/boot/terraform&#45;state -->
<g id="node4" class="node">
<title>aws/poc/management/boot/terraform&#45;state</title>
<polygon fill="#4447cc" stroke="#5754dd" points="1056.5,-252 806.5,-252 802.5,-248 802.5,-216 1052.5,-216 1056.5,-220 1056.5,-252"/>
<polyline fill="none" stroke="#5754dd" points="1052.5,-248 802.5,-248 "/>
<polyline fill="none" stroke="#5754dd" points="1052.5,-248 1052.5,-216 "/>
<polyline fill="none" stroke="#5754dd" points="1052.5,-248 1056.5,-252 "/>
<text text-anchor="middle" x="929.5" y="-230.3" font-family="Times,serif" font-size="14.00" fill="#c9d1d8">aws/poc/management/boot/terraform&#45;state</text>
</g>
<!-- aws/poc/management/boot/terraform&#45;state&#45;&gt;terragrunt.hcl -->
<g id="edge3" class="edge">
<title>aws/poc/management/boot/terraform&#45;state&#45;&gt;terragrunt.hcl</title>
<path fill="none" stroke="#4ba8f1" d="M920.74,-215.77C909.28,-192.17 889.8,-148.15 882.5,-108 879.64,-92.26 878.42,-87.47 882.5,-72 884.99,-62.54 889.6,-52.99 894.47,-44.66"/>
<polygon fill="#4ba8f1" stroke="#4ba8f1" points="897.45,-46.49 899.77,-36.15 891.51,-42.79 897.45,-46.49"/>
</g>
<!-- aws/poc/management/dev/organizations/accounts/workload&#45;example&#45;dev -->
<g id="node5" class="node">
<title>aws/poc/management/dev/organizations/accounts/workload&#45;example&#45;dev</title>
<polygon fill="#4447cc" stroke="#5754dd" points="430.5,-324 6.5,-324 2.5,-320 2.5,-288 426.5,-288 430.5,-292 430.5,-324"/>
<polyline fill="none" stroke="#5754dd" points="426.5,-320 2.5,-320 "/>
<polyline fill="none" stroke="#5754dd" points="426.5,-320 426.5,-288 "/>
<polyline fill="none" stroke="#5754dd" points="426.5,-320 430.5,-324 "/>
<text text-anchor="middle" x="216.5" y="-302.3" font-family="Times,serif" font-size="14.00" fill="#c9d1d8">aws/poc/management/dev/organizations/accounts/workload&#45;example&#45;dev</text>
</g>
<!-- aws/poc/management/dev/organizations/units/workloads&#45;dev -->
<g id="node6" class="node">
<title>aws/poc/management/dev/organizations/units/workloads&#45;dev</title>
<polygon fill="#4447cc" stroke="#5754dd" points="396,-252 41,-252 37,-248 37,-216 392,-216 396,-220 396,-252"/>
<polyline fill="none" stroke="#5754dd" points="392,-248 37,-248 "/>
<polyline fill="none" stroke="#5754dd" points="392,-248 392,-216 "/>
<polyline fill="none" stroke="#5754dd" points="392,-248 396,-252 "/>
<text text-anchor="middle" x="216.5" y="-230.3" font-family="Times,serif" font-size="14.00" fill="#c9d1d8">aws/poc/management/dev/organizations/units/workloads&#45;dev</text>
</g>
<!-- aws/poc/management/dev/organizations/accounts/workload&#45;example&#45;dev&#45;&gt;aws/poc/management/dev/organizations/units/workloads&#45;dev -->
<g id="edge4" class="edge">
<title>aws/poc/management/dev/organizations/accounts/workload&#45;example&#45;dev&#45;&gt;aws/poc/management/dev/organizations/units/workloads&#45;dev</title>
<path fill="none" stroke="#4ba8f1" d="M216.5,-287.7C216.5,-279.98 216.5,-270.71 216.5,-262.11"/>
<polygon fill="#4ba8f1" stroke="#4ba8f1" points="220,-262.1 216.5,-252.1 213,-262.1 220,-262.1"/>
</g>
<!-- aws/poc/management/dev/organizations/units/workloads&#45;dev&#45;&gt;aws/poc/management/boot/organizations/units/workloads -->
<g id="edge5" class="edge">
<title>aws/poc/management/dev/organizations/units/workloads&#45;dev&#45;&gt;aws/poc/management/boot/organizations/units/workloads</title>
<path fill="none" stroke="#4ba8f1" d="M309.7,-215.97C366.11,-205.66 438.14,-192.49 496.27,-181.87"/>
<polygon fill="#4ba8f1" stroke="#4ba8f1" points="497,-185.29 506.21,-180.05 495.75,-178.41 497,-185.29"/>
</g>
<!-- aws/poc/management/prod/iam/access -->
<g id="node7" class="node">
<title>aws/poc/management/prod/iam/access</title>
<polygon fill="#4447cc" stroke="#5754dd" points="579.5,-396 351.5,-396 347.5,-392 347.5,-360 575.5,-360 579.5,-364 579.5,-396"/>
<polyline fill="none" stroke="#5754dd" points="575.5,-392 347.5,-392 "/>
<polyline fill="none" stroke="#5754dd" points="575.5,-392 575.5,-360 "/>
<polyline fill="none" stroke="#5754dd" points="575.5,-392 579.5,-396 "/>
<text text-anchor="middle" x="463.5" y="-374.3" font-family="Times,serif" font-size="14.00" fill="#c9d1d8">aws/poc/management/prod/iam/access</text>
</g>
<!-- aws/poc/management/prod/iam/access&#45;&gt;aws/poc/management/boot/terraform&#45;state -->
<g id="edge6" class="edge">
<title>aws/poc/management/prod/iam/access&#45;&gt;aws/poc/management/boot/terraform&#45;state</title>
<path fill="none" stroke="#4ba8f1" d="M474.92,-359.96C489.85,-339.18 518.1,-304.77 551.5,-288 557.06,-285.21 686.35,-267.43 792.19,-253.22"/>
<polygon fill="#4ba8f1" stroke="#4ba8f1" points="792.91,-256.66 802.35,-251.86 791.98,-249.72 792.91,-256.66"/>
</g>
<!-- aws/poc/management/prod/iam/access&#45;&gt;aws/poc/management/dev/organizations/accounts/workload&#45;example&#45;dev -->
<g id="edge7" class="edge">
<title>aws/poc/management/prod/iam/access&#45;&gt;aws/poc/management/dev/organizations/accounts/workload&#45;example&#45;dev</title>
<path fill="none" stroke="#4ba8f1" d="M403.39,-359.97C368.13,-349.97 323.41,-337.3 286.56,-326.85"/>
<polygon fill="#4ba8f1" stroke="#4ba8f1" points="287.45,-323.47 276.88,-324.11 285.54,-330.2 287.45,-323.47"/>
</g>
<!-- aws/poc/management/prod/organizations/accounts/workload&#45;example&#45;prod -->
<g id="node8" class="node">
<title>aws/poc/management/prod/organizations/accounts/workload&#45;example&#45;prod</title>
<polygon fill="#4447cc" stroke="#5754dd" points="998.5,-324 564.5,-324 560.5,-320 560.5,-288 994.5,-288 998.5,-292 998.5,-324"/>
<polyline fill="none" stroke="#5754dd" points="994.5,-320 560.5,-320 "/>
<polyline fill="none" stroke="#5754dd" points="994.5,-320 994.5,-288 "/>
<polyline fill="none" stroke="#5754dd" points="994.5,-320 998.5,-324 "/>
<text text-anchor="middle" x="779.5" y="-302.3" font-family="Times,serif" font-size="14.00" fill="#c9d1d8">aws/poc/management/prod/organizations/accounts/workload&#45;example&#45;prod</text>
</g>
<!-- aws/poc/management/prod/iam/access&#45;&gt;aws/poc/management/prod/organizations/accounts/workload&#45;example&#45;prod -->
<g id="edge8" class="edge">
<title>aws/poc/management/prod/iam/access&#45;&gt;aws/poc/management/prod/organizations/accounts/workload&#45;example&#45;prod</title>
<path fill="none" stroke="#4ba8f1" d="M540.4,-359.97C586.36,-349.78 644.89,-336.82 692.54,-326.26"/>
<polygon fill="#4ba8f1" stroke="#4ba8f1" points="693.52,-329.63 702.53,-324.05 692.01,-322.8 693.52,-329.63"/>
</g>
<!-- aws/poc/management/prod/organizations/units/workloads&#45;prod -->
<g id="node10" class="node">
<title>aws/poc/management/prod/organizations/units/workloads&#45;prod</title>
<polygon fill="#4447cc" stroke="#5754dd" points="784.5,-252 418.5,-252 414.5,-248 414.5,-216 780.5,-216 784.5,-220 784.5,-252"/>
<polyline fill="none" stroke="#5754dd" points="780.5,-248 414.5,-248 "/>
<polyline fill="none" stroke="#5754dd" points="780.5,-248 780.5,-216 "/>
<polyline fill="none" stroke="#5754dd" points="780.5,-248 784.5,-252 "/>
<text text-anchor="middle" x="599.5" y="-230.3" font-family="Times,serif" font-size="14.00" fill="#c9d1d8">aws/poc/management/prod/organizations/units/workloads&#45;prod</text>
</g>
<!-- aws/poc/management/prod/organizations/accounts/workload&#45;example&#45;prod&#45;&gt;aws/poc/management/prod/organizations/units/workloads&#45;prod -->
<g id="edge10" class="edge">
<title>aws/poc/management/prod/organizations/accounts/workload&#45;example&#45;prod&#45;&gt;aws/poc/management/prod/organizations/units/workloads&#45;prod</title>
<path fill="none" stroke="#4ba8f1" d="M735.47,-287.88C710.53,-278.18 679.16,-265.98 652.84,-255.74"/>
<polygon fill="#4ba8f1" stroke="#4ba8f1" points="653.98,-252.43 643.39,-252.07 651.44,-258.95 653.98,-252.43"/>
</g>
<!-- aws/poc/management/prod/iam/identity -->
<g id="node9" class="node">
<title>aws/poc/management/prod/iam/identity</title>
<polygon fill="#4447cc" stroke="#5754dd" points="583,-468 348,-468 344,-464 344,-432 579,-432 583,-436 583,-468"/>
<polyline fill="none" stroke="#5754dd" points="579,-464 344,-464 "/>
<polyline fill="none" stroke="#5754dd" points="579,-464 579,-432 "/>
<polyline fill="none" stroke="#5754dd" points="579,-464 583,-468 "/>
<text text-anchor="middle" x="463.5" y="-446.3" font-family="Times,serif" font-size="14.00" fill="#c9d1d8">aws/poc/management/prod/iam/identity</text>
</g>
<!-- aws/poc/management/prod/iam/identity&#45;&gt;aws/poc/management/prod/iam/access -->
<g id="edge9" class="edge">
<title>aws/poc/management/prod/iam/identity&#45;&gt;aws/poc/management/prod/iam/access</title>
<path fill="none" stroke="#4ba8f1" d="M463.5,-431.7C463.5,-423.98 463.5,-414.71 463.5,-406.11"/>
<polygon fill="#4ba8f1" stroke="#4ba8f1" points="467,-406.1 463.5,-396.1 460,-406.1 467,-406.1"/>
</g>
<!-- aws/poc/management/prod/organizations/units/workloads&#45;prod&#45;&gt;aws/poc/management/boot/organizations/units/workloads -->
<g id="edge11" class="edge">
<title>aws/poc/management/prod/organizations/units/workloads&#45;prod&#45;&gt;aws/poc/management/boot/organizations/units/workloads</title>
<path fill="none" stroke="#4ba8f1" d="M599.5,-215.7C599.5,-207.98 599.5,-198.71 599.5,-190.11"/>
<polygon fill="#4ba8f1" stroke="#4ba8f1" points="603,-190.1 599.5,-180.1 596,-190.1 603,-190.1"/>
</g>
<!-- aws/poc/workloads/dev/workload&#45;example&#45;dev/website -->
<g id="node11" class="node">
<title>aws/poc/workloads/dev/workload&#45;example&#45;dev/website</title>
<polygon fill="#4447cc" stroke="#5754dd" points="329,-396 4,-396 0,-392 0,-360 325,-360 329,-364 329,-396"/>
<polyline fill="none" stroke="#5754dd" points="325,-392 0,-392 "/>
<polyline fill="none" stroke="#5754dd" points="325,-392 325,-360 "/>
<polyline fill="none" stroke="#5754dd" points="325,-392 329,-396 "/>
<text text-anchor="middle" x="164.5" y="-374.3" font-family="Times,serif" font-size="14.00" fill="#c9d1d8">aws/poc/workloads/dev/workload&#45;example&#45;dev/website</text>
</g>
<!-- aws/poc/workloads/dev/workload&#45;example&#45;dev/website&#45;&gt;aws/poc/management/dev/organizations/accounts/workload&#45;example&#45;dev -->
<g id="edge12" class="edge">
<title>aws/poc/workloads/dev/workload&#45;example&#45;dev/website&#45;&gt;aws/poc/management/dev/organizations/accounts/workload&#45;example&#45;dev</title>
<path fill="none" stroke="#4ba8f1" d="M177.35,-359.7C183.53,-351.39 191.04,-341.28 197.82,-332.14"/>
<polygon fill="#4ba8f1" stroke="#4ba8f1" points="200.64,-334.22 203.79,-324.1 195.02,-330.04 200.64,-334.22"/>
</g>
<!-- aws/poc/workloads/prod/workload&#45;example&#45;prod/eu&#45;central&#45;1/website -->
<g id="node12" class="node">
<title>aws/poc/workloads/prod/workload&#45;example&#45;prod/eu&#45;central&#45;1/website</title>
<polygon fill="#4447cc" stroke="#5754dd" points="1009,-396 602,-396 598,-392 598,-360 1005,-360 1009,-364 1009,-396"/>
<polyline fill="none" stroke="#5754dd" points="1005,-392 598,-392 "/>
<polyline fill="none" stroke="#5754dd" points="1005,-392 1005,-360 "/>
<polyline fill="none" stroke="#5754dd" points="1005,-392 1009,-396 "/>
<text text-anchor="middle" x="803.5" y="-374.3" font-family="Times,serif" font-size="14.00" fill="#c9d1d8">aws/poc/workloads/prod/workload&#45;example&#45;prod/eu&#45;central&#45;1/website</text>
</g>
<!-- aws/poc/workloads/prod/workload&#45;example&#45;prod/eu&#45;central&#45;1/website&#45;&gt;aws/poc/management/prod/organizations/accounts/workload&#45;example&#45;prod -->
<g id="edge13" class="edge">
<title>aws/poc/workloads/prod/workload&#45;example&#45;prod/eu&#45;central&#45;1/website&#45;&gt;aws/poc/management/prod/organizations/accounts/workload&#45;example&#45;prod</title>
<path fill="none" stroke="#4ba8f1" d="M797.57,-359.7C794.89,-351.9 791.67,-342.51 788.7,-333.83"/>
<polygon fill="#4ba8f1" stroke="#4ba8f1" points="791.92,-332.43 785.36,-324.1 785.3,-334.7 791.92,-332.43"/>
</g>
<!-- aws/poc/workloads/prod/workload&#45;example&#45;prod/eu&#45;west&#45;3/website -->
<g id="node13" class="node">
<title>aws/poc/workloads/prod/workload&#45;example&#45;prod/eu&#45;west&#45;3/website</title>
<polygon fill="#4447cc" stroke="#5754dd" points="1426,-396 1031,-396 1027,-392 1027,-360 1422,-360 1426,-364 1426,-396"/>
<polyline fill="none" stroke="#5754dd" points="1422,-392 1027,-392 "/>
<polyline fill="none" stroke="#5754dd" points="1422,-392 1422,-360 "/>
<polyline fill="none" stroke="#5754dd" points="1422,-392 1426,-396 "/>
<text text-anchor="middle" x="1226.5" y="-374.3" font-family="Times,serif" font-size="14.00" fill="#c9d1d8">aws/poc/workloads/prod/workload&#45;example&#45;prod/eu&#45;west&#45;3/website</text>
</g>
<!-- aws/poc/workloads/prod/workload&#45;example&#45;prod/eu&#45;west&#45;3/website&#45;&gt;aws/poc/management/prod/organizations/accounts/workload&#45;example&#45;prod -->
<g id="edge14" class="edge">
<title>aws/poc/workloads/prod/workload&#45;example&#45;prod/eu&#45;west&#45;3/website&#45;&gt;aws/poc/management/prod/organizations/accounts/workload&#45;example&#45;prod</title>
<path fill="none" stroke="#4ba8f1" d="M1117.72,-359.97C1051.34,-349.57 966.44,-336.27 898.3,-325.6"/>
<polygon fill="#4ba8f1" stroke="#4ba8f1" points="898.8,-322.14 888.38,-324.05 897.71,-329.06 898.8,-322.14"/>
</g>
<!-- examples/hello&#45;world -->
<g id="node14" class="node">
<title>examples/hello&#45;world</title>
<polygon fill="#4447cc" stroke="#5754dd" points="1031,-108 896,-108 892,-104 892,-72 1027,-72 1031,-76 1031,-108"/>
<polyline fill="none" stroke="#5754dd" points="1027,-104 892,-104 "/>
<polyline fill="none" stroke="#5754dd" points="1027,-104 1027,-72 "/>
<polyline fill="none" stroke="#5754dd" points="1027,-104 1031,-108 "/>
<text text-anchor="middle" x="961.5" y="-86.3" font-family="Times,serif" font-size="14.00" fill="#c9d1d8">examples/hello&#45;world</text>
</g>
<!-- examples/hello&#45;world&#45;&gt;terragrunt.hcl -->
<g id="edge15" class="edge">
<title>examples/hello&#45;world&#45;&gt;terragrunt.hcl</title>
<path fill="none" stroke="#4ba8f1" d="M949.39,-71.7C943.63,-63.47 936.64,-53.48 930.29,-44.42"/>
<polygon fill="#4ba8f1" stroke="#4ba8f1" points="933.08,-42.29 924.47,-36.1 927.34,-46.3 933.08,-42.29"/>
</g>
<!-- examples/remote&#45;state/apples -->
<g id="node15" class="node">
<title>examples/remote&#45;state/apples</title>
<polygon fill="#4447cc" stroke="#5754dd" points="1150.5,-180 972.5,-180 968.5,-176 968.5,-144 1146.5,-144 1150.5,-148 1150.5,-180"/>
<polyline fill="none" stroke="#5754dd" points="1146.5,-176 968.5,-176 "/>
<polyline fill="none" stroke="#5754dd" points="1146.5,-176 1146.5,-144 "/>
<polyline fill="none" stroke="#5754dd" points="1146.5,-176 1150.5,-180 "/>
<text text-anchor="middle" x="1059.5" y="-158.3" font-family="Times,serif" font-size="14.00" fill="#c9d1d8">examples/remote&#45;state/apples</text>
</g>
<!-- examples/remote&#45;state/states -->
<g id="node16" class="node">
<title>examples/remote&#45;state/states</title>
<polygon fill="#4447cc" stroke="#5754dd" points="1226,-108 1053,-108 1049,-104 1049,-72 1222,-72 1226,-76 1226,-108"/>
<polyline fill="none" stroke="#5754dd" points="1222,-104 1049,-104 "/>
<polyline fill="none" stroke="#5754dd" points="1222,-104 1222,-72 "/>
<polyline fill="none" stroke="#5754dd" points="1222,-104 1226,-108 "/>
<text text-anchor="middle" x="1137.5" y="-86.3" font-family="Times,serif" font-size="14.00" fill="#c9d1d8">examples/remote&#45;state/states</text>
</g>
<!-- examples/remote&#45;state/apples&#45;&gt;examples/remote&#45;state/states -->
<g id="edge16" class="edge">
<title>examples/remote&#45;state/apples&#45;&gt;examples/remote&#45;state/states</title>
<path fill="none" stroke="#4ba8f1" d="M1078.78,-143.7C1088.42,-135.05 1100.23,-124.45 1110.73,-115.03"/>
<polygon fill="#4ba8f1" stroke="#4ba8f1" points="1113.34,-117.39 1118.44,-108.1 1108.66,-112.18 1113.34,-117.39"/>
</g>
<!-- examples/remote&#45;state/states&#45;&gt;terragrunt.hcl -->
<g id="edge18" class="edge">
<title>examples/remote&#45;state/states&#45;&gt;terragrunt.hcl</title>
<path fill="none" stroke="#4ba8f1" d="M1082.75,-71.97C1048.03,-61.16 1003.24,-47.23 968.32,-36.37"/>
<polygon fill="#4ba8f1" stroke="#4ba8f1" points="969.34,-33.02 958.75,-33.39 967.26,-39.7 969.34,-33.02"/>
</g>
<!-- examples/remote&#45;state/oranges -->
<g id="node17" class="node">
<title>examples/remote&#45;state/oranges</title>
<polygon fill="#4447cc" stroke="#5754dd" points="1358.5,-180 1172.5,-180 1168.5,-176 1168.5,-144 1354.5,-144 1358.5,-148 1358.5,-180"/>
<polyline fill="none" stroke="#5754dd" points="1354.5,-176 1168.5,-176 "/>
<polyline fill="none" stroke="#5754dd" points="1354.5,-176 1354.5,-144 "/>
<polyline fill="none" stroke="#5754dd" points="1354.5,-176 1358.5,-180 "/>
<text text-anchor="middle" x="1263.5" y="-158.3" font-family="Times,serif" font-size="14.00" fill="#c9d1d8">examples/remote&#45;state/oranges</text>
</g>
<!-- examples/remote&#45;state/oranges&#45;&gt;examples/remote&#45;state/states -->
<g id="edge17" class="edge">
<title>examples/remote&#45;state/oranges&#45;&gt;examples/remote&#45;state/states</title>
<path fill="none" stroke="#4ba8f1" d="M1232.68,-143.88C1216.05,-134.64 1195.34,-123.13 1177.48,-113.21"/>
<polygon fill="#4ba8f1" stroke="#4ba8f1" points="1178.88,-109.99 1168.44,-108.19 1175.48,-116.11 1178.88,-109.99"/>
</g>
</g>
</svg>
