<?xml version="1.0" encoding="UTF-8" standalone="no"?>
<!DOCTYPE svg PUBLIC "-//W3C//DTD SVG 1.1//EN"
 "http://www.w3.org/Graphics/SVG/1.1/DTD/svg11.dtd">
<!-- Generated by graphviz version 2.43.0 (0)
 -->
<!-- Title: %3 Pages: 1 -->
<svg width="1762pt" height="476pt"
 viewBox="0.00 0.00 1761.50 476.00" xmlns="http://www.w3.org/2000/svg" xmlns:xlink="http://www.w3.org/1999/xlink">
<g id="graph0" class="graph" transform="scale(1 1) rotate(0) translate(4 472)">
<title>%3</title>
<polygon fill="transparent" stroke="transparent" points="-4,4 -4,-472 1757.5,-472 1757.5,4 -4,4"/>
<!-- terragrunt.hcl -->
<g id="node1" class="node">
<title>terragrunt.hcl</title>
<polygon fill="#c0c0c0" stroke="#404040" points="1195.5,-36 1083.5,-36 1083.5,0 1201.5,0 1201.5,-30 1195.5,-36"/>
<polyline fill="none" stroke="#404040" points="1195.5,-36 1195.5,-30 "/>
<polyline fill="none" stroke="#404040" points="1201.5,-30 1195.5,-30 "/>
<text text-anchor="middle" x="1142.5" y="-14.3" font-family="Times,serif" font-size="14.00">terragrunt.hcl</text>
</g>
<!-- aws/poc/management/boot/organizations/roots/organization -->
<g id="node2" class="node">
<title>aws/poc/management/boot/organizations/roots/organization</title>
<polygon fill="#c0c0c0" stroke="#404040" points="1027,-108 588,-108 584,-104 584,-72 1023,-72 1027,-76 1027,-108"/>
<polyline fill="none" stroke="#404040" points="1023,-104 584,-104 "/>
<polyline fill="none" stroke="#404040" points="1023,-104 1023,-72 "/>
<polyline fill="none" stroke="#404040" points="1023,-104 1027,-108 "/>
<text text-anchor="middle" x="805.5" y="-86.3" font-family="Times,serif" font-size="14.00">aws/poc/management/boot/organizations/roots/organization</text>
</g>
<!-- aws/poc/management/boot/organizations/roots/organization&#45;&gt;terragrunt.hcl -->
<g id="edge1" class="edge">
<title>aws/poc/management/boot/organizations/roots/organization&#45;&gt;terragrunt.hcl</title>
<path fill="none" stroke="#808080" d="M887.51,-71.97C944.55,-60.12 1019.74,-44.5 1073.66,-33.3"/>
<polygon fill="#808080" stroke="#808080" points="1074.4,-36.72 1083.47,-31.26 1072.97,-29.87 1074.4,-36.72"/>
</g>
<!-- aws/poc/management/boot/organizations/units/workloads -->
<g id="node3" class="node">
<title>aws/poc/management/boot/organizations/units/workloads</title>
<polygon fill="#c0c0c0" stroke="#404040" points="956.5,-180 534.5,-180 530.5,-176 530.5,-144 952.5,-144 956.5,-148 956.5,-180"/>
<polyline fill="none" stroke="#404040" points="952.5,-176 530.5,-176 "/>
<polyline fill="none" stroke="#404040" points="952.5,-176 952.5,-144 "/>
<polyline fill="none" stroke="#404040" points="952.5,-176 956.5,-180 "/>
<text text-anchor="middle" x="743.5" y="-158.3" font-family="Times,serif" font-size="14.00">aws/poc/management/boot/organizations/units/workloads</text>
</g>
<!-- aws/poc/management/boot/organizations/units/workloads&#45;&gt;aws/poc/management/boot/organizations/roots/organization -->
<g id="edge2" class="edge">
<title>aws/poc/management/boot/organizations/units/workloads&#45;&gt;aws/poc/management/boot/organizations/roots/organization</title>
<path fill="none" stroke="#808080" d="M758.83,-143.7C766.26,-135.3 775.32,-125.07 783.48,-115.86"/>
<polygon fill="#808080" stroke="#808080" points="786.34,-117.91 790.35,-108.1 781.1,-113.27 786.34,-117.91"/>
</g>
<!-- aws/poc/management/boot/state -->
<g id="node4" class="node">
<title>aws/poc/management/boot/state</title>
<polygon fill="#c0c0c0" stroke="#404040" points="1242.5,-252 998.5,-252 994.5,-248 994.5,-216 1238.5,-216 1242.5,-220 1242.5,-252"/>
<polyline fill="none" stroke="#404040" points="1238.5,-248 994.5,-248 "/>
<polyline fill="none" stroke="#404040" points="1238.5,-248 1238.5,-216 "/>
<polyline fill="none" stroke="#404040" points="1238.5,-248 1242.5,-252 "/>
<text text-anchor="middle" x="1118.5" y="-230.3" font-family="Times,serif" font-size="14.00">aws/poc/management/boot/state</text>
</g>
<!-- aws/poc/management/boot/state&#45;&gt;terragrunt.hcl -->
<g id="edge3" class="edge">
<title>aws/poc/management/boot/state&#45;&gt;terragrunt.hcl</title>
<path fill="none" stroke="#808080" d="M1112.89,-215.6C1104.11,-185.55 1089.68,-122.29 1105.5,-72 1108.6,-62.15 1114.25,-52.53 1120.22,-44.25"/>
<polygon fill="#808080" stroke="#808080" points="1123.13,-46.21 1126.46,-36.15 1117.59,-41.94 1123.13,-46.21"/>
</g>
<!-- aws/poc/management/dev/organizations/accounts/workload&#45;example&#45;dev -->
<g id="node5" class="node">
<title>aws/poc/management/dev/organizations/accounts/workload&#45;example&#45;dev</title>
<polygon fill="#c0c0c0" stroke="#404040" points="534.5,-324 4.5,-324 0.5,-320 0.5,-288 530.5,-288 534.5,-292 534.5,-324"/>
<polyline fill="none" stroke="#404040" points="530.5,-320 0.5,-320 "/>
<polyline fill="none" stroke="#404040" points="530.5,-320 530.5,-288 "/>
<polyline fill="none" stroke="#404040" points="530.5,-320 534.5,-324 "/>
<text text-anchor="middle" x="267.5" y="-302.3" font-family="Times,serif" font-size="14.00">aws/poc/management/dev/organizations/accounts/workload&#45;example&#45;dev</text>
</g>
<!-- aws/poc/management/dev/organizations/units/workloads&#45;dev -->
<g id="node6" class="node">
<title>aws/poc/management/dev/organizations/units/workloads&#45;dev</title>
<polygon fill="#c0c0c0" stroke="#404040" points="492.5,-252 46.5,-252 42.5,-248 42.5,-216 488.5,-216 492.5,-220 492.5,-252"/>
<polyline fill="none" stroke="#404040" points="488.5,-248 42.5,-248 "/>
<polyline fill="none" stroke="#404040" points="488.5,-248 488.5,-216 "/>
<polyline fill="none" stroke="#404040" points="488.5,-248 492.5,-252 "/>
<text text-anchor="middle" x="267.5" y="-230.3" font-family="Times,serif" font-size="14.00">aws/poc/management/dev/organizations/units/workloads&#45;dev</text>
</g>
<!-- aws/poc/management/dev/organizations/accounts/workload&#45;example&#45;dev&#45;&gt;aws/poc/management/dev/organizations/units/workloads&#45;dev -->
<g id="edge4" class="edge">
<title>aws/poc/management/dev/organizations/accounts/workload&#45;example&#45;dev&#45;&gt;aws/poc/management/dev/organizations/units/workloads&#45;dev</title>
<path fill="none" stroke="#808080" d="M267.5,-287.7C267.5,-279.98 267.5,-270.71 267.5,-262.11"/>
<polygon fill="#808080" stroke="#808080" points="271,-262.1 267.5,-252.1 264,-262.1 271,-262.1"/>
</g>
<!-- aws/poc/management/dev/organizations/units/workloads&#45;dev&#45;&gt;aws/poc/management/boot/organizations/units/workloads -->
<g id="edge5" class="edge">
<title>aws/poc/management/dev/organizations/units/workloads&#45;dev&#45;&gt;aws/poc/management/boot/organizations/units/workloads</title>
<path fill="none" stroke="#808080" d="M383.33,-215.97C454.17,-205.55 544.81,-192.22 617.43,-181.54"/>
<polygon fill="#808080" stroke="#808080" points="618.18,-184.97 627.56,-180.05 617.16,-178.04 618.18,-184.97"/>
</g>
<!-- aws/poc/management/prod/iam/access -->
<g id="node7" class="node">
<title>aws/poc/management/prod/iam/access</title>
<polygon fill="#c0c0c0" stroke="#404040" points="713.5,-396 427.5,-396 423.5,-392 423.5,-360 709.5,-360 713.5,-364 713.5,-396"/>
<polyline fill="none" stroke="#404040" points="709.5,-392 423.5,-392 "/>
<polyline fill="none" stroke="#404040" points="709.5,-392 709.5,-360 "/>
<polyline fill="none" stroke="#404040" points="709.5,-392 713.5,-396 "/>
<text text-anchor="middle" x="568.5" y="-374.3" font-family="Times,serif" font-size="14.00">aws/poc/management/prod/iam/access</text>
</g>
<!-- aws/poc/management/prod/iam/access&#45;&gt;aws/poc/management/boot/state -->
<g id="edge6" class="edge">
<title>aws/poc/management/prod/iam/access&#45;&gt;aws/poc/management/boot/state</title>
<path fill="none" stroke="#808080" d="M582.82,-359.82C601.35,-338.91 635.79,-304.35 673.5,-288 798.17,-233.94 844.2,-267.11 984.15,-251.97"/>
<polygon fill="#808080" stroke="#808080" points="984.86,-255.41 994.4,-250.79 984.06,-248.46 984.86,-255.41"/>
</g>
<!-- aws/poc/management/prod/iam/access&#45;&gt;aws/poc/management/dev/organizations/accounts/workload&#45;example&#45;dev -->
<g id="edge7" class="edge">
<title>aws/poc/management/prod/iam/access&#45;&gt;aws/poc/management/dev/organizations/accounts/workload&#45;example&#45;dev</title>
<path fill="none" stroke="#808080" d="M495.25,-359.97C451.56,-349.8 395.95,-336.87 350.62,-326.33"/>
<polygon fill="#808080" stroke="#808080" points="351.35,-322.91 340.82,-324.05 349.76,-329.72 351.35,-322.91"/>
</g>
<!-- aws/poc/management/prod/organizations/accounts/workload&#45;example&#45;prod -->
<g id="node8" class="node">
<title>aws/poc/management/prod/organizations/accounts/workload&#45;example&#45;prod</title>
<polygon fill="#c0c0c0" stroke="#404040" points="1232,-324 687,-324 683,-320 683,-288 1228,-288 1232,-292 1232,-324"/>
<polyline fill="none" stroke="#404040" points="1228,-320 683,-320 "/>
<polyline fill="none" stroke="#404040" points="1228,-320 1228,-288 "/>
<polyline fill="none" stroke="#404040" points="1228,-320 1232,-324 "/>
<text text-anchor="middle" x="957.5" y="-302.3" font-family="Times,serif" font-size="14.00">aws/poc/management/prod/organizations/accounts/workload&#45;example&#45;prod</text>
</g>
<!-- aws/poc/management/prod/iam/access&#45;&gt;aws/poc/management/prod/organizations/accounts/workload&#45;example&#45;prod -->
<g id="edge8" class="edge">
<title>aws/poc/management/prod/iam/access&#45;&gt;aws/poc/management/prod/organizations/accounts/workload&#45;example&#45;prod</title>
<path fill="none" stroke="#808080" d="M663.16,-359.97C720.46,-349.66 793.61,-336.49 852.65,-325.87"/>
<polygon fill="#808080" stroke="#808080" points="853.53,-329.27 862.75,-324.05 852.29,-322.38 853.53,-329.27"/>
</g>
<!-- aws/poc/management/prod/organizations/units/workloads&#45;prod -->
<g id="node10" class="node">
<title>aws/poc/management/prod/organizations/units/workloads&#45;prod</title>
<polygon fill="#c0c0c0" stroke="#404040" points="976,-252 515,-252 511,-248 511,-216 972,-216 976,-220 976,-252"/>
<polyline fill="none" stroke="#404040" points="972,-248 511,-248 "/>
<polyline fill="none" stroke="#404040" points="972,-248 972,-216 "/>
<polyline fill="none" stroke="#404040" points="972,-248 976,-252 "/>
<text text-anchor="middle" x="743.5" y="-230.3" font-family="Times,serif" font-size="14.00">aws/poc/management/prod/organizations/units/workloads&#45;prod</text>
</g>
<!-- aws/poc/management/prod/organizations/accounts/workload&#45;example&#45;prod&#45;&gt;aws/poc/management/prod/organizations/units/workloads&#45;prod -->
<g id="edge10" class="edge">
<title>aws/poc/management/prod/organizations/accounts/workload&#45;example&#45;prod&#45;&gt;aws/poc/management/prod/organizations/units/workloads&#45;prod</title>
<path fill="none" stroke="#808080" d="M905.42,-287.97C875.26,-278.1 837.11,-265.62 805.42,-255.25"/>
<polygon fill="#808080" stroke="#808080" points="806.4,-251.89 795.81,-252.11 804.23,-258.55 806.4,-251.89"/>
</g>
<!-- aws/poc/management/prod/iam/identity -->
<g id="node9" class="node">
<title>aws/poc/management/prod/iam/identity</title>
<polygon fill="#c0c0c0" stroke="#404040" points="718,-468 423,-468 419,-464 419,-432 714,-432 718,-436 718,-468"/>
<polyline fill="none" stroke="#404040" points="714,-464 419,-464 "/>
<polyline fill="none" stroke="#404040" points="714,-464 714,-432 "/>
<polyline fill="none" stroke="#404040" points="714,-464 718,-468 "/>
<text text-anchor="middle" x="568.5" y="-446.3" font-family="Times,serif" font-size="14.00">aws/poc/management/prod/iam/identity</text>
</g>
<!-- aws/poc/management/prod/iam/identity&#45;&gt;aws/poc/management/prod/iam/access -->
<g id="edge9" class="edge">
<title>aws/poc/management/prod/iam/identity&#45;&gt;aws/poc/management/prod/iam/access</title>
<path fill="none" stroke="#808080" d="M568.5,-431.7C568.5,-423.98 568.5,-414.71 568.5,-406.11"/>
<polygon fill="#808080" stroke="#808080" points="572,-406.1 568.5,-396.1 565,-406.1 572,-406.1"/>
</g>
<!-- aws/poc/management/prod/organizations/units/workloads&#45;prod&#45;&gt;aws/poc/management/boot/organizations/units/workloads -->
<g id="edge11" class="edge">
<title>aws/poc/management/prod/organizations/units/workloads&#45;prod&#45;&gt;aws/poc/management/boot/organizations/units/workloads</title>
<path fill="none" stroke="#808080" d="M743.5,-215.7C743.5,-207.98 743.5,-198.71 743.5,-190.11"/>
<polygon fill="#808080" stroke="#808080" points="747,-190.1 743.5,-180.1 740,-190.1 747,-190.1"/>
</g>
<!-- aws/poc/workloads/dev/workload&#45;example&#45;dev/website -->
<g id="node11" class="node">
<title>aws/poc/workloads/dev/workload&#45;example&#45;dev/website</title>
<polygon fill="#c0c0c0" stroke="#404040" points="405,-396 4,-396 0,-392 0,-360 401,-360 405,-364 405,-396"/>
<polyline fill="none" stroke="#404040" points="401,-392 0,-392 "/>
<polyline fill="none" stroke="#404040" points="401,-392 401,-360 "/>
<polyline fill="none" stroke="#404040" points="401,-392 405,-396 "/>
<text text-anchor="middle" x="202.5" y="-374.3" font-family="Times,serif" font-size="14.00">aws/poc/workloads/dev/workload&#45;example&#45;dev/website</text>
</g>
<!-- aws/poc/workloads/dev/workload&#45;example&#45;dev/website&#45;&gt;aws/poc/management/dev/organizations/accounts/workload&#45;example&#45;dev -->
<g id="edge12" class="edge">
<title>aws/poc/workloads/dev/workload&#45;example&#45;dev/website&#45;&gt;aws/poc/management/dev/organizations/accounts/workload&#45;example&#45;dev</title>
<path fill="none" stroke="#808080" d="M218.57,-359.7C226.44,-351.22 236.06,-340.86 244.67,-331.58"/>
<polygon fill="#808080" stroke="#808080" points="247.38,-333.81 251.62,-324.1 242.25,-329.05 247.38,-333.81"/>
</g>
<!-- aws/poc/workloads/prod/workload&#45;example&#45;prod/eu&#45;central&#45;1/website -->
<g id="node12" class="node">
<title>aws/poc/workloads/prod/workload&#45;example&#45;prod/eu&#45;central&#45;1/website</title>
<polygon fill="#c0c0c0" stroke="#404040" points="1241.5,-396 735.5,-396 731.5,-392 731.5,-360 1237.5,-360 1241.5,-364 1241.5,-396"/>
<polyline fill="none" stroke="#404040" points="1237.5,-392 731.5,-392 "/>
<polyline fill="none" stroke="#404040" points="1237.5,-392 1237.5,-360 "/>
<polyline fill="none" stroke="#404040" points="1237.5,-392 1241.5,-396 "/>
<text text-anchor="middle" x="986.5" y="-374.3" font-family="Times,serif" font-size="14.00">aws/poc/workloads/prod/workload&#45;example&#45;prod/eu&#45;central&#45;1/website</text>
</g>
<!-- aws/poc/workloads/prod/workload&#45;example&#45;prod/eu&#45;central&#45;1/website&#45;&gt;aws/poc/management/prod/organizations/accounts/workload&#45;example&#45;prod -->
<g id="edge13" class="edge">
<title>aws/poc/workloads/prod/workload&#45;example&#45;prod/eu&#45;central&#45;1/website&#45;&gt;aws/poc/management/prod/organizations/accounts/workload&#45;example&#45;prod</title>
<path fill="none" stroke="#808080" d="M979.33,-359.7C976.07,-351.81 972.13,-342.3 968.5,-333.55"/>
<polygon fill="#808080" stroke="#808080" points="971.65,-332 964.59,-324.1 965.18,-334.68 971.65,-332"/>
</g>
<!-- aws/poc/workloads/prod/workload&#45;example&#45;prod/eu&#45;west&#45;3/website -->
<g id="node13" class="node">
<title>aws/poc/workloads/prod/workload&#45;example&#45;prod/eu&#45;west&#45;3/website</title>
<polygon fill="#c0c0c0" stroke="#404040" points="1753.5,-396 1263.5,-396 1259.5,-392 1259.5,-360 1749.5,-360 1753.5,-364 1753.5,-396"/>
<polyline fill="none" stroke="#404040" points="1749.5,-392 1259.5,-392 "/>
<polyline fill="none" stroke="#404040" points="1749.5,-392 1749.5,-360 "/>
<polyline fill="none" stroke="#404040" points="1749.5,-392 1753.5,-396 "/>
<text text-anchor="middle" x="1506.5" y="-374.3" font-family="Times,serif" font-size="14.00">aws/poc/workloads/prod/workload&#45;example&#45;prod/eu&#45;west&#45;3/website</text>
</g>
<!-- aws/poc/workloads/prod/workload&#45;example&#45;prod/eu&#45;west&#45;3/website&#45;&gt;aws/poc/management/prod/organizations/accounts/workload&#45;example&#45;prod -->
<g id="edge14" class="edge">
<title>aws/poc/workloads/prod/workload&#45;example&#45;prod/eu&#45;west&#45;3/website&#45;&gt;aws/poc/management/prod/organizations/accounts/workload&#45;example&#45;prod</title>
<path fill="none" stroke="#808080" d="M1372.9,-359.97C1290.71,-349.49 1185.38,-336.06 1101.36,-325.34"/>
<polygon fill="#808080" stroke="#808080" points="1101.58,-321.84 1091.22,-324.05 1100.7,-328.79 1101.58,-321.84"/>
</g>
<!-- examples/hello&#45;world -->
<g id="node14" class="node">
<title>examples/hello&#45;world</title>
<polygon fill="#c0c0c0" stroke="#404040" points="1282.5,-108 1118.5,-108 1114.5,-104 1114.5,-72 1278.5,-72 1282.5,-76 1282.5,-108"/>
<polyline fill="none" stroke="#404040" points="1278.5,-104 1114.5,-104 "/>
<polyline fill="none" stroke="#404040" points="1278.5,-104 1278.5,-72 "/>
<polyline fill="none" stroke="#404040" points="1278.5,-104 1282.5,-108 "/>
<text text-anchor="middle" x="1198.5" y="-86.3" font-family="Times,serif" font-size="14.00">examples/hello&#45;world</text>
</g>
<!-- examples/hello&#45;world&#45;&gt;terragrunt.hcl -->
<g id="edge15" class="edge">
<title>examples/hello&#45;world&#45;&gt;terragrunt.hcl</title>
<path fill="none" stroke="#808080" d="M1184.66,-71.7C1178.01,-63.39 1169.92,-53.28 1162.61,-44.14"/>
<polygon fill="#808080" stroke="#808080" points="1165.16,-41.73 1156.18,-36.1 1159.7,-46.1 1165.16,-41.73"/>
</g>
<!-- examples/remote&#45;state/apples -->
<g id="node15" class="node">
<title>examples/remote&#45;state/apples</title>
<polygon fill="#c0c0c0" stroke="#404040" points="1438,-180 1211,-180 1207,-176 1207,-144 1434,-144 1438,-148 1438,-180"/>
<polyline fill="none" stroke="#404040" points="1434,-176 1207,-176 "/>
<polyline fill="none" stroke="#404040" points="1434,-176 1434,-144 "/>
<polyline fill="none" stroke="#404040" points="1434,-176 1438,-180 "/>
<text text-anchor="middle" x="1322.5" y="-158.3" font-family="Times,serif" font-size="14.00">examples/remote&#45;state/apples</text>
</g>
<!-- examples/remote&#45;state/states -->
<g id="node16" class="node">
<title>examples/remote&#45;state/states</title>
<polygon fill="#c0c0c0" stroke="#404040" points="1528.5,-108 1304.5,-108 1300.5,-104 1300.5,-72 1524.5,-72 1528.5,-76 1528.5,-108"/>
<polyline fill="none" stroke="#404040" points="1524.5,-104 1300.5,-104 "/>
<polyline fill="none" stroke="#404040" points="1524.5,-104 1524.5,-72 "/>
<polyline fill="none" stroke="#404040" points="1524.5,-104 1528.5,-108 "/>
<text text-anchor="middle" x="1414.5" y="-86.3" font-family="Times,serif" font-size="14.00">examples/remote&#45;state/states</text>
</g>
<!-- examples/remote&#45;state/apples&#45;&gt;examples/remote&#45;state/states -->
<g id="edge16" class="edge">
<title>examples/remote&#45;state/apples&#45;&gt;examples/remote&#45;state/states</title>
<path fill="none" stroke="#808080" d="M1345.24,-143.7C1356.94,-134.8 1371.36,-123.82 1384.01,-114.2"/>
<polygon fill="#808080" stroke="#808080" points="1386.18,-116.94 1392.02,-108.1 1381.94,-111.37 1386.18,-116.94"/>
</g>
<!-- examples/remote&#45;state/states&#45;&gt;terragrunt.hcl -->
<g id="edge18" class="edge">
<title>examples/remote&#45;state/states&#45;&gt;terragrunt.hcl</title>
<path fill="none" stroke="#808080" d="M1348.31,-71.97C1306.82,-61.29 1253.44,-47.55 1211.44,-36.74"/>
<polygon fill="#808080" stroke="#808080" points="1212.12,-33.3 1201.57,-34.2 1210.38,-40.08 1212.12,-33.3"/>
</g>
<!-- examples/remote&#45;state/oranges -->
<g id="node17" class="node">
<title>examples/remote&#45;state/oranges</title>
<polygon fill="#c0c0c0" stroke="#404040" points="1698.5,-180 1460.5,-180 1456.5,-176 1456.5,-144 1694.5,-144 1698.5,-148 1698.5,-180"/>
<polyline fill="none" stroke="#404040" points="1694.5,-176 1456.5,-176 "/>
<polyline fill="none" stroke="#404040" points="1694.5,-176 1694.5,-144 "/>
<polyline fill="none" stroke="#404040" points="1694.5,-176 1698.5,-180 "/>
<text text-anchor="middle" x="1577.5" y="-158.3" font-family="Times,serif" font-size="14.00">examples/remote&#45;state/oranges</text>
</g>
<!-- examples/remote&#45;state/oranges&#45;&gt;examples/remote&#45;state/states -->
<g id="edge17" class="edge">
<title>examples/remote&#45;state/oranges&#45;&gt;examples/remote&#45;state/states</title>
<path fill="none" stroke="#808080" d="M1537.63,-143.88C1515.34,-134.31 1487.38,-122.3 1463.74,-112.15"/>
<polygon fill="#808080" stroke="#808080" points="1464.81,-108.8 1454.24,-108.07 1462.05,-115.23 1464.81,-108.8"/>
</g>
</g>
</svg>
