<?xml version="1.0" encoding="UTF-8" standalone="no"?>
<!DOCTYPE svg PUBLIC "-//W3C//DTD SVG 1.1//EN"
 "http://www.w3.org/Graphics/SVG/1.1/DTD/svg11.dtd">
<!-- Generated by graphviz version 2.43.0 (0)
 -->
<!-- Title: %3 Pages: 1 -->
<svg width="2782pt" height="476pt"
 viewBox="0.00 0.00 2781.50 476.00" xmlns="http://www.w3.org/2000/svg" xmlns:xlink="http://www.w3.org/1999/xlink">
<g id="graph0" class="graph" transform="scale(1 1) rotate(0) translate(4 472)">
<title>%3</title>
<polygon fill="transparent" stroke="transparent" points="-4,4 -4,-472 2777.5,-472 2777.5,4 -4,4"/>
<!-- terragrunt.hcl -->
<g id="node1" class="node">
<title>terragrunt.hcl</title>
<polygon fill="#4179ea" stroke="#5754dd" points="2100,-36 1988,-36 1988,0 2106,0 2106,-30 2100,-36"/>
<polyline fill="none" stroke="#5754dd" points="2100,-36 2100,-30 "/>
<polyline fill="none" stroke="#5754dd" points="2106,-30 2100,-30 "/>
<text text-anchor="middle" x="2047" y="-14.3" font-family="Times,serif" font-size="14.00" fill="#c9d1d8">terragrunt.hcl</text>
</g>
<!-- aws/poc/management/boot/organizations/root -->
<g id="node2" class="node">
<title>aws/poc/management/boot/organizations/root</title>
<polygon fill="#4447cc" stroke="#5754dd" points="1842,-108 1504,-108 1500,-104 1500,-72 1838,-72 1842,-76 1842,-108"/>
<polyline fill="none" stroke="#5754dd" points="1838,-104 1500,-104 "/>
<polyline fill="none" stroke="#5754dd" points="1838,-104 1838,-72 "/>
<polyline fill="none" stroke="#5754dd" points="1838,-104 1842,-108 "/>
<text text-anchor="middle" x="1671" y="-86.3" font-family="Times,serif" font-size="14.00" fill="#c9d1d8">aws/poc/management/boot/organizations/root</text>
</g>
<!-- aws/poc/management/boot/organizations/root&#45;&gt;terragrunt.hcl -->
<g id="edge1" class="edge">
<title>aws/poc/management/boot/organizations/root&#45;&gt;terragrunt.hcl</title>
<path fill="none" stroke="#4ba8f1" d="M1762.5,-71.97C1828.91,-59.6 1917.35,-43.14 1977.9,-31.86"/>
<polygon fill="#4ba8f1" stroke="#4ba8f1" points="1978.55,-35.3 1987.74,-30.03 1977.27,-28.42 1978.55,-35.3"/>
</g>
<!-- aws/poc/management/boot/organizations/units/workloads -->
<g id="node3" class="node">
<title>aws/poc/management/boot/organizations/units/workloads</title>
<polygon fill="#4447cc" stroke="#5754dd" points="1762,-180 1340,-180 1336,-176 1336,-144 1758,-144 1762,-148 1762,-180"/>
<polyline fill="none" stroke="#5754dd" points="1758,-176 1336,-176 "/>
<polyline fill="none" stroke="#5754dd" points="1758,-176 1758,-144 "/>
<polyline fill="none" stroke="#5754dd" points="1758,-176 1762,-180 "/>
<text text-anchor="middle" x="1549" y="-158.3" font-family="Times,serif" font-size="14.00" fill="#c9d1d8">aws/poc/management/boot/organizations/units/workloads</text>
</g>
<!-- aws/poc/management/boot/organizations/units/workloads&#45;&gt;aws/poc/management/boot/organizations/root -->
<g id="edge2" class="edge">
<title>aws/poc/management/boot/organizations/units/workloads&#45;&gt;aws/poc/management/boot/organizations/root</title>
<path fill="none" stroke="#4ba8f1" d="M1578.84,-143.88C1594.94,-134.64 1615,-123.13 1632.29,-113.21"/>
<polygon fill="#4ba8f1" stroke="#4ba8f1" points="1634.11,-116.2 1641.04,-108.19 1630.63,-110.13 1634.11,-116.2"/>
</g>
<!-- aws/poc/management/boot/terraform&#45;state -->
<g id="node4" class="node">
<title>aws/poc/management/boot/terraform&#45;state</title>
<polygon fill="#4447cc" stroke="#5754dd" points="2353,-252 2035,-252 2031,-248 2031,-216 2349,-216 2353,-220 2353,-252"/>
<polyline fill="none" stroke="#5754dd" points="2349,-248 2031,-248 "/>
<polyline fill="none" stroke="#5754dd" points="2349,-248 2349,-216 "/>
<polyline fill="none" stroke="#5754dd" points="2349,-248 2353,-252 "/>
<text text-anchor="middle" x="2192" y="-230.3" font-family="Times,serif" font-size="14.00" fill="#c9d1d8">aws/poc/management/boot/terraform&#45;state</text>
</g>
<!-- aws/poc/management/boot/terraform&#45;state&#45;&gt;terragrunt.hcl -->
<g id="edge3" class="edge">
<title>aws/poc/management/boot/terraform&#45;state&#45;&gt;terragrunt.hcl</title>
<path fill="none" stroke="#4ba8f1" d="M2144.13,-215.98C2099.75,-197.25 2036.67,-162.38 2010,-108 1999.68,-86.96 2011.73,-62.29 2024.76,-44.27"/>
<polygon fill="#4ba8f1" stroke="#4ba8f1" points="2027.8,-46.06 2031.14,-36.01 2022.26,-41.78 2027.8,-46.06"/>
</g>
<!-- aws/poc/management/dev/organizations/accounts/workload&#45;example&#45;dev -->
<g id="node5" class="node">
<title>aws/poc/management/dev/organizations/accounts/workload&#45;example&#45;dev</title>
<polygon fill="#4447cc" stroke="#5754dd" points="1602,-324 1072,-324 1068,-320 1068,-288 1598,-288 1602,-292 1602,-324"/>
<polyline fill="none" stroke="#5754dd" points="1598,-320 1068,-320 "/>
<polyline fill="none" stroke="#5754dd" points="1598,-320 1598,-288 "/>
<polyline fill="none" stroke="#5754dd" points="1598,-320 1602,-324 "/>
<text text-anchor="middle" x="1335" y="-302.3" font-family="Times,serif" font-size="14.00" fill="#c9d1d8">aws/poc/management/dev/organizations/accounts/workload&#45;example&#45;dev</text>
</g>
<!-- aws/poc/management/dev/organizations/units/workloads&#45;dev -->
<g id="node6" class="node">
<title>aws/poc/management/dev/organizations/units/workloads&#45;dev</title>
<polygon fill="#4447cc" stroke="#5754dd" points="1539,-252 1093,-252 1089,-248 1089,-216 1535,-216 1539,-220 1539,-252"/>
<polyline fill="none" stroke="#5754dd" points="1535,-248 1089,-248 "/>
<polyline fill="none" stroke="#5754dd" points="1535,-248 1535,-216 "/>
<polyline fill="none" stroke="#5754dd" points="1535,-248 1539,-252 "/>
<text text-anchor="middle" x="1314" y="-230.3" font-family="Times,serif" font-size="14.00" fill="#c9d1d8">aws/poc/management/dev/organizations/units/workloads&#45;dev</text>
</g>
<!-- aws/poc/management/dev/organizations/accounts/workload&#45;example&#45;dev&#45;&gt;aws/poc/management/dev/organizations/units/workloads&#45;dev -->
<g id="edge4" class="edge">
<title>aws/poc/management/dev/organizations/accounts/workload&#45;example&#45;dev&#45;&gt;aws/poc/management/dev/organizations/units/workloads&#45;dev</title>
<path fill="none" stroke="#4ba8f1" d="M1329.81,-287.7C1327.47,-279.9 1324.65,-270.51 1322.05,-261.83"/>
<polygon fill="#4ba8f1" stroke="#4ba8f1" points="1325.36,-260.68 1319.13,-252.1 1318.65,-262.69 1325.36,-260.68"/>
</g>
<!-- aws/poc/management/dev/organizations/units/workloads&#45;dev&#45;&gt;aws/poc/management/boot/organizations/units/workloads -->
<g id="edge5" class="edge">
<title>aws/poc/management/dev/organizations/units/workloads&#45;dev&#45;&gt;aws/poc/management/boot/organizations/units/workloads</title>
<path fill="none" stroke="#4ba8f1" d="M1371.19,-215.97C1404.59,-206.01 1446.92,-193.41 1481.9,-182.99"/>
<polygon fill="#4ba8f1" stroke="#4ba8f1" points="1482.97,-186.32 1491.56,-180.11 1480.97,-179.61 1482.97,-186.32"/>
</g>
<!-- aws/poc/management/prod/iam/access -->
<g id="node7" class="node">
<title>aws/poc/management/prod/iam/access</title>
<polygon fill="#4447cc" stroke="#5754dd" points="1754,-396 1468,-396 1464,-392 1464,-360 1750,-360 1754,-364 1754,-396"/>
<polyline fill="none" stroke="#5754dd" points="1750,-392 1464,-392 "/>
<polyline fill="none" stroke="#5754dd" points="1750,-392 1750,-360 "/>
<polyline fill="none" stroke="#5754dd" points="1750,-392 1754,-396 "/>
<text text-anchor="middle" x="1609" y="-374.3" font-family="Times,serif" font-size="14.00" fill="#c9d1d8">aws/poc/management/prod/iam/access</text>
</g>
<!-- aws/poc/management/prod/iam/access&#45;&gt;aws/poc/management/boot/terraform&#45;state -->
<g id="edge6" class="edge">
<title>aws/poc/management/prod/iam/access&#45;&gt;aws/poc/management/boot/terraform&#45;state</title>
<path fill="none" stroke="#4ba8f1" d="M1624.17,-359.8C1643.76,-338.87 1680.02,-304.29 1719,-288 1726.16,-285.01 1888.03,-267.25 2020.43,-253.1"/>
<polygon fill="#4ba8f1" stroke="#4ba8f1" points="2021.14,-256.55 2030.71,-252.01 2020.4,-249.59 2021.14,-256.55"/>
</g>
<!-- aws/poc/management/prod/iam/access&#45;&gt;aws/poc/management/dev/organizations/accounts/workload&#45;example&#45;dev -->
<g id="edge7" class="edge">
<title>aws/poc/management/prod/iam/access&#45;&gt;aws/poc/management/dev/organizations/accounts/workload&#45;example&#45;dev</title>
<path fill="none" stroke="#4ba8f1" d="M1542.32,-359.97C1502.87,-349.89 1452.75,-337.08 1411.67,-326.59"/>
<polygon fill="#4ba8f1" stroke="#4ba8f1" points="1412.53,-323.2 1401.98,-324.11 1410.8,-329.98 1412.53,-323.2"/>
</g>
<!-- aws/poc/management/test/organizations/accounts/workload&#45;example&#45;test -->
<g id="node8" class="node">
<title>aws/poc/management/test/organizations/accounts/workload&#45;example&#45;test</title>
<polygon fill="#4447cc" stroke="#5754dd" points="2267.5,-324 1732.5,-324 1728.5,-320 1728.5,-288 2263.5,-288 2267.5,-292 2267.5,-324"/>
<polyline fill="none" stroke="#5754dd" points="2263.5,-320 1728.5,-320 "/>
<polyline fill="none" stroke="#5754dd" points="2263.5,-320 2263.5,-288 "/>
<polyline fill="none" stroke="#5754dd" points="2263.5,-320 2267.5,-324 "/>
<text text-anchor="middle" x="1998" y="-302.3" font-family="Times,serif" font-size="14.00" fill="#c9d1d8">aws/poc/management/test/organizations/accounts/workload&#45;example&#45;test</text>
</g>
<!-- aws/poc/management/prod/iam/access&#45;&gt;aws/poc/management/test/organizations/accounts/workload&#45;example&#45;test -->
<g id="edge8" class="edge">
<title>aws/poc/management/prod/iam/access&#45;&gt;aws/poc/management/test/organizations/accounts/workload&#45;example&#45;test</title>
<path fill="none" stroke="#4ba8f1" d="M1703.66,-359.97C1760.96,-349.66 1834.11,-336.49 1893.15,-325.87"/>
<polygon fill="#4ba8f1" stroke="#4ba8f1" points="1894.03,-329.27 1903.25,-324.05 1892.79,-322.38 1894.03,-329.27"/>
</g>
<!-- aws/poc/management/prod/organizations/accounts/workload&#45;example&#45;prod -->
<g id="node9" class="node">
<title>aws/poc/management/prod/organizations/accounts/workload&#45;example&#45;prod</title>
<polygon fill="#4447cc" stroke="#5754dd" points="1049.5,-324 504.5,-324 500.5,-320 500.5,-288 1045.5,-288 1049.5,-292 1049.5,-324"/>
<polyline fill="none" stroke="#5754dd" points="1045.5,-320 500.5,-320 "/>
<polyline fill="none" stroke="#5754dd" points="1045.5,-320 1045.5,-288 "/>
<polyline fill="none" stroke="#5754dd" points="1045.5,-320 1049.5,-324 "/>
<text text-anchor="middle" x="775" y="-302.3" font-family="Times,serif" font-size="14.00" fill="#c9d1d8">aws/poc/management/prod/organizations/accounts/workload&#45;example&#45;prod</text>
</g>
<!-- aws/poc/management/prod/iam/access&#45;&gt;aws/poc/management/prod/organizations/accounts/workload&#45;example&#45;prod -->
<g id="edge9" class="edge">
<title>aws/poc/management/prod/iam/access&#45;&gt;aws/poc/management/prod/organizations/accounts/workload&#45;example&#45;prod</title>
<path fill="none" stroke="#4ba8f1" d="M1463.8,-360.94C1460.51,-360.62 1457.23,-360.3 1454,-360 1312.88,-346.76 1155.03,-334.29 1027.07,-324.79"/>
<polygon fill="#4ba8f1" stroke="#4ba8f1" points="1026.97,-321.27 1016.74,-324.02 1026.45,-328.25 1026.97,-321.27"/>
</g>
<!-- aws/poc/management/test/organizations/units/workloads&#45;test -->
<g id="node12" class="node">
<title>aws/poc/management/test/organizations/units/workloads&#45;test</title>
<polygon fill="#4447cc" stroke="#5754dd" points="2012.5,-252 1561.5,-252 1557.5,-248 1557.5,-216 2008.5,-216 2012.5,-220 2012.5,-252"/>
<polyline fill="none" stroke="#5754dd" points="2008.5,-248 1557.5,-248 "/>
<polyline fill="none" stroke="#5754dd" points="2008.5,-248 2008.5,-216 "/>
<polyline fill="none" stroke="#5754dd" points="2008.5,-248 2012.5,-252 "/>
<text text-anchor="middle" x="1785" y="-230.3" font-family="Times,serif" font-size="14.00" fill="#c9d1d8">aws/poc/management/test/organizations/units/workloads&#45;test</text>
</g>
<!-- aws/poc/management/test/organizations/accounts/workload&#45;example&#45;test&#45;&gt;aws/poc/management/test/organizations/units/workloads&#45;test -->
<g id="edge13" class="edge">
<title>aws/poc/management/test/organizations/accounts/workload&#45;example&#45;test&#45;&gt;aws/poc/management/test/organizations/units/workloads&#45;test</title>
<path fill="none" stroke="#4ba8f1" d="M1946.17,-287.97C1916.15,-278.1 1878.18,-265.62 1846.63,-255.25"/>
<polygon fill="#4ba8f1" stroke="#4ba8f1" points="1847.66,-251.91 1837.07,-252.11 1845.47,-258.56 1847.66,-251.91"/>
</g>
<!-- aws/poc/management/prod/organizations/units/workloads&#45;prod -->
<g id="node11" class="node">
<title>aws/poc/management/prod/organizations/units/workloads&#45;prod</title>
<polygon fill="#4447cc" stroke="#5754dd" points="1049.5,-252 588.5,-252 584.5,-248 584.5,-216 1045.5,-216 1049.5,-220 1049.5,-252"/>
<polyline fill="none" stroke="#5754dd" points="1045.5,-248 584.5,-248 "/>
<polyline fill="none" stroke="#5754dd" points="1045.5,-248 1045.5,-216 "/>
<polyline fill="none" stroke="#5754dd" points="1045.5,-248 1049.5,-252 "/>
<text text-anchor="middle" x="817" y="-230.3" font-family="Times,serif" font-size="14.00" fill="#c9d1d8">aws/poc/management/prod/organizations/units/workloads&#45;prod</text>
</g>
<!-- aws/poc/management/prod/organizations/accounts/workload&#45;example&#45;prod&#45;&gt;aws/poc/management/prod/organizations/units/workloads&#45;prod -->
<g id="edge11" class="edge">
<title>aws/poc/management/prod/organizations/accounts/workload&#45;example&#45;prod&#45;&gt;aws/poc/management/prod/organizations/units/workloads&#45;prod</title>
<path fill="none" stroke="#4ba8f1" d="M785.38,-287.7C790.26,-279.56 796.19,-269.69 801.58,-260.7"/>
<polygon fill="#4ba8f1" stroke="#4ba8f1" points="804.59,-262.48 806.74,-252.1 798.59,-258.88 804.59,-262.48"/>
</g>
<!-- aws/poc/management/prod/iam/identity -->
<g id="node10" class="node">
<title>aws/poc/management/prod/iam/identity</title>
<polygon fill="#4447cc" stroke="#5754dd" points="1758.5,-468 1463.5,-468 1459.5,-464 1459.5,-432 1754.5,-432 1758.5,-436 1758.5,-468"/>
<polyline fill="none" stroke="#5754dd" points="1754.5,-464 1459.5,-464 "/>
<polyline fill="none" stroke="#5754dd" points="1754.5,-464 1754.5,-432 "/>
<polyline fill="none" stroke="#5754dd" points="1754.5,-464 1758.5,-468 "/>
<text text-anchor="middle" x="1609" y="-446.3" font-family="Times,serif" font-size="14.00" fill="#c9d1d8">aws/poc/management/prod/iam/identity</text>
</g>
<!-- aws/poc/management/prod/iam/identity&#45;&gt;aws/poc/management/prod/iam/access -->
<g id="edge10" class="edge">
<title>aws/poc/management/prod/iam/identity&#45;&gt;aws/poc/management/prod/iam/access</title>
<path fill="none" stroke="#4ba8f1" d="M1609,-431.7C1609,-423.98 1609,-414.71 1609,-406.11"/>
<polygon fill="#4ba8f1" stroke="#4ba8f1" points="1612.5,-406.1 1609,-396.1 1605.5,-406.1 1612.5,-406.1"/>
</g>
<!-- aws/poc/management/prod/organizations/units/workloads&#45;prod&#45;&gt;aws/poc/management/boot/organizations/units/workloads -->
<g id="edge12" class="edge">
<title>aws/poc/management/prod/organizations/units/workloads&#45;prod&#45;&gt;aws/poc/management/boot/organizations/units/workloads</title>
<path fill="none" stroke="#4ba8f1" d="M995.13,-215.97C1105.94,-205.37 1248.28,-191.76 1360.91,-180.99"/>
<polygon fill="#4ba8f1" stroke="#4ba8f1" points="1361.4,-184.46 1371.02,-180.02 1360.73,-177.49 1361.4,-184.46"/>
</g>
<!-- aws/poc/management/test/organizations/units/workloads&#45;test&#45;&gt;aws/poc/management/boot/organizations/units/workloads -->
<g id="edge14" class="edge">
<title>aws/poc/management/test/organizations/units/workloads&#45;test&#45;&gt;aws/poc/management/boot/organizations/units/workloads</title>
<path fill="none" stroke="#4ba8f1" d="M1727.57,-215.97C1694.02,-206.01 1651.51,-193.41 1616.39,-182.99"/>
<polygon fill="#4ba8f1" stroke="#4ba8f1" points="1617.27,-179.6 1606.69,-180.11 1615.28,-186.31 1617.27,-179.6"/>
</g>
<!-- aws/poc/workloads/dev/workload&#45;example&#45;dev/website -->
<g id="node13" class="node">
<title>aws/poc/workloads/dev/workload&#45;example&#45;dev/website</title>
<polygon fill="#4447cc" stroke="#5754dd" points="1445.5,-396 1044.5,-396 1040.5,-392 1040.5,-360 1441.5,-360 1445.5,-364 1445.5,-396"/>
<polyline fill="none" stroke="#5754dd" points="1441.5,-392 1040.5,-392 "/>
<polyline fill="none" stroke="#5754dd" points="1441.5,-392 1441.5,-360 "/>
<polyline fill="none" stroke="#5754dd" points="1441.5,-392 1445.5,-396 "/>
<text text-anchor="middle" x="1243" y="-374.3" font-family="Times,serif" font-size="14.00" fill="#c9d1d8">aws/poc/workloads/dev/workload&#45;example&#45;dev/website</text>
</g>
<!-- aws/poc/workloads/dev/workload&#45;example&#45;dev/website&#45;&gt;aws/poc/management/dev/organizations/accounts/workload&#45;example&#45;dev -->
<g id="edge15" class="edge">
<title>aws/poc/workloads/dev/workload&#45;example&#45;dev/website&#45;&gt;aws/poc/management/dev/organizations/accounts/workload&#45;example&#45;dev</title>
<path fill="none" stroke="#4ba8f1" d="M1265.74,-359.7C1277.44,-350.8 1291.86,-339.82 1304.51,-330.2"/>
<polygon fill="#4ba8f1" stroke="#4ba8f1" points="1306.68,-332.94 1312.52,-324.1 1302.44,-327.37 1306.68,-332.94"/>
</g>
<!-- aws/poc/workloads/prod/workload&#45;example&#45;prod/eu&#45;central&#45;1/website -->
<g id="node14" class="node">
<title>aws/poc/workloads/prod/workload&#45;example&#45;prod/eu&#45;central&#45;1/website</title>
<polygon fill="#4447cc" stroke="#5754dd" points="510,-396 4,-396 0,-392 0,-360 506,-360 510,-364 510,-396"/>
<polyline fill="none" stroke="#5754dd" points="506,-392 0,-392 "/>
<polyline fill="none" stroke="#5754dd" points="506,-392 506,-360 "/>
<polyline fill="none" stroke="#5754dd" points="506,-392 510,-396 "/>
<text text-anchor="middle" x="255" y="-374.3" font-family="Times,serif" font-size="14.00" fill="#c9d1d8">aws/poc/workloads/prod/workload&#45;example&#45;prod/eu&#45;central&#45;1/website</text>
</g>
<!-- aws/poc/workloads/prod/workload&#45;example&#45;prod/eu&#45;central&#45;1/website&#45;&gt;aws/poc/management/prod/organizations/accounts/workload&#45;example&#45;prod -->
<g id="edge16" class="edge">
<title>aws/poc/workloads/prod/workload&#45;example&#45;prod/eu&#45;central&#45;1/website&#45;&gt;aws/poc/management/prod/organizations/accounts/workload&#45;example&#45;prod</title>
<path fill="none" stroke="#4ba8f1" d="M381.54,-359.97C459.24,-349.51 558.75,-336.11 638.25,-325.41"/>
<polygon fill="#4ba8f1" stroke="#4ba8f1" points="638.9,-328.85 648.34,-324.05 637.96,-321.92 638.9,-328.85"/>
</g>
<!-- aws/poc/workloads/prod/workload&#45;example&#45;prod/eu&#45;west&#45;3/website -->
<g id="node15" class="node">
<title>aws/poc/workloads/prod/workload&#45;example&#45;prod/eu&#45;west&#45;3/website</title>
<polygon fill="#4447cc" stroke="#5754dd" points="1022,-396 532,-396 528,-392 528,-360 1018,-360 1022,-364 1022,-396"/>
<polyline fill="none" stroke="#5754dd" points="1018,-392 528,-392 "/>
<polyline fill="none" stroke="#5754dd" points="1018,-392 1018,-360 "/>
<polyline fill="none" stroke="#5754dd" points="1018,-392 1022,-396 "/>
<text text-anchor="middle" x="775" y="-374.3" font-family="Times,serif" font-size="14.00" fill="#c9d1d8">aws/poc/workloads/prod/workload&#45;example&#45;prod/eu&#45;west&#45;3/website</text>
</g>
<!-- aws/poc/workloads/prod/workload&#45;example&#45;prod/eu&#45;west&#45;3/website&#45;&gt;aws/poc/management/prod/organizations/accounts/workload&#45;example&#45;prod -->
<g id="edge17" class="edge">
<title>aws/poc/workloads/prod/workload&#45;example&#45;prod/eu&#45;west&#45;3/website&#45;&gt;aws/poc/management/prod/organizations/accounts/workload&#45;example&#45;prod</title>
<path fill="none" stroke="#4ba8f1" d="M775,-359.7C775,-351.98 775,-342.71 775,-334.11"/>
<polygon fill="#4ba8f1" stroke="#4ba8f1" points="778.5,-334.1 775,-324.1 771.5,-334.1 778.5,-334.1"/>
</g>
<!-- aws/poc/workloads/test/workload&#45;example&#45;test/eu&#45;central&#45;1/website -->
<g id="node16" class="node">
<title>aws/poc/workloads/test/workload&#45;example&#45;test/eu&#45;central&#45;1/website</title>
<polygon fill="#4447cc" stroke="#5754dd" points="2272,-396 1776,-396 1772,-392 1772,-360 2268,-360 2272,-364 2272,-396"/>
<polyline fill="none" stroke="#5754dd" points="2268,-392 1772,-392 "/>
<polyline fill="none" stroke="#5754dd" points="2268,-392 2268,-360 "/>
<polyline fill="none" stroke="#5754dd" points="2268,-392 2272,-396 "/>
<text text-anchor="middle" x="2022" y="-374.3" font-family="Times,serif" font-size="14.00" fill="#c9d1d8">aws/poc/workloads/test/workload&#45;example&#45;test/eu&#45;central&#45;1/website</text>
</g>
<!-- aws/poc/workloads/test/workload&#45;example&#45;test/eu&#45;central&#45;1/website&#45;&gt;aws/poc/management/test/organizations/accounts/workload&#45;example&#45;test -->
<g id="edge18" class="edge">
<title>aws/poc/workloads/test/workload&#45;example&#45;test/eu&#45;central&#45;1/website&#45;&gt;aws/poc/management/test/organizations/accounts/workload&#45;example&#45;test</title>
<path fill="none" stroke="#4ba8f1" d="M2016.07,-359.7C2013.39,-351.9 2010.17,-342.51 2007.2,-333.83"/>
<polygon fill="#4ba8f1" stroke="#4ba8f1" points="2010.42,-332.43 2003.86,-324.1 2003.8,-334.7 2010.42,-332.43"/>
</g>
<!-- aws/poc/workloads/test/workload&#45;example&#45;test/eu&#45;west&#45;3/website -->
<g id="node17" class="node">
<title>aws/poc/workloads/test/workload&#45;example&#45;test/eu&#45;west&#45;3/website</title>
<polygon fill="#4447cc" stroke="#5754dd" points="2773.5,-396 2294.5,-396 2290.5,-392 2290.5,-360 2769.5,-360 2773.5,-364 2773.5,-396"/>
<polyline fill="none" stroke="#5754dd" points="2769.5,-392 2290.5,-392 "/>
<polyline fill="none" stroke="#5754dd" points="2769.5,-392 2769.5,-360 "/>
<polyline fill="none" stroke="#5754dd" points="2769.5,-392 2773.5,-396 "/>
<text text-anchor="middle" x="2532" y="-374.3" font-family="Times,serif" font-size="14.00" fill="#c9d1d8">aws/poc/workloads/test/workload&#45;example&#45;test/eu&#45;west&#45;3/website</text>
</g>
<!-- aws/poc/workloads/test/workload&#45;example&#45;test/eu&#45;west&#45;3/website&#45;&gt;aws/poc/management/test/organizations/accounts/workload&#45;example&#45;test -->
<g id="edge19" class="edge">
<title>aws/poc/workloads/test/workload&#45;example&#45;test/eu&#45;west&#45;3/website&#45;&gt;aws/poc/management/test/organizations/accounts/workload&#45;example&#45;test</title>
<path fill="none" stroke="#4ba8f1" d="M2402.05,-359.97C2322.26,-349.51 2220.07,-336.11 2138.43,-325.41"/>
<polygon fill="#4ba8f1" stroke="#4ba8f1" points="2138.44,-321.88 2128.07,-324.05 2137.53,-328.82 2138.44,-321.88"/>
</g>
<!-- examples/hello&#45;world -->
<g id="node18" class="node">
<title>examples/hello&#45;world</title>
<polygon fill="#4447cc" stroke="#5754dd" points="2187,-108 2023,-108 2019,-104 2019,-72 2183,-72 2187,-76 2187,-108"/>
<polyline fill="none" stroke="#5754dd" points="2183,-104 2019,-104 "/>
<polyline fill="none" stroke="#5754dd" points="2183,-104 2183,-72 "/>
<polyline fill="none" stroke="#5754dd" points="2183,-104 2187,-108 "/>
<text text-anchor="middle" x="2103" y="-86.3" font-family="Times,serif" font-size="14.00" fill="#c9d1d8">examples/hello&#45;world</text>
</g>
<!-- examples/hello&#45;world&#45;&gt;terragrunt.hcl -->
<g id="edge20" class="edge">
<title>examples/hello&#45;world&#45;&gt;terragrunt.hcl</title>
<path fill="none" stroke="#4ba8f1" d="M2089.16,-71.7C2082.51,-63.39 2074.42,-53.28 2067.11,-44.14"/>
<polygon fill="#4ba8f1" stroke="#4ba8f1" points="2069.66,-41.73 2060.68,-36.1 2064.2,-46.1 2069.66,-41.73"/>
</g>
<!-- examples/remote&#45;state/apples -->
<g id="node19" class="node">
<title>examples/remote&#45;state/apples</title>
<polygon fill="#4447cc" stroke="#5754dd" points="2342.5,-180 2115.5,-180 2111.5,-176 2111.5,-144 2338.5,-144 2342.5,-148 2342.5,-180"/>
<polyline fill="none" stroke="#5754dd" points="2338.5,-176 2111.5,-176 "/>
<polyline fill="none" stroke="#5754dd" points="2338.5,-176 2338.5,-144 "/>
<polyline fill="none" stroke="#5754dd" points="2338.5,-176 2342.5,-180 "/>
<text text-anchor="middle" x="2227" y="-158.3" font-family="Times,serif" font-size="14.00" fill="#c9d1d8">examples/remote&#45;state/apples</text>
</g>
<!-- examples/remote&#45;state/states -->
<g id="node20" class="node">
<title>examples/remote&#45;state/states</title>
<polygon fill="#4447cc" stroke="#5754dd" points="2433,-108 2209,-108 2205,-104 2205,-72 2429,-72 2433,-76 2433,-108"/>
<polyline fill="none" stroke="#5754dd" points="2429,-104 2205,-104 "/>
<polyline fill="none" stroke="#5754dd" points="2429,-104 2429,-72 "/>
<polyline fill="none" stroke="#5754dd" points="2429,-104 2433,-108 "/>
<text text-anchor="middle" x="2319" y="-86.3" font-family="Times,serif" font-size="14.00" fill="#c9d1d8">examples/remote&#45;state/states</text>
</g>
<!-- examples/remote&#45;state/apples&#45;&gt;examples/remote&#45;state/states -->
<g id="edge21" class="edge">
<title>examples/remote&#45;state/apples&#45;&gt;examples/remote&#45;state/states</title>
<path fill="none" stroke="#4ba8f1" d="M2249.74,-143.7C2261.44,-134.8 2275.86,-123.82 2288.51,-114.2"/>
<polygon fill="#4ba8f1" stroke="#4ba8f1" points="2290.68,-116.94 2296.52,-108.1 2286.44,-111.37 2290.68,-116.94"/>
</g>
<!-- examples/remote&#45;state/states&#45;&gt;terragrunt.hcl -->
<g id="edge23" class="edge">
<title>examples/remote&#45;state/states&#45;&gt;terragrunt.hcl</title>
<path fill="none" stroke="#4ba8f1" d="M2252.81,-71.97C2211.32,-61.29 2157.94,-47.55 2115.94,-36.74"/>
<polygon fill="#4ba8f1" stroke="#4ba8f1" points="2116.62,-33.3 2106.07,-34.2 2114.88,-40.08 2116.62,-33.3"/>
</g>
<!-- examples/remote&#45;state/oranges -->
<g id="node21" class="node">
<title>examples/remote&#45;state/oranges</title>
<polygon fill="#4447cc" stroke="#5754dd" points="2603,-180 2365,-180 2361,-176 2361,-144 2599,-144 2603,-148 2603,-180"/>
<polyline fill="none" stroke="#5754dd" points="2599,-176 2361,-176 "/>
<polyline fill="none" stroke="#5754dd" points="2599,-176 2599,-144 "/>
<polyline fill="none" stroke="#5754dd" points="2599,-176 2603,-180 "/>
<text text-anchor="middle" x="2482" y="-158.3" font-family="Times,serif" font-size="14.00" fill="#c9d1d8">examples/remote&#45;state/oranges</text>
</g>
<!-- examples/remote&#45;state/oranges&#45;&gt;examples/remote&#45;state/states -->
<g id="edge22" class="edge">
<title>examples/remote&#45;state/oranges&#45;&gt;examples/remote&#45;state/states</title>
<path fill="none" stroke="#4ba8f1" d="M2442.13,-143.88C2419.84,-134.31 2391.88,-122.3 2368.24,-112.15"/>
<polygon fill="#4ba8f1" stroke="#4ba8f1" points="2369.31,-108.8 2358.74,-108.07 2366.55,-115.23 2369.31,-108.8"/>
</g>
</g>
</svg>
