<?xml version="1.0" encoding="UTF-8" standalone="no"?>
<!DOCTYPE svg PUBLIC "-//W3C//DTD SVG 1.1//EN"
 "http://www.w3.org/Graphics/SVG/1.1/DTD/svg11.dtd">
<!-- Generated by graphviz version 2.43.0 (0)
 -->
<!-- Title: %3 Pages: 1 -->
<svg width="763pt" height="116pt"
 viewBox="0.00 0.00 762.90 116.00" xmlns="http://www.w3.org/2000/svg" xmlns:xlink="http://www.w3.org/1999/xlink">
<g id="graph0" class="graph" transform="scale(1 1) rotate(0) translate(4 112)">
<title>%3</title>
<polygon fill="transparent" stroke="transparent" points="-4,4 -4,-112 758.9,-112 758.9,4 -4,4"/>
<!-- root -->
<g id="node1" class="node">
<title>root</title>
<ellipse fill="none" stroke="black" cx="29.9" cy="-90" rx="29.8" ry="18"/>
<text text-anchor="middle" x="29.9" y="-86.3" font-family="Times,serif" font-size="14.00">root</text>
</g>
<!-- examples/hello&#45;world -->
<g id="node2" class="node">
<title>examples/hello&#45;world</title>
<polygon fill="#c0c0c0" stroke="#404040" points="245.9,-108 81.9,-108 77.9,-104 77.9,-72 241.9,-72 245.9,-76 245.9,-108"/>
<polyline fill="none" stroke="#404040" points="241.9,-104 77.9,-104 "/>
<polyline fill="none" stroke="#404040" points="241.9,-104 241.9,-72 "/>
<polyline fill="none" stroke="#404040" points="241.9,-104 245.9,-108 "/>
<text text-anchor="middle" x="161.9" y="-86.3" font-family="Times,serif" font-size="14.00">examples/hello&#45;world</text>
</g>
<!-- examples/remote&#45;state/apples -->
<g id="node3" class="node">
<title>examples/remote&#45;state/apples</title>
<polygon fill="#c0c0c0" stroke="#404040" points="494.4,-108 267.4,-108 263.4,-104 263.4,-72 490.4,-72 494.4,-76 494.4,-108"/>
<polyline fill="none" stroke="#404040" points="490.4,-104 263.4,-104 "/>
<polyline fill="none" stroke="#404040" points="490.4,-104 490.4,-72 "/>
<polyline fill="none" stroke="#404040" points="490.4,-104 494.4,-108 "/>
<text text-anchor="middle" x="378.9" y="-86.3" font-family="Times,serif" font-size="14.00">examples/remote&#45;state/apples</text>
</g>
<!-- examples/remote&#45;state/states -->
<g id="node4" class="node">
<title>examples/remote&#45;state/states</title>
<polygon fill="#c0c0c0" stroke="#404040" points="619.9,-36 395.9,-36 391.9,-32 391.9,0 615.9,0 619.9,-4 619.9,-36"/>
<polyline fill="none" stroke="#404040" points="615.9,-32 391.9,-32 "/>
<polyline fill="none" stroke="#404040" points="615.9,-32 615.9,0 "/>
<polyline fill="none" stroke="#404040" points="615.9,-32 619.9,-36 "/>
<text text-anchor="middle" x="505.9" y="-14.3" font-family="Times,serif" font-size="14.00">examples/remote&#45;state/states</text>
</g>
<!-- examples/remote&#45;state/apples&#45;&gt;examples/remote&#45;state/states -->
<g id="edge1" class="edge">
<title>examples/remote&#45;state/apples&#45;&gt;examples/remote&#45;state/states</title>
<path fill="none" stroke="#808080" d="M409.97,-71.88C426.72,-62.64 447.6,-51.13 465.6,-41.21"/>
<polygon fill="#808080" stroke="#808080" points="467.64,-44.08 474.71,-36.19 464.26,-37.95 467.64,-44.08"/>
</g>
<!-- examples/remote&#45;state/oranges -->
<g id="node5" class="node">
<title>examples/remote&#45;state/oranges</title>
<polygon fill="#c0c0c0" stroke="#404040" points="754.9,-108 516.9,-108 512.9,-104 512.9,-72 750.9,-72 754.9,-76 754.9,-108"/>
<polyline fill="none" stroke="#404040" points="750.9,-104 512.9,-104 "/>
<polyline fill="none" stroke="#404040" points="750.9,-104 750.9,-72 "/>
<polyline fill="none" stroke="#404040" points="750.9,-104 754.9,-108 "/>
<text text-anchor="middle" x="633.9" y="-86.3" font-family="Times,serif" font-size="14.00">examples/remote&#45;state/oranges</text>
</g>
<!-- examples/remote&#45;state/oranges&#45;&gt;examples/remote&#45;state/states -->
<g id="edge2" class="edge">
<title>examples/remote&#45;state/oranges&#45;&gt;examples/remote&#45;state/states</title>
<path fill="none" stroke="#808080" d="M602.59,-71.88C585.69,-62.64 564.65,-51.13 546.51,-41.21"/>
<polygon fill="#808080" stroke="#808080" points="547.78,-37.92 537.33,-36.19 544.42,-44.06 547.78,-37.92"/>
</g>
</g>
</svg>
