<?xml version="1.0" encoding="UTF-8" standalone="no"?>
<!DOCTYPE svg PUBLIC "-//W3C//DTD SVG 1.1//EN"
 "http://www.w3.org/Graphics/SVG/1.1/DTD/svg11.dtd">
<!-- Generated by graphviz version 2.43.0 (0)
 -->
<!-- Title: %3 Pages: 1 -->
<svg width="685pt" height="116pt"
 viewBox="0.00 0.00 685.00 116.00" xmlns="http://www.w3.org/2000/svg" xmlns:xlink="http://www.w3.org/1999/xlink">
<g id="graph0" class="graph" transform="scale(1 1) rotate(0) translate(4 112)">
<title>%3</title>
<polygon fill="transparent" stroke="transparent" points="-4,4 -4,-112 681,-112 681,4 -4,4"/>
<!-- examples/hello&#45;world -->
<g id="node1" class="node">
<title>examples/hello&#45;world</title>
<polygon fill="#c0c0c0" stroke="#404040" points="168,-108 4,-108 0,-104 0,-72 164,-72 168,-76 168,-108"/>
<polyline fill="none" stroke="#404040" points="164,-104 0,-104 "/>
<polyline fill="none" stroke="#404040" points="164,-104 164,-72 "/>
<polyline fill="none" stroke="#404040" points="164,-104 168,-108 "/>
<text text-anchor="middle" x="84" y="-86.3" font-family="Times,serif" font-size="14.00">examples/hello&#45;world</text>
</g>
<!-- examples/remote&#45;state/apples -->
<g id="node2" class="node">
<title>examples/remote&#45;state/apples</title>
<polygon fill="#c0c0c0" stroke="#404040" points="416.5,-108 189.5,-108 185.5,-104 185.5,-72 412.5,-72 416.5,-76 416.5,-108"/>
<polyline fill="none" stroke="#404040" points="412.5,-104 185.5,-104 "/>
<polyline fill="none" stroke="#404040" points="412.5,-104 412.5,-72 "/>
<polyline fill="none" stroke="#404040" points="412.5,-104 416.5,-108 "/>
<text text-anchor="middle" x="301" y="-86.3" font-family="Times,serif" font-size="14.00">examples/remote&#45;state/apples</text>
</g>
<!-- examples/remote&#45;state/states -->
<g id="node3" class="node">
<title>examples/remote&#45;state/states</title>
<polygon fill="#c0c0c0" stroke="#404040" points="542,-36 318,-36 314,-32 314,0 538,0 542,-4 542,-36"/>
<polyline fill="none" stroke="#404040" points="538,-32 314,-32 "/>
<polyline fill="none" stroke="#404040" points="538,-32 538,0 "/>
<polyline fill="none" stroke="#404040" points="538,-32 542,-36 "/>
<text text-anchor="middle" x="428" y="-14.3" font-family="Times,serif" font-size="14.00">examples/remote&#45;state/states</text>
</g>
<!-- examples/remote&#45;state/apples&#45;&gt;examples/remote&#45;state/states -->
<g id="edge1" class="edge">
<title>examples/remote&#45;state/apples&#45;&gt;examples/remote&#45;state/states</title>
<path fill="none" stroke="#808080" d="M332.07,-71.88C348.83,-62.64 369.71,-51.13 387.7,-41.21"/>
<polygon fill="#808080" stroke="#808080" points="389.74,-44.08 396.81,-36.19 386.37,-37.95 389.74,-44.08"/>
</g>
<!-- examples/remote&#45;state/oranges -->
<g id="node4" class="node">
<title>examples/remote&#45;state/oranges</title>
<polygon fill="#c0c0c0" stroke="#404040" points="677,-108 439,-108 435,-104 435,-72 673,-72 677,-76 677,-108"/>
<polyline fill="none" stroke="#404040" points="673,-104 435,-104 "/>
<polyline fill="none" stroke="#404040" points="673,-104 673,-72 "/>
<polyline fill="none" stroke="#404040" points="673,-104 677,-108 "/>
<text text-anchor="middle" x="556" y="-86.3" font-family="Times,serif" font-size="14.00">examples/remote&#45;state/oranges</text>
</g>
<!-- examples/remote&#45;state/oranges&#45;&gt;examples/remote&#45;state/states -->
<g id="edge2" class="edge">
<title>examples/remote&#45;state/oranges&#45;&gt;examples/remote&#45;state/states</title>
<path fill="none" stroke="#808080" d="M524.69,-71.88C507.8,-62.64 486.75,-51.13 468.62,-41.21"/>
<polygon fill="#808080" stroke="#808080" points="469.89,-37.92 459.43,-36.19 466.53,-44.06 469.89,-37.92"/>
</g>
</g>
</svg>
