<?xml version="1.0" encoding="UTF-8" standalone="no"?>
<!DOCTYPE svg PUBLIC "-//W3C//DTD SVG 1.1//EN"
 "http://www.w3.org/Graphics/SVG/1.1/DTD/svg11.dtd">
<!-- Generated by graphviz version 2.43.0 (0)
 -->
<!-- Title: %3 Pages: 1 -->
<svg width="1872pt" height="404pt"
 viewBox="0.00 0.00 1872.00 404.00" xmlns="http://www.w3.org/2000/svg" xmlns:xlink="http://www.w3.org/1999/xlink">
<g id="graph0" class="graph" transform="scale(1 1) rotate(0) translate(4 400)">
<title>%3</title>
<polygon fill="transparent" stroke="transparent" points="-4,4 -4,-400 1868,-400 1868,4 -4,4"/>
<!-- root -->
<g id="node1" class="node">
<title>root</title>
<ellipse fill="none" stroke="black" cx="991" cy="-378" rx="29.8" ry="18"/>
<text text-anchor="middle" x="991" y="-374.3" font-family="Times,serif" font-size="14.00">root</text>
</g>
<!-- aws/poc/management/boot/organizations/roots/organization -->
<g id="node2" class="node">
<title>aws/poc/management/boot/organizations/roots/organization</title>
<polygon fill="#c0c0c0" stroke="#404040" points="1405.5,-36 966.5,-36 962.5,-32 962.5,0 1401.5,0 1405.5,-4 1405.5,-36"/>
<polyline fill="none" stroke="#404040" points="1401.5,-32 962.5,-32 "/>
<polyline fill="none" stroke="#404040" points="1401.5,-32 1401.5,0 "/>
<polyline fill="none" stroke="#404040" points="1401.5,-32 1405.5,-36 "/>
<text text-anchor="middle" x="1184" y="-14.3" font-family="Times,serif" font-size="14.00">aws/poc/management/boot/organizations/roots/organization</text>
</g>
<!-- aws/poc/management/boot/organizations/units/workloads -->
<g id="node3" class="node">
<title>aws/poc/management/boot/organizations/units/workloads</title>
<polygon fill="#c0c0c0" stroke="#404040" points="1397,-108 975,-108 971,-104 971,-72 1393,-72 1397,-76 1397,-108"/>
<polyline fill="none" stroke="#404040" points="1393,-104 971,-104 "/>
<polyline fill="none" stroke="#404040" points="1393,-104 1393,-72 "/>
<polyline fill="none" stroke="#404040" points="1393,-104 1397,-108 "/>
<text text-anchor="middle" x="1184" y="-86.3" font-family="Times,serif" font-size="14.00">aws/poc/management/boot/organizations/units/workloads</text>
</g>
<!-- aws/poc/management/boot/organizations/units/workloads&#45;&gt;aws/poc/management/boot/organizations/roots/organization -->
<g id="edge1" class="edge">
<title>aws/poc/management/boot/organizations/units/workloads&#45;&gt;aws/poc/management/boot/organizations/roots/organization</title>
<path fill="none" stroke="#808080" d="M1184,-71.7C1184,-63.98 1184,-54.71 1184,-46.11"/>
<polygon fill="#808080" stroke="#808080" points="1187.5,-46.1 1184,-36.1 1180.5,-46.1 1187.5,-46.1"/>
</g>
<!-- aws/poc/management/boot/state -->
<g id="node4" class="node">
<title>aws/poc/management/boot/state</title>
<polygon fill="#c0c0c0" stroke="#404040" points="1312,-252 1068,-252 1064,-248 1064,-216 1308,-216 1312,-220 1312,-252"/>
<polyline fill="none" stroke="#404040" points="1308,-248 1064,-248 "/>
<polyline fill="none" stroke="#404040" points="1308,-248 1308,-216 "/>
<polyline fill="none" stroke="#404040" points="1308,-248 1312,-252 "/>
<text text-anchor="middle" x="1188" y="-230.3" font-family="Times,serif" font-size="14.00">aws/poc/management/boot/state</text>
</g>
<!-- aws/poc/management/dev/organizations/accounts/workload&#45;example&#45;dev -->
<g id="node5" class="node">
<title>aws/poc/management/dev/organizations/accounts/workload&#45;example&#45;dev</title>
<polygon fill="#c0c0c0" stroke="#404040" points="1864,-252 1334,-252 1330,-248 1330,-216 1860,-216 1864,-220 1864,-252"/>
<polyline fill="none" stroke="#404040" points="1860,-248 1330,-248 "/>
<polyline fill="none" stroke="#404040" points="1860,-248 1860,-216 "/>
<polyline fill="none" stroke="#404040" points="1860,-248 1864,-252 "/>
<text text-anchor="middle" x="1597" y="-230.3" font-family="Times,serif" font-size="14.00">aws/poc/management/dev/organizations/accounts/workload&#45;example&#45;dev</text>
</g>
<!-- aws/poc/management/dev/organizations/units/workloads&#45;dev -->
<g id="node6" class="node">
<title>aws/poc/management/dev/organizations/units/workloads&#45;dev</title>
<polygon fill="#c0c0c0" stroke="#404040" points="1734,-180 1288,-180 1284,-176 1284,-144 1730,-144 1734,-148 1734,-180"/>
<polyline fill="none" stroke="#404040" points="1730,-176 1284,-176 "/>
<polyline fill="none" stroke="#404040" points="1730,-176 1730,-144 "/>
<polyline fill="none" stroke="#404040" points="1730,-176 1734,-180 "/>
<text text-anchor="middle" x="1509" y="-158.3" font-family="Times,serif" font-size="14.00">aws/poc/management/dev/organizations/units/workloads&#45;dev</text>
</g>
<!-- aws/poc/management/dev/organizations/accounts/workload&#45;example&#45;dev&#45;&gt;aws/poc/management/dev/organizations/units/workloads&#45;dev -->
<g id="edge2" class="edge">
<title>aws/poc/management/dev/organizations/accounts/workload&#45;example&#45;dev&#45;&gt;aws/poc/management/dev/organizations/units/workloads&#45;dev</title>
<path fill="none" stroke="#808080" d="M1575.25,-215.7C1564.16,-206.88 1550.53,-196.03 1538.51,-186.47"/>
<polygon fill="#808080" stroke="#808080" points="1540.51,-183.59 1530.5,-180.1 1536.15,-189.07 1540.51,-183.59"/>
</g>
<!-- aws/poc/management/dev/organizations/units/workloads&#45;dev&#45;&gt;aws/poc/management/boot/organizations/units/workloads -->
<g id="edge3" class="edge">
<title>aws/poc/management/dev/organizations/units/workloads&#45;dev&#45;&gt;aws/poc/management/boot/organizations/units/workloads</title>
<path fill="none" stroke="#808080" d="M1429.91,-143.97C1382.54,-133.76 1322.19,-120.76 1273.13,-110.2"/>
<polygon fill="#808080" stroke="#808080" points="1273.67,-106.73 1263.16,-108.05 1272.2,-113.58 1273.67,-106.73"/>
</g>
<!-- aws/poc/management/prod/iam/access -->
<g id="node7" class="node">
<title>aws/poc/management/prod/iam/access</title>
<polygon fill="#c0c0c0" stroke="#404040" points="1333,-324 1047,-324 1043,-320 1043,-288 1329,-288 1333,-292 1333,-324"/>
<polyline fill="none" stroke="#404040" points="1329,-320 1043,-320 "/>
<polyline fill="none" stroke="#404040" points="1329,-320 1329,-288 "/>
<polyline fill="none" stroke="#404040" points="1329,-320 1333,-324 "/>
<text text-anchor="middle" x="1188" y="-302.3" font-family="Times,serif" font-size="14.00">aws/poc/management/prod/iam/access</text>
</g>
<!-- aws/poc/management/prod/iam/access&#45;&gt;aws/poc/management/boot/state -->
<g id="edge4" class="edge">
<title>aws/poc/management/prod/iam/access&#45;&gt;aws/poc/management/boot/state</title>
<path fill="none" stroke="#808080" d="M1188,-287.7C1188,-279.98 1188,-270.71 1188,-262.11"/>
<polygon fill="#808080" stroke="#808080" points="1191.5,-262.1 1188,-252.1 1184.5,-262.1 1191.5,-262.1"/>
</g>
<!-- aws/poc/management/prod/iam/access&#45;&gt;aws/poc/management/dev/organizations/accounts/workload&#45;example&#45;dev -->
<g id="edge5" class="edge">
<title>aws/poc/management/prod/iam/access&#45;&gt;aws/poc/management/dev/organizations/accounts/workload&#45;example&#45;dev</title>
<path fill="none" stroke="#808080" d="M1287.53,-287.97C1347.89,-277.63 1425,-264.44 1487.14,-253.8"/>
<polygon fill="#808080" stroke="#808080" points="1488.11,-257.19 1497.38,-252.05 1486.93,-250.29 1488.11,-257.19"/>
</g>
<!-- aws/poc/management/prod/organizations/accounts/workload&#45;example&#45;prod -->
<g id="node8" class="node">
<title>aws/poc/management/prod/organizations/accounts/workload&#45;example&#45;prod</title>
<polygon fill="#c0c0c0" stroke="#404040" points="1045.5,-252 500.5,-252 496.5,-248 496.5,-216 1041.5,-216 1045.5,-220 1045.5,-252"/>
<polyline fill="none" stroke="#404040" points="1041.5,-248 496.5,-248 "/>
<polyline fill="none" stroke="#404040" points="1041.5,-248 1041.5,-216 "/>
<polyline fill="none" stroke="#404040" points="1041.5,-248 1045.5,-252 "/>
<text text-anchor="middle" x="771" y="-230.3" font-family="Times,serif" font-size="14.00">aws/poc/management/prod/organizations/accounts/workload&#45;example&#45;prod</text>
</g>
<!-- aws/poc/management/prod/iam/access&#45;&gt;aws/poc/management/prod/organizations/accounts/workload&#45;example&#45;prod -->
<g id="edge6" class="edge">
<title>aws/poc/management/prod/iam/access&#45;&gt;aws/poc/management/prod/organizations/accounts/workload&#45;example&#45;prod</title>
<path fill="none" stroke="#808080" d="M1086.52,-287.97C1024.85,-277.61 946.04,-264.38 882.61,-253.74"/>
<polygon fill="#808080" stroke="#808080" points="883.01,-250.25 872.57,-252.05 881.85,-257.16 883.01,-250.25"/>
</g>
<!-- aws/poc/management/prod/organizations/units/workloads&#45;prod -->
<g id="node10" class="node">
<title>aws/poc/management/prod/organizations/units/workloads&#45;prod</title>
<polygon fill="#c0c0c0" stroke="#404040" points="1178.5,-180 717.5,-180 713.5,-176 713.5,-144 1174.5,-144 1178.5,-148 1178.5,-180"/>
<polyline fill="none" stroke="#404040" points="1174.5,-176 713.5,-176 "/>
<polyline fill="none" stroke="#404040" points="1174.5,-176 1174.5,-144 "/>
<polyline fill="none" stroke="#404040" points="1174.5,-176 1178.5,-180 "/>
<text text-anchor="middle" x="946" y="-158.3" font-family="Times,serif" font-size="14.00">aws/poc/management/prod/organizations/units/workloads&#45;prod</text>
</g>
<!-- aws/poc/management/prod/organizations/accounts/workload&#45;example&#45;prod&#45;&gt;aws/poc/management/prod/organizations/units/workloads&#45;prod -->
<g id="edge8" class="edge">
<title>aws/poc/management/prod/organizations/accounts/workload&#45;example&#45;prod&#45;&gt;aws/poc/management/prod/organizations/units/workloads&#45;prod</title>
<path fill="none" stroke="#808080" d="M813.81,-215.88C837.95,-206.22 868.28,-194.09 893.81,-183.88"/>
<polygon fill="#808080" stroke="#808080" points="895.34,-187.03 903.33,-180.07 892.74,-180.53 895.34,-187.03"/>
</g>
<!-- aws/poc/management/prod/iam/identity -->
<g id="node9" class="node">
<title>aws/poc/management/prod/iam/identity</title>
<polygon fill="#c0c0c0" stroke="#404040" points="1337.5,-396 1042.5,-396 1038.5,-392 1038.5,-360 1333.5,-360 1337.5,-364 1337.5,-396"/>
<polyline fill="none" stroke="#404040" points="1333.5,-392 1038.5,-392 "/>
<polyline fill="none" stroke="#404040" points="1333.5,-392 1333.5,-360 "/>
<polyline fill="none" stroke="#404040" points="1333.5,-392 1337.5,-396 "/>
<text text-anchor="middle" x="1188" y="-374.3" font-family="Times,serif" font-size="14.00">aws/poc/management/prod/iam/identity</text>
</g>
<!-- aws/poc/management/prod/iam/identity&#45;&gt;aws/poc/management/prod/iam/access -->
<g id="edge7" class="edge">
<title>aws/poc/management/prod/iam/identity&#45;&gt;aws/poc/management/prod/iam/access</title>
<path fill="none" stroke="#808080" d="M1188,-359.7C1188,-351.98 1188,-342.71 1188,-334.11"/>
<polygon fill="#808080" stroke="#808080" points="1191.5,-334.1 1188,-324.1 1184.5,-334.1 1191.5,-334.1"/>
</g>
<!-- aws/poc/management/prod/organizations/units/workloads&#45;prod&#45;&gt;aws/poc/management/boot/organizations/units/workloads -->
<g id="edge9" class="edge">
<title>aws/poc/management/prod/organizations/units/workloads&#45;prod&#45;&gt;aws/poc/management/boot/organizations/units/workloads</title>
<path fill="none" stroke="#808080" d="M1003.92,-143.97C1037.75,-134.01 1080.62,-121.41 1116.04,-110.99"/>
<polygon fill="#808080" stroke="#808080" points="1117.22,-114.29 1125.82,-108.11 1115.24,-107.57 1117.22,-114.29"/>
</g>
<!-- aws/poc/workloads/dev/workload&#45;example&#45;dev/website -->
<g id="node11" class="node">
<title>aws/poc/workloads/dev/workload&#45;example&#45;dev/website</title>
<polygon fill="#c0c0c0" stroke="#404040" points="1799.5,-324 1398.5,-324 1394.5,-320 1394.5,-288 1795.5,-288 1799.5,-292 1799.5,-324"/>
<polyline fill="none" stroke="#404040" points="1795.5,-320 1394.5,-320 "/>
<polyline fill="none" stroke="#404040" points="1795.5,-320 1795.5,-288 "/>
<polyline fill="none" stroke="#404040" points="1795.5,-320 1799.5,-324 "/>
<text text-anchor="middle" x="1597" y="-302.3" font-family="Times,serif" font-size="14.00">aws/poc/workloads/dev/workload&#45;example&#45;dev/website</text>
</g>
<!-- aws/poc/workloads/dev/workload&#45;example&#45;dev/website&#45;&gt;aws/poc/management/dev/organizations/accounts/workload&#45;example&#45;dev -->
<g id="edge10" class="edge">
<title>aws/poc/workloads/dev/workload&#45;example&#45;dev/website&#45;&gt;aws/poc/management/dev/organizations/accounts/workload&#45;example&#45;dev</title>
<path fill="none" stroke="#808080" d="M1597,-287.7C1597,-279.98 1597,-270.71 1597,-262.11"/>
<polygon fill="#808080" stroke="#808080" points="1600.5,-262.1 1597,-252.1 1593.5,-262.1 1600.5,-262.1"/>
</g>
<!-- aws/poc/workloads/prod/workload&#45;example&#45;prod/eu&#45;central&#45;1/website -->
<g id="node12" class="node">
<title>aws/poc/workloads/prod/workload&#45;example&#45;prod/eu&#45;central&#45;1/website</title>
<polygon fill="#c0c0c0" stroke="#404040" points="510,-324 4,-324 0,-320 0,-288 506,-288 510,-292 510,-324"/>
<polyline fill="none" stroke="#404040" points="506,-320 0,-320 "/>
<polyline fill="none" stroke="#404040" points="506,-320 506,-288 "/>
<polyline fill="none" stroke="#404040" points="506,-320 510,-324 "/>
<text text-anchor="middle" x="255" y="-302.3" font-family="Times,serif" font-size="14.00">aws/poc/workloads/prod/workload&#45;example&#45;prod/eu&#45;central&#45;1/website</text>
</g>
<!-- aws/poc/workloads/prod/workload&#45;example&#45;prod/eu&#45;central&#45;1/website&#45;&gt;aws/poc/management/prod/organizations/accounts/workload&#45;example&#45;prod -->
<g id="edge11" class="edge">
<title>aws/poc/workloads/prod/workload&#45;example&#45;prod/eu&#45;central&#45;1/website&#45;&gt;aws/poc/management/prod/organizations/accounts/workload&#45;example&#45;prod</title>
<path fill="none" stroke="#808080" d="M380.57,-287.97C457.67,-277.51 556.41,-264.11 635.31,-253.41"/>
<polygon fill="#808080" stroke="#808080" points="635.88,-256.86 645.32,-252.05 634.94,-249.93 635.88,-256.86"/>
</g>
<!-- aws/poc/workloads/prod/workload&#45;example&#45;prod/eu&#45;west&#45;3/website -->
<g id="node13" class="node">
<title>aws/poc/workloads/prod/workload&#45;example&#45;prod/eu&#45;west&#45;3/website</title>
<polygon fill="#c0c0c0" stroke="#404040" points="1022,-324 532,-324 528,-320 528,-288 1018,-288 1022,-292 1022,-324"/>
<polyline fill="none" stroke="#404040" points="1018,-320 528,-320 "/>
<polyline fill="none" stroke="#404040" points="1018,-320 1018,-288 "/>
<polyline fill="none" stroke="#404040" points="1018,-320 1022,-324 "/>
<text text-anchor="middle" x="775" y="-302.3" font-family="Times,serif" font-size="14.00">aws/poc/workloads/prod/workload&#45;example&#45;prod/eu&#45;west&#45;3/website</text>
</g>
<!-- aws/poc/workloads/prod/workload&#45;example&#45;prod/eu&#45;west&#45;3/website&#45;&gt;aws/poc/management/prod/organizations/accounts/workload&#45;example&#45;prod -->
<g id="edge12" class="edge">
<title>aws/poc/workloads/prod/workload&#45;example&#45;prod/eu&#45;west&#45;3/website&#45;&gt;aws/poc/management/prod/organizations/accounts/workload&#45;example&#45;prod</title>
<path fill="none" stroke="#808080" d="M774.01,-287.7C773.57,-279.98 773.04,-270.71 772.55,-262.11"/>
<polygon fill="#808080" stroke="#808080" points="776.04,-261.89 771.98,-252.1 769.05,-262.29 776.04,-261.89"/>
</g>
<!-- examples/hello&#45;world -->
<g id="node14" class="node">
<title>examples/hello&#45;world</title>
<polygon fill="#c0c0c0" stroke="#404040" points="1524,-396 1360,-396 1356,-392 1356,-360 1520,-360 1524,-364 1524,-396"/>
<polyline fill="none" stroke="#404040" points="1520,-392 1356,-392 "/>
<polyline fill="none" stroke="#404040" points="1520,-392 1520,-360 "/>
<polyline fill="none" stroke="#404040" points="1520,-392 1524,-396 "/>
<text text-anchor="middle" x="1440" y="-374.3" font-family="Times,serif" font-size="14.00">examples/hello&#45;world</text>
</g>
</g>
</svg>
