<?xml version="1.0" encoding="UTF-8" standalone="no"?>
<!DOCTYPE svg PUBLIC "-//W3C//DTD SVG 1.1//EN"
 "http://www.w3.org/Graphics/SVG/1.1/DTD/svg11.dtd">
<!-- Generated by graphviz version 2.43.0 (0)
 -->
<!-- Title: %3 Pages: 1 -->
<svg width="556pt" height="188pt"
 viewBox="0.00 0.00 556.00 188.00" xmlns="http://www.w3.org/2000/svg" xmlns:xlink="http://www.w3.org/1999/xlink">
<g id="graph0" class="graph" transform="scale(1 1) rotate(0) translate(4 184)">
<title>%3</title>
<polygon fill="transparent" stroke="transparent" points="-4,4 -4,-184 552,-184 552,4 -4,4"/>
<!-- terragrunt.hcl -->
<g id="node1" class="node">
<title>terragrunt.hcl</title>
<polygon fill="#c0c0c0" stroke="#404040" points="245,-36 133,-36 133,0 251,0 251,-30 245,-36"/>
<polyline fill="none" stroke="#404040" points="245,-36 245,-30 "/>
<polyline fill="none" stroke="#404040" points="251,-30 245,-30 "/>
<text text-anchor="middle" x="192" y="-14.3" font-family="Times,serif" font-size="14.00">terragrunt.hcl</text>
</g>
<!-- examples/hello&#45;world -->
<g id="node2" class="node">
<title>examples/hello&#45;world</title>
<polygon fill="#c0c0c0" stroke="#404040" points="168,-108 4,-108 0,-104 0,-72 164,-72 168,-76 168,-108"/>
<polyline fill="none" stroke="#404040" points="164,-104 0,-104 "/>
<polyline fill="none" stroke="#404040" points="164,-104 164,-72 "/>
<polyline fill="none" stroke="#404040" points="164,-104 168,-108 "/>
<text text-anchor="middle" x="84" y="-86.3" font-family="Times,serif" font-size="14.00">examples/hello&#45;world</text>
</g>
<!-- examples/hello&#45;world&#45;&gt;terragrunt.hcl -->
<g id="edge1" class="edge">
<title>examples/hello&#45;world&#45;&gt;terragrunt.hcl</title>
<path fill="none" stroke="#808080" d="M110.42,-71.88C124.41,-62.81 141.78,-51.55 156.89,-41.76"/>
<polygon fill="#808080" stroke="#808080" points="158.99,-44.57 165.48,-36.19 155.18,-38.69 158.99,-44.57"/>
</g>
<!-- examples/remote&#45;state/apples -->
<g id="node3" class="node">
<title>examples/remote&#45;state/apples</title>
<polygon fill="#c0c0c0" stroke="#404040" points="287.5,-180 60.5,-180 56.5,-176 56.5,-144 283.5,-144 287.5,-148 287.5,-180"/>
<polyline fill="none" stroke="#404040" points="283.5,-176 56.5,-176 "/>
<polyline fill="none" stroke="#404040" points="283.5,-176 283.5,-144 "/>
<polyline fill="none" stroke="#404040" points="283.5,-176 287.5,-180 "/>
<text text-anchor="middle" x="172" y="-158.3" font-family="Times,serif" font-size="14.00">examples/remote&#45;state/apples</text>
</g>
<!-- examples/remote&#45;state/states -->
<g id="node4" class="node">
<title>examples/remote&#45;state/states</title>
<polygon fill="#c0c0c0" stroke="#404040" points="414,-108 190,-108 186,-104 186,-72 410,-72 414,-76 414,-108"/>
<polyline fill="none" stroke="#404040" points="410,-104 186,-104 "/>
<polyline fill="none" stroke="#404040" points="410,-104 410,-72 "/>
<polyline fill="none" stroke="#404040" points="410,-104 414,-108 "/>
<text text-anchor="middle" x="300" y="-86.3" font-family="Times,serif" font-size="14.00">examples/remote&#45;state/states</text>
</g>
<!-- examples/remote&#45;state/apples&#45;&gt;examples/remote&#45;state/states -->
<g id="edge2" class="edge">
<title>examples/remote&#45;state/apples&#45;&gt;examples/remote&#45;state/states</title>
<path fill="none" stroke="#808080" d="M203.31,-143.88C220.2,-134.64 241.25,-123.13 259.38,-113.21"/>
<polygon fill="#808080" stroke="#808080" points="261.47,-116.06 268.57,-108.19 258.11,-109.92 261.47,-116.06"/>
</g>
<!-- examples/remote&#45;state/states&#45;&gt;terragrunt.hcl -->
<g id="edge4" class="edge">
<title>examples/remote&#45;state/states&#45;&gt;terragrunt.hcl</title>
<path fill="none" stroke="#808080" d="M273.58,-71.88C259.59,-62.81 242.22,-51.55 227.11,-41.76"/>
<polygon fill="#808080" stroke="#808080" points="228.82,-38.69 218.52,-36.19 225.01,-44.57 228.82,-38.69"/>
</g>
<!-- examples/remote&#45;state/oranges -->
<g id="node5" class="node">
<title>examples/remote&#45;state/oranges</title>
<polygon fill="#c0c0c0" stroke="#404040" points="548,-180 310,-180 306,-176 306,-144 544,-144 548,-148 548,-180"/>
<polyline fill="none" stroke="#404040" points="544,-176 306,-176 "/>
<polyline fill="none" stroke="#404040" points="544,-176 544,-144 "/>
<polyline fill="none" stroke="#404040" points="544,-176 548,-180 "/>
<text text-anchor="middle" x="427" y="-158.3" font-family="Times,serif" font-size="14.00">examples/remote&#45;state/oranges</text>
</g>
<!-- examples/remote&#45;state/oranges&#45;&gt;examples/remote&#45;state/states -->
<g id="edge3" class="edge">
<title>examples/remote&#45;state/oranges&#45;&gt;examples/remote&#45;state/states</title>
<path fill="none" stroke="#808080" d="M395.93,-143.88C379.17,-134.64 358.29,-123.13 340.3,-113.21"/>
<polygon fill="#808080" stroke="#808080" points="341.63,-109.95 331.19,-108.19 338.26,-116.08 341.63,-109.95"/>
</g>
</g>
</svg>
