<?xml version="1.0" encoding="UTF-8" standalone="no"?>
<!DOCTYPE svg PUBLIC "-//W3C//DTD SVG 1.1//EN"
 "http://www.w3.org/Graphics/SVG/1.1/DTD/svg11.dtd">
<!-- Generated by graphviz version 2.43.0 (0)
 -->
<!-- Title: %3 Pages: 1 -->
<svg width="2925pt" height="476pt"
 viewBox="0.00 0.00 2924.83 476.00" xmlns="http://www.w3.org/2000/svg" xmlns:xlink="http://www.w3.org/1999/xlink">
<g id="graph0" class="graph" transform="scale(1 1) rotate(0) translate(4 472)">
<title>%3</title>
<polygon fill="transparent" stroke="transparent" points="-4,4 -4,-472 2920.83,-472 2920.83,4 -4,4"/>
<!-- terragrunt.hcl -->
<g id="node1" class="node">
<title>terragrunt.hcl</title>
<polygon fill="#4179ea" stroke="#5754dd" points="1538,-36 1426,-36 1426,0 1544,0 1544,-30 1538,-36"/>
<polyline fill="none" stroke="#5754dd" points="1538,-36 1538,-30 "/>
<polyline fill="none" stroke="#5754dd" points="1544,-30 1538,-30 "/>
<text text-anchor="middle" x="1485" y="-14.3" font-family="Times,serif" font-size="14.00" fill="#c9d1d8">terragrunt.hcl</text>
</g>
<!-- aws/poc/management/boot/organizations/root -->
<g id="node2" class="node">
<title>aws/poc/management/boot/organizations/root</title>
<polygon fill="#4447cc" stroke="#5754dd" points="1457,-108 1119,-108 1115,-104 1115,-72 1453,-72 1457,-76 1457,-108"/>
<polyline fill="none" stroke="#5754dd" points="1453,-104 1115,-104 "/>
<polyline fill="none" stroke="#5754dd" points="1453,-104 1453,-72 "/>
<polyline fill="none" stroke="#5754dd" points="1453,-104 1457,-108 "/>
<text text-anchor="middle" x="1286" y="-86.3" font-family="Times,serif" font-size="14.00" fill="#c9d1d8">aws/poc/management/boot/organizations/root</text>
</g>
<!-- aws/poc/management/boot/organizations/root&#45;&gt;terragrunt.hcl -->
<g id="edge1" class="edge">
<title>aws/poc/management/boot/organizations/root&#45;&gt;terragrunt.hcl</title>
<path fill="none" stroke="#4ba8f1" d="M1334.43,-71.97C1362.23,-62.19 1397.34,-49.84 1426.65,-39.52"/>
<polygon fill="#4ba8f1" stroke="#4ba8f1" points="1428.08,-42.73 1436.36,-36.11 1425.76,-36.13 1428.08,-42.73"/>
</g>
<!-- aws/poc/management/boot/organizations/units/workloads -->
<g id="node3" class="node">
<title>aws/poc/management/boot/organizations/units/workloads</title>
<polygon fill="#4447cc" stroke="#5754dd" points="1303,-180 881,-180 877,-176 877,-144 1299,-144 1303,-148 1303,-180"/>
<polyline fill="none" stroke="#5754dd" points="1299,-176 877,-176 "/>
<polyline fill="none" stroke="#5754dd" points="1299,-176 1299,-144 "/>
<polyline fill="none" stroke="#5754dd" points="1299,-176 1303,-180 "/>
<text text-anchor="middle" x="1090" y="-158.3" font-family="Times,serif" font-size="14.00" fill="#c9d1d8">aws/poc/management/boot/organizations/units/workloads</text>
</g>
<!-- aws/poc/management/boot/organizations/units/workloads&#45;&gt;terragrunt.hcl -->
<g id="edge2" class="edge">
<title>aws/poc/management/boot/organizations/units/workloads&#45;&gt;terragrunt.hcl</title>
<path fill="none" stroke="#4ba8f1" d="M1087.69,-143.88C1086.02,-123.68 1086.76,-90.5 1106,-72 1149.07,-30.58 1318.74,-21.2 1415.83,-19.28"/>
<polygon fill="#4ba8f1" stroke="#4ba8f1" points="1415.92,-22.78 1425.86,-19.11 1415.8,-15.78 1415.92,-22.78"/>
</g>
<!-- aws/poc/management/boot/organizations/units/workloads&#45;&gt;aws/poc/management/boot/organizations/root -->
<g id="edge3" class="edge">
<title>aws/poc/management/boot/organizations/units/workloads&#45;&gt;aws/poc/management/boot/organizations/root</title>
<path fill="none" stroke="#4ba8f1" d="M1137.7,-143.97C1165.08,-134.19 1199.66,-121.84 1228.53,-111.52"/>
<polygon fill="#4ba8f1" stroke="#4ba8f1" points="1229.85,-114.77 1238.09,-108.11 1227.5,-108.18 1229.85,-114.77"/>
</g>
<!-- aws/poc/management/boot/terraform&#45;state -->
<g id="node4" class="node">
<title>aws/poc/management/boot/terraform&#45;state</title>
<polygon fill="#4447cc" stroke="#5754dd" points="1646,-180 1328,-180 1324,-176 1324,-144 1642,-144 1646,-148 1646,-180"/>
<polyline fill="none" stroke="#5754dd" points="1642,-176 1324,-176 "/>
<polyline fill="none" stroke="#5754dd" points="1642,-176 1642,-144 "/>
<polyline fill="none" stroke="#5754dd" points="1642,-176 1646,-180 "/>
<text text-anchor="middle" x="1485" y="-158.3" font-family="Times,serif" font-size="14.00" fill="#c9d1d8">aws/poc/management/boot/terraform&#45;state</text>
</g>
<!-- aws/poc/management/boot/terraform&#45;state&#45;&gt;terragrunt.hcl -->
<g id="edge4" class="edge">
<title>aws/poc/management/boot/terraform&#45;state&#45;&gt;terragrunt.hcl</title>
<path fill="none" stroke="#4ba8f1" d="M1485,-143.87C1485,-119.67 1485,-75.21 1485,-46.39"/>
<polygon fill="#4ba8f1" stroke="#4ba8f1" points="1488.5,-46.19 1485,-36.19 1481.5,-46.19 1488.5,-46.19"/>
</g>
<!-- aws/poc/management/dev/organizations/accounts/workload&#45;example&#45;dev -->
<g id="node5" class="node">
<title>aws/poc/management/dev/organizations/accounts/workload&#45;example&#45;dev</title>
<polygon fill="#4447cc" stroke="#5754dd" points="1882,-324 1352,-324 1348,-320 1348,-288 1878,-288 1882,-292 1882,-324"/>
<polyline fill="none" stroke="#5754dd" points="1878,-320 1348,-320 "/>
<polyline fill="none" stroke="#5754dd" points="1878,-320 1878,-288 "/>
<polyline fill="none" stroke="#5754dd" points="1878,-320 1882,-324 "/>
<text text-anchor="middle" x="1615" y="-302.3" font-family="Times,serif" font-size="14.00" fill="#c9d1d8">aws/poc/management/dev/organizations/accounts/workload&#45;example&#45;dev</text>
</g>
<!-- aws/poc/management/dev/organizations/accounts/workload&#45;example&#45;dev&#45;&gt;aws/poc/management/boot/terraform&#45;state -->
<g id="edge5" class="edge">
<title>aws/poc/management/dev/organizations/accounts/workload&#45;example&#45;dev&#45;&gt;aws/poc/management/boot/terraform&#45;state</title>
<path fill="none" stroke="#4ba8f1" d="M1785.38,-287.98C1843.09,-275.43 1885.64,-253.68 1853,-216 1845.75,-207.64 1740.65,-193.02 1644.63,-181.26"/>
<polygon fill="#4ba8f1" stroke="#4ba8f1" points="1644.82,-177.75 1634.47,-180.02 1643.97,-184.7 1644.82,-177.75"/>
</g>
<!-- aws/poc/management/dev/organizations/units/workloads&#45;dev -->
<g id="node6" class="node">
<title>aws/poc/management/dev/organizations/units/workloads&#45;dev</title>
<polygon fill="#4447cc" stroke="#5754dd" points="1315,-252 869,-252 865,-248 865,-216 1311,-216 1315,-220 1315,-252"/>
<polyline fill="none" stroke="#5754dd" points="1311,-248 865,-248 "/>
<polyline fill="none" stroke="#5754dd" points="1311,-248 1311,-216 "/>
<polyline fill="none" stroke="#5754dd" points="1311,-248 1315,-252 "/>
<text text-anchor="middle" x="1090" y="-230.3" font-family="Times,serif" font-size="14.00" fill="#c9d1d8">aws/poc/management/dev/organizations/units/workloads&#45;dev</text>
</g>
<!-- aws/poc/management/dev/organizations/accounts/workload&#45;example&#45;dev&#45;&gt;aws/poc/management/dev/organizations/units/workloads&#45;dev -->
<g id="edge6" class="edge">
<title>aws/poc/management/dev/organizations/accounts/workload&#45;example&#45;dev&#45;&gt;aws/poc/management/dev/organizations/units/workloads&#45;dev</title>
<path fill="none" stroke="#4ba8f1" d="M1487.24,-287.97C1408.8,-277.51 1308.33,-264.11 1228.06,-253.41"/>
<polygon fill="#4ba8f1" stroke="#4ba8f1" points="1228.25,-249.9 1217.88,-252.05 1227.33,-256.84 1228.25,-249.9"/>
</g>
<!-- aws/poc/management/dev/organizations/units/workloads&#45;dev&#45;&gt;aws/poc/management/boot/organizations/units/workloads -->
<g id="edge8" class="edge">
<title>aws/poc/management/dev/organizations/units/workloads&#45;dev&#45;&gt;aws/poc/management/boot/organizations/units/workloads</title>
<path fill="none" stroke="#4ba8f1" d="M1090,-215.7C1090,-207.98 1090,-198.71 1090,-190.11"/>
<polygon fill="#4ba8f1" stroke="#4ba8f1" points="1093.5,-190.1 1090,-180.1 1086.5,-190.1 1093.5,-190.1"/>
</g>
<!-- aws/poc/management/dev/organizations/units/workloads&#45;dev&#45;&gt;aws/poc/management/boot/terraform&#45;state -->
<g id="edge7" class="edge">
<title>aws/poc/management/dev/organizations/units/workloads&#45;dev&#45;&gt;aws/poc/management/boot/terraform&#45;state</title>
<path fill="none" stroke="#4ba8f1" d="M1186.12,-215.97C1244.42,-205.63 1318.89,-192.44 1378.91,-181.8"/>
<polygon fill="#4ba8f1" stroke="#4ba8f1" points="1379.55,-185.24 1388.79,-180.05 1378.33,-178.35 1379.55,-185.24"/>
</g>
<!-- aws/poc/management/prod/iam/access -->
<g id="node7" class="node">
<title>aws/poc/management/prod/iam/access</title>
<polygon fill="#4447cc" stroke="#5754dd" points="1456,-396 1170,-396 1166,-392 1166,-360 1452,-360 1456,-364 1456,-396"/>
<polyline fill="none" stroke="#5754dd" points="1452,-392 1166,-392 "/>
<polyline fill="none" stroke="#5754dd" points="1452,-392 1452,-360 "/>
<polyline fill="none" stroke="#5754dd" points="1452,-392 1456,-396 "/>
<text text-anchor="middle" x="1311" y="-374.3" font-family="Times,serif" font-size="14.00" fill="#c9d1d8">aws/poc/management/prod/iam/access</text>
</g>
<!-- aws/poc/management/prod/iam/access&#45;&gt;aws/poc/management/boot/terraform&#45;state -->
<g id="edge9" class="edge">
<title>aws/poc/management/prod/iam/access&#45;&gt;aws/poc/management/boot/terraform&#45;state</title>
<path fill="none" stroke="#4ba8f1" d="M1308.61,-359.9C1310.85,-327.42 1328.47,-256.45 1371,-216 1384.67,-203 1402.15,-192.48 1419.33,-184.34"/>
<polygon fill="#4ba8f1" stroke="#4ba8f1" points="1421.14,-187.37 1428.82,-180.07 1418.27,-180.98 1421.14,-187.37"/>
</g>
<!-- aws/poc/management/prod/iam/access&#45;&gt;aws/poc/management/boot/terraform&#45;state -->
<g id="edge10" class="edge">
<title>aws/poc/management/prod/iam/access&#45;&gt;aws/poc/management/boot/terraform&#45;state</title>
<path fill="none" stroke="#4ba8f1" d="M1318.9,-359.9C1328.85,-327.42 1346.47,-256.45 1389,-216 1402.54,-203.12 1419.83,-192.67 1436.03,-184.57"/>
<polygon fill="#4ba8f1" stroke="#4ba8f1" points="1437.91,-187.55 1445.41,-180.07 1434.88,-181.24 1437.91,-187.55"/>
</g>
<!-- aws/poc/management/prod/iam/access&#45;&gt;aws/poc/management/dev/organizations/accounts/workload&#45;example&#45;dev -->
<g id="edge11" class="edge">
<title>aws/poc/management/prod/iam/access&#45;&gt;aws/poc/management/dev/organizations/accounts/workload&#45;example&#45;dev</title>
<path fill="none" stroke="#4ba8f1" d="M1384.98,-359.97C1429.11,-349.8 1485.27,-336.87 1531.05,-326.33"/>
<polygon fill="#4ba8f1" stroke="#4ba8f1" points="1531.99,-329.7 1540.95,-324.05 1530.42,-322.88 1531.99,-329.7"/>
</g>
<!-- aws/poc/management/test/organizations/accounts/workload&#45;example&#45;test -->
<g id="node8" class="node">
<title>aws/poc/management/test/organizations/accounts/workload&#45;example&#45;test</title>
<polygon fill="#4447cc" stroke="#5754dd" points="2477.5,-324 1942.5,-324 1938.5,-320 1938.5,-288 2473.5,-288 2477.5,-292 2477.5,-324"/>
<polyline fill="none" stroke="#5754dd" points="2473.5,-320 1938.5,-320 "/>
<polyline fill="none" stroke="#5754dd" points="2473.5,-320 2473.5,-288 "/>
<polyline fill="none" stroke="#5754dd" points="2473.5,-320 2477.5,-324 "/>
<text text-anchor="middle" x="2208" y="-302.3" font-family="Times,serif" font-size="14.00" fill="#c9d1d8">aws/poc/management/test/organizations/accounts/workload&#45;example&#45;test</text>
</g>
<!-- aws/poc/management/prod/iam/access&#45;&gt;aws/poc/management/test/organizations/accounts/workload&#45;example&#45;test -->
<g id="edge12" class="edge">
<title>aws/poc/management/prod/iam/access&#45;&gt;aws/poc/management/test/organizations/accounts/workload&#45;example&#45;test</title>
<path fill="none" stroke="#4ba8f1" d="M1456.07,-360.83C1459.08,-360.54 1462.05,-360.27 1465,-360 1617.82,-346.12 1788.59,-333.72 1927.85,-324.41"/>
<polygon fill="#4ba8f1" stroke="#4ba8f1" points="1928.5,-327.88 1938.24,-323.72 1928.03,-320.89 1928.5,-327.88"/>
</g>
<!-- aws/poc/management/prod/organizations/accounts/workload&#45;example&#45;prod -->
<g id="node9" class="node">
<title>aws/poc/management/prod/organizations/accounts/workload&#45;example&#45;prod</title>
<polygon fill="#4447cc" stroke="#5754dd" points="810.5,-324 265.5,-324 261.5,-320 261.5,-288 806.5,-288 810.5,-292 810.5,-324"/>
<polyline fill="none" stroke="#5754dd" points="806.5,-320 261.5,-320 "/>
<polyline fill="none" stroke="#5754dd" points="806.5,-320 806.5,-288 "/>
<polyline fill="none" stroke="#5754dd" points="806.5,-320 810.5,-324 "/>
<text text-anchor="middle" x="536" y="-302.3" font-family="Times,serif" font-size="14.00" fill="#c9d1d8">aws/poc/management/prod/organizations/accounts/workload&#45;example&#45;prod</text>
</g>
<!-- aws/poc/management/prod/iam/access&#45;&gt;aws/poc/management/prod/organizations/accounts/workload&#45;example&#45;prod -->
<g id="edge13" class="edge">
<title>aws/poc/management/prod/iam/access&#45;&gt;aws/poc/management/prod/organizations/accounts/workload&#45;example&#45;prod</title>
<path fill="none" stroke="#4ba8f1" d="M1165.68,-363.87C1043.93,-352.88 868.92,-337.07 734.3,-324.91"/>
<polygon fill="#4ba8f1" stroke="#4ba8f1" points="734.54,-321.42 724.27,-324 733.91,-328.39 734.54,-321.42"/>
</g>
<!-- aws/poc/management/test/organizations/accounts/workload&#45;example&#45;test&#45;&gt;aws/poc/management/boot/terraform&#45;state -->
<g id="edge20" class="edge">
<title>aws/poc/management/test/organizations/accounts/workload&#45;example&#45;test&#45;&gt;aws/poc/management/boot/terraform&#45;state</title>
<path fill="none" stroke="#4ba8f1" d="M2162.46,-287.87C2106.93,-267.66 2009.87,-234.48 1924,-216 1873.93,-205.23 1756.79,-191.29 1656.1,-180.41"/>
<polygon fill="#4ba8f1" stroke="#4ba8f1" points="1656.42,-176.92 1646.1,-179.33 1655.67,-183.88 1656.42,-176.92"/>
</g>
<!-- aws/poc/management/test/organizations/units/workloads&#45;test -->
<g id="node12" class="node">
<title>aws/poc/management/test/organizations/units/workloads&#45;test</title>
<polygon fill="#4447cc" stroke="#5754dd" points="1844.5,-252 1393.5,-252 1389.5,-248 1389.5,-216 1840.5,-216 1844.5,-220 1844.5,-252"/>
<polyline fill="none" stroke="#5754dd" points="1840.5,-248 1389.5,-248 "/>
<polyline fill="none" stroke="#5754dd" points="1840.5,-248 1840.5,-216 "/>
<polyline fill="none" stroke="#5754dd" points="1840.5,-248 1844.5,-252 "/>
<text text-anchor="middle" x="1617" y="-230.3" font-family="Times,serif" font-size="14.00" fill="#c9d1d8">aws/poc/management/test/organizations/units/workloads&#45;test</text>
</g>
<!-- aws/poc/management/test/organizations/accounts/workload&#45;example&#45;test&#45;&gt;aws/poc/management/test/organizations/units/workloads&#45;test -->
<g id="edge21" class="edge">
<title>aws/poc/management/test/organizations/accounts/workload&#45;example&#45;test&#45;&gt;aws/poc/management/test/organizations/units/workloads&#45;test</title>
<path fill="none" stroke="#4ba8f1" d="M2064.18,-287.97C1975.34,-277.44 1861.41,-263.95 1770.79,-253.21"/>
<polygon fill="#4ba8f1" stroke="#4ba8f1" points="1771.04,-249.72 1760.69,-252.02 1770.21,-256.67 1771.04,-249.72"/>
</g>
<!-- aws/poc/management/prod/organizations/accounts/workload&#45;example&#45;prod&#45;&gt;aws/poc/management/boot/terraform&#45;state -->
<g id="edge16" class="edge">
<title>aws/poc/management/prod/organizations/accounts/workload&#45;example&#45;prod&#45;&gt;aws/poc/management/boot/terraform&#45;state</title>
<path fill="none" stroke="#4ba8f1" d="M667.77,-287.98C704.94,-280.1 744.59,-268.63 779,-252 801.75,-241 799.53,-225.36 823,-216 924.2,-175.62 1203.44,-189.33 1312,-180 1312.61,-179.95 1313.22,-179.89 1313.84,-179.84"/>
<polygon fill="#4ba8f1" stroke="#4ba8f1" points="1314.2,-183.32 1323.86,-178.97 1313.59,-176.35 1314.2,-183.32"/>
</g>
<!-- aws/poc/management/prod/organizations/units/workloads&#45;prod -->
<g id="node11" class="node">
<title>aws/poc/management/prod/organizations/units/workloads&#45;prod</title>
<polygon fill="#4447cc" stroke="#5754dd" points="770.5,-252 309.5,-252 305.5,-248 305.5,-216 766.5,-216 770.5,-220 770.5,-252"/>
<polyline fill="none" stroke="#5754dd" points="766.5,-248 305.5,-248 "/>
<polyline fill="none" stroke="#5754dd" points="766.5,-248 766.5,-216 "/>
<polyline fill="none" stroke="#5754dd" points="766.5,-248 770.5,-252 "/>
<text text-anchor="middle" x="538" y="-230.3" font-family="Times,serif" font-size="14.00" fill="#c9d1d8">aws/poc/management/prod/organizations/units/workloads&#45;prod</text>
</g>
<!-- aws/poc/management/prod/organizations/accounts/workload&#45;example&#45;prod&#45;&gt;aws/poc/management/prod/organizations/units/workloads&#45;prod -->
<g id="edge17" class="edge">
<title>aws/poc/management/prod/organizations/accounts/workload&#45;example&#45;prod&#45;&gt;aws/poc/management/prod/organizations/units/workloads&#45;prod</title>
<path fill="none" stroke="#4ba8f1" d="M536.49,-287.7C536.71,-279.98 536.98,-270.71 537.23,-262.11"/>
<polygon fill="#4ba8f1" stroke="#4ba8f1" points="540.72,-262.2 537.51,-252.1 533.73,-262 540.72,-262.2"/>
</g>
<!-- aws/poc/management/prod/iam/identity -->
<g id="node10" class="node">
<title>aws/poc/management/prod/iam/identity</title>
<polygon fill="#4447cc" stroke="#5754dd" points="2268.5,-468 1973.5,-468 1969.5,-464 1969.5,-432 2264.5,-432 2268.5,-436 2268.5,-468"/>
<polyline fill="none" stroke="#5754dd" points="2264.5,-464 1969.5,-464 "/>
<polyline fill="none" stroke="#5754dd" points="2264.5,-464 2264.5,-432 "/>
<polyline fill="none" stroke="#5754dd" points="2264.5,-464 2268.5,-468 "/>
<text text-anchor="middle" x="2119" y="-446.3" font-family="Times,serif" font-size="14.00" fill="#c9d1d8">aws/poc/management/prod/iam/identity</text>
</g>
<!-- aws/poc/management/prod/iam/identity&#45;&gt;aws/poc/management/boot/terraform&#45;state -->
<g id="edge14" class="edge">
<title>aws/poc/management/prod/iam/identity&#45;&gt;aws/poc/management/boot/terraform&#45;state</title>
<path fill="none" stroke="#4ba8f1" d="M2268.61,-449.72C2485.53,-449.19 2866.31,-441.65 2909,-396 2919.93,-384.31 2918.76,-372.68 2909,-360 2739.61,-139.84 1949.08,-199.77 1672,-180 1666.85,-179.63 1661.62,-179.25 1656.34,-178.84"/>
<polygon fill="#4ba8f1" stroke="#4ba8f1" points="1656.37,-175.33 1646.13,-178.05 1655.83,-182.31 1656.37,-175.33"/>
</g>
<!-- aws/poc/management/prod/iam/identity&#45;&gt;aws/poc/management/prod/iam/access -->
<g id="edge15" class="edge">
<title>aws/poc/management/prod/iam/identity&#45;&gt;aws/poc/management/prod/iam/access</title>
<path fill="none" stroke="#4ba8f1" d="M1969.21,-438.11C1839.04,-428.35 1645.14,-413.11 1466.21,-396.1"/>
<polygon fill="#4ba8f1" stroke="#4ba8f1" points="1466.37,-392.6 1456.08,-395.13 1465.7,-399.57 1466.37,-392.6"/>
</g>
<!-- aws/poc/management/prod/organizations/units/workloads&#45;prod&#45;&gt;aws/poc/management/boot/organizations/units/workloads -->
<g id="edge19" class="edge">
<title>aws/poc/management/prod/organizations/units/workloads&#45;prod&#45;&gt;aws/poc/management/boot/organizations/units/workloads</title>
<path fill="none" stroke="#4ba8f1" d="M672.33,-215.97C755.06,-205.47 861.09,-192.03 945.61,-181.31"/>
<polygon fill="#4ba8f1" stroke="#4ba8f1" points="946.07,-184.78 955.55,-180.05 945.19,-177.84 946.07,-184.78"/>
</g>
<!-- aws/poc/management/prod/organizations/units/workloads&#45;prod&#45;&gt;aws/poc/management/boot/terraform&#45;state -->
<g id="edge18" class="edge">
<title>aws/poc/management/prod/organizations/units/workloads&#45;prod&#45;&gt;aws/poc/management/boot/terraform&#45;state</title>
<path fill="none" stroke="#4ba8f1" d="M770.71,-216.98C775.52,-216.65 780.28,-216.32 785,-216 1019.22,-199.94 1078.04,-199.48 1312,-180 1312.61,-179.95 1313.22,-179.9 1313.84,-179.85"/>
<polygon fill="#4ba8f1" stroke="#4ba8f1" points="1314.19,-183.33 1323.86,-178.99 1313.6,-176.35 1314.19,-183.33"/>
</g>
<!-- aws/poc/management/test/organizations/units/workloads&#45;test&#45;&gt;aws/poc/management/boot/organizations/units/workloads -->
<g id="edge23" class="edge">
<title>aws/poc/management/test/organizations/units/workloads&#45;test&#45;&gt;aws/poc/management/boot/organizations/units/workloads</title>
<path fill="none" stroke="#4ba8f1" d="M1488.76,-215.97C1410.01,-205.51 1309.16,-192.11 1228.59,-181.41"/>
<polygon fill="#4ba8f1" stroke="#4ba8f1" points="1228.74,-177.9 1218.36,-180.05 1227.81,-184.84 1228.74,-177.9"/>
</g>
<!-- aws/poc/management/test/organizations/units/workloads&#45;test&#45;&gt;aws/poc/management/boot/terraform&#45;state -->
<g id="edge22" class="edge">
<title>aws/poc/management/test/organizations/units/workloads&#45;test&#45;&gt;aws/poc/management/boot/terraform&#45;state</title>
<path fill="none" stroke="#4ba8f1" d="M1584.71,-215.88C1567.13,-206.55 1545.19,-194.92 1526.37,-184.94"/>
<polygon fill="#4ba8f1" stroke="#4ba8f1" points="1527.89,-181.78 1517.41,-180.19 1524.61,-187.97 1527.89,-181.78"/>
</g>
<!-- aws/poc/workloads/dev/workload&#45;example&#45;dev/website -->
<g id="node13" class="node">
<title>aws/poc/workloads/dev/workload&#45;example&#45;dev/website</title>
<polygon fill="#4447cc" stroke="#5754dd" points="1879.5,-396 1478.5,-396 1474.5,-392 1474.5,-360 1875.5,-360 1879.5,-364 1879.5,-396"/>
<polyline fill="none" stroke="#5754dd" points="1875.5,-392 1474.5,-392 "/>
<polyline fill="none" stroke="#5754dd" points="1875.5,-392 1875.5,-360 "/>
<polyline fill="none" stroke="#5754dd" points="1875.5,-392 1879.5,-396 "/>
<text text-anchor="middle" x="1677" y="-374.3" font-family="Times,serif" font-size="14.00" fill="#c9d1d8">aws/poc/workloads/dev/workload&#45;example&#45;dev/website</text>
</g>
<!-- aws/poc/workloads/dev/workload&#45;example&#45;dev/website&#45;&gt;aws/poc/management/boot/terraform&#45;state -->
<g id="edge24" class="edge">
<title>aws/poc/workloads/dev/workload&#45;example&#45;dev/website&#45;&gt;aws/poc/management/boot/terraform&#45;state</title>
<path fill="none" stroke="#4ba8f1" d="M1799.6,-359.95C1840.39,-351.58 1878.62,-339.82 1891,-324 1909.4,-300.49 1880.64,-223.64 1872,-216 1863.18,-208.19 1749.85,-193.24 1648.1,-181.2"/>
<polygon fill="#4ba8f1" stroke="#4ba8f1" points="1648.32,-177.7 1637.97,-180.01 1647.5,-184.65 1648.32,-177.7"/>
</g>
<!-- aws/poc/workloads/dev/workload&#45;example&#45;dev/website&#45;&gt;aws/poc/management/dev/organizations/accounts/workload&#45;example&#45;dev -->
<g id="edge25" class="edge">
<title>aws/poc/workloads/dev/workload&#45;example&#45;dev/website&#45;&gt;aws/poc/management/dev/organizations/accounts/workload&#45;example&#45;dev</title>
<path fill="none" stroke="#4ba8f1" d="M1661.67,-359.7C1654.24,-351.3 1645.18,-341.07 1637.02,-331.86"/>
<polygon fill="#4ba8f1" stroke="#4ba8f1" points="1639.4,-329.27 1630.15,-324.1 1634.16,-333.91 1639.4,-329.27"/>
</g>
<!-- aws/poc/workloads/prod/workload&#45;example&#45;prod/eu&#45;central&#45;1/website -->
<g id="node14" class="node">
<title>aws/poc/workloads/prod/workload&#45;example&#45;prod/eu&#45;central&#45;1/website</title>
<polygon fill="#4447cc" stroke="#5754dd" points="510,-396 4,-396 0,-392 0,-360 506,-360 510,-364 510,-396"/>
<polyline fill="none" stroke="#5754dd" points="506,-392 0,-392 "/>
<polyline fill="none" stroke="#5754dd" points="506,-392 506,-360 "/>
<polyline fill="none" stroke="#5754dd" points="506,-392 510,-396 "/>
<text text-anchor="middle" x="255" y="-374.3" font-family="Times,serif" font-size="14.00" fill="#c9d1d8">aws/poc/workloads/prod/workload&#45;example&#45;prod/eu&#45;central&#45;1/website</text>
</g>
<!-- aws/poc/workloads/prod/workload&#45;example&#45;prod/eu&#45;central&#45;1/website&#45;&gt;aws/poc/management/boot/terraform&#45;state -->
<g id="edge26" class="edge">
<title>aws/poc/workloads/prod/workload&#45;example&#45;prod/eu&#45;central&#45;1/website&#45;&gt;aws/poc/management/boot/terraform&#45;state</title>
<path fill="none" stroke="#4ba8f1" d="M253.78,-359.82C253.11,-349.46 252.34,-335.98 252,-324 251.55,-308.01 247.67,-303.4 252,-288 262.16,-251.9 263.62,-234.92 296,-216 344.76,-187.5 1255.65,-183.76 1312,-180 1312.61,-179.96 1313.22,-179.92 1313.84,-179.88"/>
<polygon fill="#4ba8f1" stroke="#4ba8f1" points="1314.15,-183.36 1323.87,-179.17 1313.65,-176.38 1314.15,-183.36"/>
</g>
<!-- aws/poc/workloads/prod/workload&#45;example&#45;prod/eu&#45;central&#45;1/website&#45;&gt;aws/poc/management/prod/organizations/accounts/workload&#45;example&#45;prod -->
<g id="edge27" class="edge">
<title>aws/poc/workloads/prod/workload&#45;example&#45;prod/eu&#45;central&#45;1/website&#45;&gt;aws/poc/management/prod/organizations/accounts/workload&#45;example&#45;prod</title>
<path fill="none" stroke="#4ba8f1" d="M323.38,-359.97C363.84,-349.89 415.24,-337.08 457.37,-326.59"/>
<polygon fill="#4ba8f1" stroke="#4ba8f1" points="458.45,-329.92 467.31,-324.11 456.76,-323.13 458.45,-329.92"/>
</g>
<!-- aws/poc/workloads/prod/workload&#45;example&#45;prod/eu&#45;west&#45;3/website -->
<g id="node15" class="node">
<title>aws/poc/workloads/prod/workload&#45;example&#45;prod/eu&#45;west&#45;3/website</title>
<polygon fill="#4447cc" stroke="#5754dd" points="1065,-396 575,-396 571,-392 571,-360 1061,-360 1065,-364 1065,-396"/>
<polyline fill="none" stroke="#5754dd" points="1061,-392 571,-392 "/>
<polyline fill="none" stroke="#5754dd" points="1061,-392 1061,-360 "/>
<polyline fill="none" stroke="#5754dd" points="1061,-392 1065,-396 "/>
<text text-anchor="middle" x="818" y="-374.3" font-family="Times,serif" font-size="14.00" fill="#c9d1d8">aws/poc/workloads/prod/workload&#45;example&#45;prod/eu&#45;west&#45;3/website</text>
</g>
<!-- aws/poc/workloads/prod/workload&#45;example&#45;prod/eu&#45;west&#45;3/website&#45;&gt;aws/poc/management/boot/terraform&#45;state -->
<g id="edge28" class="edge">
<title>aws/poc/workloads/prod/workload&#45;example&#45;prod/eu&#45;west&#45;3/website&#45;&gt;aws/poc/management/boot/terraform&#45;state</title>
<path fill="none" stroke="#4ba8f1" d="M819.53,-359.94C823.27,-322.45 834.2,-234.7 856,-216 894.58,-182.91 1261.37,-184.49 1312,-180 1312.61,-179.95 1313.22,-179.89 1313.84,-179.84"/>
<polygon fill="#4ba8f1" stroke="#4ba8f1" points="1314.21,-183.32 1323.86,-178.94 1313.58,-176.35 1314.21,-183.32"/>
</g>
<!-- aws/poc/workloads/prod/workload&#45;example&#45;prod/eu&#45;west&#45;3/website&#45;&gt;aws/poc/management/prod/organizations/accounts/workload&#45;example&#45;prod -->
<g id="edge29" class="edge">
<title>aws/poc/workloads/prod/workload&#45;example&#45;prod/eu&#45;west&#45;3/website&#45;&gt;aws/poc/management/prod/organizations/accounts/workload&#45;example&#45;prod</title>
<path fill="none" stroke="#4ba8f1" d="M749.38,-359.97C708.69,-349.87 656.97,-337.03 614.64,-326.52"/>
<polygon fill="#4ba8f1" stroke="#4ba8f1" points="615.48,-323.12 604.93,-324.11 613.79,-329.92 615.48,-323.12"/>
</g>
<!-- aws/poc/workloads/test/workload&#45;example&#45;test/eu&#45;central&#45;1/website -->
<g id="node16" class="node">
<title>aws/poc/workloads/test/workload&#45;example&#45;test/eu&#45;central&#45;1/website</title>
<polygon fill="#4447cc" stroke="#5754dd" points="2398,-396 1902,-396 1898,-392 1898,-360 2394,-360 2398,-364 2398,-396"/>
<polyline fill="none" stroke="#5754dd" points="2394,-392 1898,-392 "/>
<polyline fill="none" stroke="#5754dd" points="2394,-392 2394,-360 "/>
<polyline fill="none" stroke="#5754dd" points="2394,-392 2398,-396 "/>
<text text-anchor="middle" x="2148" y="-374.3" font-family="Times,serif" font-size="14.00" fill="#c9d1d8">aws/poc/workloads/test/workload&#45;example&#45;test/eu&#45;central&#45;1/website</text>
</g>
<!-- aws/poc/workloads/test/workload&#45;example&#45;test/eu&#45;central&#45;1/website&#45;&gt;aws/poc/management/boot/terraform&#45;state -->
<g id="edge30" class="edge">
<title>aws/poc/workloads/test/workload&#45;example&#45;test/eu&#45;central&#45;1/website&#45;&gt;aws/poc/management/boot/terraform&#45;state</title>
<path fill="none" stroke="#4ba8f1" d="M2397.51,-359.96C2438.76,-352.08 2472.77,-340.63 2487,-324 2497.4,-311.84 2497.45,-300.11 2487,-288 2344.36,-122.67 2217.66,-243.16 2001,-216 1886.32,-201.62 1756.94,-188.34 1656.41,-178.67"/>
<polygon fill="#4ba8f1" stroke="#4ba8f1" points="1656.45,-175.16 1646.16,-177.68 1655.78,-182.12 1656.45,-175.16"/>
</g>
<!-- aws/poc/workloads/test/workload&#45;example&#45;test/eu&#45;central&#45;1/website&#45;&gt;aws/poc/management/test/organizations/accounts/workload&#45;example&#45;test -->
<g id="edge31" class="edge">
<title>aws/poc/workloads/test/workload&#45;example&#45;test/eu&#45;central&#45;1/website&#45;&gt;aws/poc/management/test/organizations/accounts/workload&#45;example&#45;test</title>
<path fill="none" stroke="#4ba8f1" d="M2162.83,-359.7C2170.02,-351.3 2178.8,-341.07 2186.69,-331.86"/>
<polygon fill="#4ba8f1" stroke="#4ba8f1" points="2189.49,-333.97 2193.34,-324.1 2184.17,-329.42 2189.49,-333.97"/>
</g>
<!-- aws/poc/workloads/test/workload&#45;example&#45;test/eu&#45;west&#45;3/website -->
<g id="node17" class="node">
<title>aws/poc/workloads/test/workload&#45;example&#45;test/eu&#45;west&#45;3/website</title>
<polygon fill="#4447cc" stroke="#5754dd" points="2899.5,-396 2420.5,-396 2416.5,-392 2416.5,-360 2895.5,-360 2899.5,-364 2899.5,-396"/>
<polyline fill="none" stroke="#5754dd" points="2895.5,-392 2416.5,-392 "/>
<polyline fill="none" stroke="#5754dd" points="2895.5,-392 2895.5,-360 "/>
<polyline fill="none" stroke="#5754dd" points="2895.5,-392 2899.5,-396 "/>
<text text-anchor="middle" x="2658" y="-374.3" font-family="Times,serif" font-size="14.00" fill="#c9d1d8">aws/poc/workloads/test/workload&#45;example&#45;test/eu&#45;west&#45;3/website</text>
</g>
<!-- aws/poc/workloads/test/workload&#45;example&#45;test/eu&#45;west&#45;3/website&#45;&gt;aws/poc/management/boot/terraform&#45;state -->
<g id="edge32" class="edge">
<title>aws/poc/workloads/test/workload&#45;example&#45;test/eu&#45;west&#45;3/website&#45;&gt;aws/poc/management/boot/terraform&#45;state</title>
<path fill="none" stroke="#4ba8f1" d="M2633.16,-359.93C2603.55,-340.23 2552.03,-308.01 2504,-288 2159.78,-144.63 2043.77,-208.7 1672,-180 1666.85,-179.6 1661.62,-179.19 1656.34,-178.76"/>
<polygon fill="#4ba8f1" stroke="#4ba8f1" points="1656.39,-175.26 1646.14,-177.93 1655.82,-182.23 1656.39,-175.26"/>
</g>
<!-- aws/poc/workloads/test/workload&#45;example&#45;test/eu&#45;west&#45;3/website&#45;&gt;aws/poc/management/test/organizations/accounts/workload&#45;example&#45;test -->
<g id="edge33" class="edge">
<title>aws/poc/workloads/test/workload&#45;example&#45;test/eu&#45;west&#45;3/website&#45;&gt;aws/poc/management/test/organizations/accounts/workload&#45;example&#45;test</title>
<path fill="none" stroke="#4ba8f1" d="M2548.49,-359.97C2481.67,-349.57 2396.19,-336.27 2327.6,-325.6"/>
<polygon fill="#4ba8f1" stroke="#4ba8f1" points="2328.03,-322.13 2317.61,-324.05 2326.95,-329.05 2328.03,-322.13"/>
</g>
<!-- examples/hello&#45;world -->
<g id="node18" class="node">
<title>examples/hello&#45;world</title>
<polygon fill="#4447cc" stroke="#5754dd" points="1681,-108 1517,-108 1513,-104 1513,-72 1677,-72 1681,-76 1681,-108"/>
<polyline fill="none" stroke="#5754dd" points="1677,-104 1513,-104 "/>
<polyline fill="none" stroke="#5754dd" points="1677,-104 1677,-72 "/>
<polyline fill="none" stroke="#5754dd" points="1677,-104 1681,-108 "/>
<text text-anchor="middle" x="1597" y="-86.3" font-family="Times,serif" font-size="14.00" fill="#c9d1d8">examples/hello&#45;world</text>
</g>
<!-- examples/hello&#45;world&#45;&gt;terragrunt.hcl -->
<g id="edge34" class="edge">
<title>examples/hello&#45;world&#45;&gt;terragrunt.hcl</title>
<path fill="none" stroke="#4ba8f1" d="M1569.6,-71.88C1555.09,-62.81 1537.08,-51.55 1521.41,-41.76"/>
<polygon fill="#4ba8f1" stroke="#4ba8f1" points="1522.84,-38.52 1512.5,-36.19 1519.13,-44.46 1522.84,-38.52"/>
</g>
<!-- examples/remote&#45;state/apples -->
<g id="node19" class="node">
<title>examples/remote&#45;state/apples</title>
<polygon fill="#4447cc" stroke="#5754dd" points="1911.5,-180 1684.5,-180 1680.5,-176 1680.5,-144 1907.5,-144 1911.5,-148 1911.5,-180"/>
<polyline fill="none" stroke="#5754dd" points="1907.5,-176 1680.5,-176 "/>
<polyline fill="none" stroke="#5754dd" points="1907.5,-176 1907.5,-144 "/>
<polyline fill="none" stroke="#5754dd" points="1907.5,-176 1911.5,-180 "/>
<text text-anchor="middle" x="1796" y="-158.3" font-family="Times,serif" font-size="14.00" fill="#c9d1d8">examples/remote&#45;state/apples</text>
</g>
<!-- examples/remote&#45;state/states -->
<g id="node20" class="node">
<title>examples/remote&#45;state/states</title>
<polygon fill="#4447cc" stroke="#5754dd" points="1927,-108 1703,-108 1699,-104 1699,-72 1923,-72 1927,-76 1927,-108"/>
<polyline fill="none" stroke="#5754dd" points="1923,-104 1699,-104 "/>
<polyline fill="none" stroke="#5754dd" points="1923,-104 1923,-72 "/>
<polyline fill="none" stroke="#5754dd" points="1923,-104 1927,-108 "/>
<text text-anchor="middle" x="1813" y="-86.3" font-family="Times,serif" font-size="14.00" fill="#c9d1d8">examples/remote&#45;state/states</text>
</g>
<!-- examples/remote&#45;state/apples&#45;&gt;examples/remote&#45;state/states -->
<g id="edge35" class="edge">
<title>examples/remote&#45;state/apples&#45;&gt;examples/remote&#45;state/states</title>
<path fill="none" stroke="#4ba8f1" d="M1800.2,-143.7C1802.1,-135.9 1804.38,-126.51 1806.48,-117.83"/>
<polygon fill="#4ba8f1" stroke="#4ba8f1" points="1809.89,-118.65 1808.85,-108.1 1803.08,-117 1809.89,-118.65"/>
</g>
<!-- examples/remote&#45;state/states&#45;&gt;terragrunt.hcl -->
<g id="edge37" class="edge">
<title>examples/remote&#45;state/states&#45;&gt;terragrunt.hcl</title>
<path fill="none" stroke="#4ba8f1" d="M1733.18,-71.97C1678.4,-60.27 1606.43,-44.91 1554.11,-33.75"/>
<polygon fill="#4ba8f1" stroke="#4ba8f1" points="1554.75,-30.31 1544.24,-31.64 1553.29,-37.15 1554.75,-30.31"/>
</g>
<!-- examples/remote&#45;state/oranges -->
<g id="node21" class="node">
<title>examples/remote&#45;state/oranges</title>
<polygon fill="#4447cc" stroke="#5754dd" points="2172,-180 1934,-180 1930,-176 1930,-144 2168,-144 2172,-148 2172,-180"/>
<polyline fill="none" stroke="#5754dd" points="2168,-176 1930,-176 "/>
<polyline fill="none" stroke="#5754dd" points="2168,-176 2168,-144 "/>
<polyline fill="none" stroke="#5754dd" points="2168,-176 2172,-180 "/>
<text text-anchor="middle" x="2051" y="-158.3" font-family="Times,serif" font-size="14.00" fill="#c9d1d8">examples/remote&#45;state/oranges</text>
</g>
<!-- examples/remote&#45;state/oranges&#45;&gt;examples/remote&#45;state/states -->
<g id="edge36" class="edge">
<title>examples/remote&#45;state/oranges&#45;&gt;examples/remote&#45;state/states</title>
<path fill="none" stroke="#4ba8f1" d="M1993.08,-143.97C1959.25,-134.01 1916.38,-121.41 1880.96,-110.99"/>
<polygon fill="#4ba8f1" stroke="#4ba8f1" points="1881.76,-107.57 1871.18,-108.11 1879.78,-114.29 1881.76,-107.57"/>
</g>
</g>
</svg>
