<?xml version="1.0" encoding="UTF-8" standalone="no"?>
<!DOCTYPE svg PUBLIC "-//W3C//DTD SVG 1.1//EN"
 "http://www.w3.org/Graphics/SVG/1.1/DTD/svg11.dtd">
<!-- Generated by graphviz version 2.43.0 (0)
 -->
<!-- Title: %3 Pages: 1 -->
<svg width="557pt" height="332pt"
 viewBox="0.00 0.00 557.00 332.00" xmlns="http://www.w3.org/2000/svg" xmlns:xlink="http://www.w3.org/1999/xlink">
<g id="graph0" class="graph" transform="scale(1 1) rotate(0) translate(4 328)">
<title>%3</title>
<polygon fill="transparent" stroke="transparent" points="-4,4 -4,-328 553,-328 553,4 -4,4"/>
<!-- terragrunt.hcl -->
<g id="node1" class="node">
<title>terragrunt.hcl</title>
<polygon fill="#4179ea" stroke="#5754dd" points="327.5,-36 215.5,-36 215.5,0 333.5,0 333.5,-30 327.5,-36"/>
<polyline fill="none" stroke="#5754dd" points="327.5,-36 327.5,-30 "/>
<polyline fill="none" stroke="#5754dd" points="333.5,-30 327.5,-30 "/>
<text text-anchor="middle" x="274.5" y="-14.3" font-family="Times,serif" font-size="14.00" fill="#c9d1d8">terragrunt.hcl</text>
</g>
<!-- aws/poc/management/boot/organizations/root -->
<g id="node2" class="node">
<title>aws/poc/management/boot/organizations/root</title>
<polygon fill="#4447cc" stroke="#5754dd" points="445.5,-108 107.5,-108 103.5,-104 103.5,-72 441.5,-72 445.5,-76 445.5,-108"/>
<polyline fill="none" stroke="#5754dd" points="441.5,-104 103.5,-104 "/>
<polyline fill="none" stroke="#5754dd" points="441.5,-104 441.5,-72 "/>
<polyline fill="none" stroke="#5754dd" points="441.5,-104 445.5,-108 "/>
<text text-anchor="middle" x="274.5" y="-86.3" font-family="Times,serif" font-size="14.00" fill="#c9d1d8">aws/poc/management/boot/organizations/root</text>
</g>
<!-- aws/poc/management/boot/organizations/root&#45;&gt;terragrunt.hcl -->
<g id="edge1" class="edge">
<title>aws/poc/management/boot/organizations/root&#45;&gt;terragrunt.hcl</title>
<path fill="none" stroke="#4ba8f1" d="M274.5,-71.7C274.5,-63.98 274.5,-54.71 274.5,-46.11"/>
<polygon fill="#4ba8f1" stroke="#4ba8f1" points="278,-46.1 274.5,-36.1 271,-46.1 278,-46.1"/>
</g>
<!-- aws/poc/management/boot/organizations/units/workloads -->
<g id="node3" class="node">
<title>aws/poc/management/boot/organizations/units/workloads</title>
<polygon fill="#4447cc" stroke="#5754dd" points="487.5,-180 65.5,-180 61.5,-176 61.5,-144 483.5,-144 487.5,-148 487.5,-180"/>
<polyline fill="none" stroke="#5754dd" points="483.5,-176 61.5,-176 "/>
<polyline fill="none" stroke="#5754dd" points="483.5,-176 483.5,-144 "/>
<polyline fill="none" stroke="#5754dd" points="483.5,-176 487.5,-180 "/>
<text text-anchor="middle" x="274.5" y="-158.3" font-family="Times,serif" font-size="14.00" fill="#c9d1d8">aws/poc/management/boot/organizations/units/workloads</text>
</g>
<!-- aws/poc/management/boot/organizations/units/workloads&#45;&gt;aws/poc/management/boot/organizations/root -->
<g id="edge2" class="edge">
<title>aws/poc/management/boot/organizations/units/workloads&#45;&gt;aws/poc/management/boot/organizations/root</title>
<path fill="none" stroke="#4ba8f1" d="M274.5,-143.7C274.5,-135.98 274.5,-126.71 274.5,-118.11"/>
<polygon fill="#4ba8f1" stroke="#4ba8f1" points="278,-118.1 274.5,-108.1 271,-118.1 278,-118.1"/>
</g>
<!-- aws/poc/management/prod/organizations/accounts/workload&#45;example&#45;prod -->
<g id="node4" class="node">
<title>aws/poc/management/prod/organizations/accounts/workload&#45;example&#45;prod</title>
<polygon fill="#4447cc" stroke="#5754dd" points="549,-324 4,-324 0,-320 0,-288 545,-288 549,-292 549,-324"/>
<polyline fill="none" stroke="#5754dd" points="545,-320 0,-320 "/>
<polyline fill="none" stroke="#5754dd" points="545,-320 545,-288 "/>
<polyline fill="none" stroke="#5754dd" points="545,-320 549,-324 "/>
<text text-anchor="middle" x="274.5" y="-302.3" font-family="Times,serif" font-size="14.00" fill="#c9d1d8">aws/poc/management/prod/organizations/accounts/workload&#45;example&#45;prod</text>
</g>
<!-- aws/poc/management/prod/organizations/units/workloads&#45;prod -->
<g id="node5" class="node">
<title>aws/poc/management/prod/organizations/units/workloads&#45;prod</title>
<polygon fill="#4447cc" stroke="#5754dd" points="507,-252 46,-252 42,-248 42,-216 503,-216 507,-220 507,-252"/>
<polyline fill="none" stroke="#5754dd" points="503,-248 42,-248 "/>
<polyline fill="none" stroke="#5754dd" points="503,-248 503,-216 "/>
<polyline fill="none" stroke="#5754dd" points="503,-248 507,-252 "/>
<text text-anchor="middle" x="274.5" y="-230.3" font-family="Times,serif" font-size="14.00" fill="#c9d1d8">aws/poc/management/prod/organizations/units/workloads&#45;prod</text>
</g>
<!-- aws/poc/management/prod/organizations/accounts/workload&#45;example&#45;prod&#45;&gt;aws/poc/management/prod/organizations/units/workloads&#45;prod -->
<g id="edge3" class="edge">
<title>aws/poc/management/prod/organizations/accounts/workload&#45;example&#45;prod&#45;&gt;aws/poc/management/prod/organizations/units/workloads&#45;prod</title>
<path fill="none" stroke="#4ba8f1" d="M274.5,-287.7C274.5,-279.98 274.5,-270.71 274.5,-262.11"/>
<polygon fill="#4ba8f1" stroke="#4ba8f1" points="278,-262.1 274.5,-252.1 271,-262.1 278,-262.1"/>
</g>
<!-- aws/poc/management/prod/organizations/units/workloads&#45;prod&#45;&gt;aws/poc/management/boot/organizations/units/workloads -->
<g id="edge4" class="edge">
<title>aws/poc/management/prod/organizations/units/workloads&#45;prod&#45;&gt;aws/poc/management/boot/organizations/units/workloads</title>
<path fill="none" stroke="#4ba8f1" d="M274.5,-215.7C274.5,-207.98 274.5,-198.71 274.5,-190.11"/>
<polygon fill="#4ba8f1" stroke="#4ba8f1" points="278,-190.1 274.5,-180.1 271,-190.1 278,-190.1"/>
</g>
</g>
</svg>
