<?xml version="1.0" encoding="UTF-8" standalone="no"?>
<!DOCTYPE svg PUBLIC "-//W3C//DTD SVG 1.1//EN"
 "http://www.w3.org/Graphics/SVG/1.1/DTD/svg11.dtd">
<!-- Generated by graphviz version 2.43.0 (0)
 -->
<!-- Title: %3 Pages: 1 -->
<svg width="451pt" height="188pt"
 viewBox="0.00 0.00 451.00 188.00" xmlns="http://www.w3.org/2000/svg" xmlns:xlink="http://www.w3.org/1999/xlink">
<g id="graph0" class="graph" transform="scale(1 1) rotate(0) translate(4 184)">
<title>%3</title>
<polygon fill="transparent" stroke="transparent" points="-4,4 -4,-184 447,-184 447,4 -4,4"/>
<!-- terragrunt.hcl -->
<g id="node1" class="node">
<title>terragrunt.hcl</title>
<polygon fill="#c0c0c0" stroke="#404040" points="274.5,-36 162.5,-36 162.5,0 280.5,0 280.5,-30 274.5,-36"/>
<polyline fill="none" stroke="#404040" points="274.5,-36 274.5,-30 "/>
<polyline fill="none" stroke="#404040" points="280.5,-30 274.5,-30 "/>
<text text-anchor="middle" x="221.5" y="-14.3" font-family="Times,serif" font-size="14.00">terragrunt.hcl</text>
</g>
<!-- aws/poc/management/boot/organizations/roots/organization -->
<g id="node2" class="node">
<title>aws/poc/management/boot/organizations/roots/organization</title>
<polygon fill="#c0c0c0" stroke="#404040" points="443,-108 4,-108 0,-104 0,-72 439,-72 443,-76 443,-108"/>
<polyline fill="none" stroke="#404040" points="439,-104 0,-104 "/>
<polyline fill="none" stroke="#404040" points="439,-104 439,-72 "/>
<polyline fill="none" stroke="#404040" points="439,-104 443,-108 "/>
<text text-anchor="middle" x="221.5" y="-86.3" font-family="Times,serif" font-size="14.00">aws/poc/management/boot/organizations/roots/organization</text>
</g>
<!-- aws/poc/management/boot/organizations/roots/organization&#45;&gt;terragrunt.hcl -->
<g id="edge1" class="edge">
<title>aws/poc/management/boot/organizations/roots/organization&#45;&gt;terragrunt.hcl</title>
<path fill="none" stroke="#808080" d="M221.5,-71.7C221.5,-63.98 221.5,-54.71 221.5,-46.11"/>
<polygon fill="#808080" stroke="#808080" points="225,-46.1 221.5,-36.1 218,-46.1 225,-46.1"/>
</g>
<!-- aws/poc/management/boot/organizations/units/workloads -->
<g id="node3" class="node">
<title>aws/poc/management/boot/organizations/units/workloads</title>
<polygon fill="#c0c0c0" stroke="#404040" points="434.5,-180 12.5,-180 8.5,-176 8.5,-144 430.5,-144 434.5,-148 434.5,-180"/>
<polyline fill="none" stroke="#404040" points="430.5,-176 8.5,-176 "/>
<polyline fill="none" stroke="#404040" points="430.5,-176 430.5,-144 "/>
<polyline fill="none" stroke="#404040" points="430.5,-176 434.5,-180 "/>
<text text-anchor="middle" x="221.5" y="-158.3" font-family="Times,serif" font-size="14.00">aws/poc/management/boot/organizations/units/workloads</text>
</g>
<!-- aws/poc/management/boot/organizations/units/workloads&#45;&gt;aws/poc/management/boot/organizations/roots/organization -->
<g id="edge2" class="edge">
<title>aws/poc/management/boot/organizations/units/workloads&#45;&gt;aws/poc/management/boot/organizations/roots/organization</title>
<path fill="none" stroke="#808080" d="M221.5,-143.7C221.5,-135.98 221.5,-126.71 221.5,-118.11"/>
<polygon fill="#808080" stroke="#808080" points="225,-118.1 221.5,-108.1 218,-118.1 225,-118.1"/>
</g>
</g>
</svg>
