<?xml version="1.0" encoding="UTF-8" standalone="no"?>
<!DOCTYPE svg PUBLIC "-//W3C//DTD SVG 1.1//EN"
 "http://www.w3.org/Graphics/SVG/1.1/DTD/svg11.dtd">
<!-- Generated by graphviz version 2.43.0 (0)
 -->
<!-- Title: %3 Pages: 1 -->
<svg width="451pt" height="116pt"
 viewBox="0.00 0.00 451.00 116.00" xmlns="http://www.w3.org/2000/svg" xmlns:xlink="http://www.w3.org/1999/xlink">
<g id="graph0" class="graph" transform="scale(1 1) rotate(0) translate(4 112)">
<title>%3</title>
<polygon fill="transparent" stroke="transparent" points="-4,4 -4,-112 447,-112 447,4 -4,4"/>
<!-- aws/poc/management/boot/organizations/roots/organization -->
<g id="node1" class="node">
<title>aws/poc/management/boot/organizations/roots/organization</title>
<polygon fill="#c0c0c0" stroke="#404040" points="443,-36 4,-36 0,-32 0,0 439,0 443,-4 443,-36"/>
<polyline fill="none" stroke="#404040" points="439,-32 0,-32 "/>
<polyline fill="none" stroke="#404040" points="439,-32 439,0 "/>
<polyline fill="none" stroke="#404040" points="439,-32 443,-36 "/>
<text text-anchor="middle" x="221.5" y="-14.3" font-family="Times,serif" font-size="14.00">aws/poc/management/boot/organizations/roots/organization</text>
</g>
<!-- aws/poc/management/boot/organizations/units/workloads -->
<g id="node2" class="node">
<title>aws/poc/management/boot/organizations/units/workloads</title>
<polygon fill="#c0c0c0" stroke="#404040" points="434.5,-108 12.5,-108 8.5,-104 8.5,-72 430.5,-72 434.5,-76 434.5,-108"/>
<polyline fill="none" stroke="#404040" points="430.5,-104 8.5,-104 "/>
<polyline fill="none" stroke="#404040" points="430.5,-104 430.5,-72 "/>
<polyline fill="none" stroke="#404040" points="430.5,-104 434.5,-108 "/>
<text text-anchor="middle" x="221.5" y="-86.3" font-family="Times,serif" font-size="14.00">aws/poc/management/boot/organizations/units/workloads</text>
</g>
<!-- aws/poc/management/boot/organizations/units/workloads&#45;&gt;aws/poc/management/boot/organizations/roots/organization -->
<g id="edge1" class="edge">
<title>aws/poc/management/boot/organizations/units/workloads&#45;&gt;aws/poc/management/boot/organizations/roots/organization</title>
<path fill="none" stroke="#808080" d="M221.5,-71.7C221.5,-63.98 221.5,-54.71 221.5,-46.11"/>
<polygon fill="#808080" stroke="#808080" points="225,-46.1 221.5,-36.1 218,-46.1 225,-46.1"/>
</g>
</g>
</svg>
