<?xml version="1.0" encoding="UTF-8" standalone="no"?>
<!DOCTYPE svg PUBLIC "-//W3C//DTD SVG 1.1//EN"
 "http://www.w3.org/Graphics/SVG/1.1/DTD/svg11.dtd">
<!-- Generated by graphviz version 2.43.0 (0)
 -->
<!-- Title: %3 Pages: 1 -->
<svg width="434pt" height="188pt"
 viewBox="0.00 0.00 434.00 188.00" xmlns="http://www.w3.org/2000/svg" xmlns:xlink="http://www.w3.org/1999/xlink">
<g id="graph0" class="graph" transform="scale(1 1) rotate(0) translate(4 184)">
<title>%3</title>
<polygon fill="transparent" stroke="transparent" points="-4,4 -4,-184 430,-184 430,4 -4,4"/>
<!-- terragrunt.hcl -->
<g id="node1" class="node">
<title>terragrunt.hcl</title>
<polygon fill="#4179ea" stroke="#5754dd" points="266,-36 154,-36 154,0 272,0 272,-30 266,-36"/>
<polyline fill="none" stroke="#5754dd" points="266,-36 266,-30 "/>
<polyline fill="none" stroke="#5754dd" points="272,-30 266,-30 "/>
<text text-anchor="middle" x="213" y="-14.3" font-family="Times,serif" font-size="14.00" fill="#c9d1d8">terragrunt.hcl</text>
</g>
<!-- aws/poc/management/boot/organizations/root -->
<g id="node2" class="node">
<title>aws/poc/management/boot/organizations/root</title>
<polygon fill="#4447cc" stroke="#5754dd" points="384,-108 46,-108 42,-104 42,-72 380,-72 384,-76 384,-108"/>
<polyline fill="none" stroke="#5754dd" points="380,-104 42,-104 "/>
<polyline fill="none" stroke="#5754dd" points="380,-104 380,-72 "/>
<polyline fill="none" stroke="#5754dd" points="380,-104 384,-108 "/>
<text text-anchor="middle" x="213" y="-86.3" font-family="Times,serif" font-size="14.00" fill="#c9d1d8">aws/poc/management/boot/organizations/root</text>
</g>
<!-- aws/poc/management/boot/organizations/root&#45;&gt;terragrunt.hcl -->
<g id="edge1" class="edge">
<title>aws/poc/management/boot/organizations/root&#45;&gt;terragrunt.hcl</title>
<path fill="none" stroke="#4ba8f1" d="M213,-71.7C213,-63.98 213,-54.71 213,-46.11"/>
<polygon fill="#4ba8f1" stroke="#4ba8f1" points="216.5,-46.1 213,-36.1 209.5,-46.1 216.5,-46.1"/>
</g>
<!-- aws/poc/management/boot/organizations/units/workloads -->
<g id="node3" class="node">
<title>aws/poc/management/boot/organizations/units/workloads</title>
<polygon fill="#4447cc" stroke="#5754dd" points="426,-180 4,-180 0,-176 0,-144 422,-144 426,-148 426,-180"/>
<polyline fill="none" stroke="#5754dd" points="422,-176 0,-176 "/>
<polyline fill="none" stroke="#5754dd" points="422,-176 422,-144 "/>
<polyline fill="none" stroke="#5754dd" points="422,-176 426,-180 "/>
<text text-anchor="middle" x="213" y="-158.3" font-family="Times,serif" font-size="14.00" fill="#c9d1d8">aws/poc/management/boot/organizations/units/workloads</text>
</g>
<!-- aws/poc/management/boot/organizations/units/workloads&#45;&gt;aws/poc/management/boot/organizations/root -->
<g id="edge2" class="edge">
<title>aws/poc/management/boot/organizations/units/workloads&#45;&gt;aws/poc/management/boot/organizations/root</title>
<path fill="none" stroke="#4ba8f1" d="M213,-143.7C213,-135.98 213,-126.71 213,-118.11"/>
<polygon fill="#4ba8f1" stroke="#4ba8f1" points="216.5,-118.1 213,-108.1 209.5,-118.1 216.5,-118.1"/>
</g>
</g>
</svg>
