<?xml version="1.0" encoding="UTF-8" standalone="no"?>
<!DOCTYPE svg PUBLIC "-//W3C//DTD SVG 1.1//EN"
 "http://www.w3.org/Graphics/SVG/1.1/DTD/svg11.dtd">
<!-- Generated by graphviz version 2.43.0 (0)
 -->
<!-- Title: %3 Pages: 1 -->
<svg width="239pt" height="116pt"
 viewBox="0.00 0.00 239.00 116.00" xmlns="http://www.w3.org/2000/svg" xmlns:xlink="http://www.w3.org/1999/xlink">
<g id="graph0" class="graph" transform="scale(1 1) rotate(0) translate(4 112)">
<title>%3</title>
<polygon fill="transparent" stroke="transparent" points="-4,4 -4,-112 235,-112 235,4 -4,4"/>
<!-- examples/remote&#45;state/apples -->
<g id="node1" class="node">
<title>examples/remote&#45;state/apples</title>
<polygon fill="#c0c0c0" stroke="#404040" points="231,-108 4,-108 0,-104 0,-72 227,-72 231,-76 231,-108"/>
<polyline fill="none" stroke="#404040" points="227,-104 0,-104 "/>
<polyline fill="none" stroke="#404040" points="227,-104 227,-72 "/>
<polyline fill="none" stroke="#404040" points="227,-104 231,-108 "/>
<text text-anchor="middle" x="115.5" y="-86.3" font-family="Times,serif" font-size="14.00">examples/remote&#45;state/apples</text>
</g>
<!-- examples/remote&#45;state/states -->
<g id="node2" class="node">
<title>examples/remote&#45;state/states</title>
<polygon fill="#c0c0c0" stroke="#404040" points="229.5,-36 5.5,-36 1.5,-32 1.5,0 225.5,0 229.5,-4 229.5,-36"/>
<polyline fill="none" stroke="#404040" points="225.5,-32 1.5,-32 "/>
<polyline fill="none" stroke="#404040" points="225.5,-32 225.5,0 "/>
<polyline fill="none" stroke="#404040" points="225.5,-32 229.5,-36 "/>
<text text-anchor="middle" x="115.5" y="-14.3" font-family="Times,serif" font-size="14.00">examples/remote&#45;state/states</text>
</g>
<!-- examples/remote&#45;state/apples&#45;&gt;examples/remote&#45;state/states -->
<g id="edge1" class="edge">
<title>examples/remote&#45;state/apples&#45;&gt;examples/remote&#45;state/states</title>
<path fill="none" stroke="#808080" d="M115.5,-71.7C115.5,-63.98 115.5,-54.71 115.5,-46.11"/>
<polygon fill="#808080" stroke="#808080" points="119,-46.1 115.5,-36.1 112,-46.1 119,-46.1"/>
</g>
</g>
</svg>
