<?xml version="1.0" encoding="UTF-8" standalone="no"?>
<!DOCTYPE svg PUBLIC "-//W3C//DTD SVG 1.1//EN"
 "http://www.w3.org/Graphics/SVG/1.1/DTD/svg11.dtd">
<!-- Generated by graphviz version 2.43.0 (0)
 -->
<!-- Title: %3 Pages: 1 -->
<svg width="176pt" height="116pt"
 viewBox="0.00 0.00 176.00 116.00" xmlns="http://www.w3.org/2000/svg" xmlns:xlink="http://www.w3.org/1999/xlink">
<g id="graph0" class="graph" transform="scale(1 1) rotate(0) translate(4 112)">
<title>%3</title>
<polygon fill="transparent" stroke="transparent" points="-4,4 -4,-112 172,-112 172,4 -4,4"/>
<!-- terragrunt.hcl -->
<g id="node1" class="node">
<title>terragrunt.hcl</title>
<polygon fill="#4179ea" stroke="#5754dd" points="137,-36 25,-36 25,0 143,0 143,-30 137,-36"/>
<polyline fill="none" stroke="#5754dd" points="137,-36 137,-30 "/>
<polyline fill="none" stroke="#5754dd" points="143,-30 137,-30 "/>
<text text-anchor="middle" x="84" y="-14.3" font-family="Times,serif" font-size="14.00" fill="#c9d1d8">terragrunt.hcl</text>
</g>
<!-- examples/hello&#45;world -->
<g id="node2" class="node">
<title>examples/hello&#45;world</title>
<polygon fill="#4447cc" stroke="#5754dd" points="168,-108 4,-108 0,-104 0,-72 164,-72 168,-76 168,-108"/>
<polyline fill="none" stroke="#5754dd" points="164,-104 0,-104 "/>
<polyline fill="none" stroke="#5754dd" points="164,-104 164,-72 "/>
<polyline fill="none" stroke="#5754dd" points="164,-104 168,-108 "/>
<text text-anchor="middle" x="84" y="-86.3" font-family="Times,serif" font-size="14.00" fill="#c9d1d8">examples/hello&#45;world</text>
</g>
<!-- examples/hello&#45;world&#45;&gt;terragrunt.hcl -->
<g id="edge1" class="edge">
<title>examples/hello&#45;world&#45;&gt;terragrunt.hcl</title>
<path fill="none" stroke="#4ba8f1" d="M84,-71.7C84,-63.98 84,-54.71 84,-46.11"/>
<polygon fill="#4ba8f1" stroke="#4ba8f1" points="87.5,-46.1 84,-36.1 80.5,-46.1 87.5,-46.1"/>
</g>
</g>
</svg>
