<?xml version="1.0" encoding="UTF-8" standalone="no"?>
<!DOCTYPE svg PUBLIC "-//W3C//DTD SVG 1.1//EN"
 "http://www.w3.org/Graphics/SVG/1.1/DTD/svg11.dtd">
<!-- Generated by graphviz version 2.43.0 (0)
 -->
<!-- Title: %3 Pages: 1 -->
<svg width="256pt" height="116pt"
 viewBox="0.00 0.00 256.00 116.00" xmlns="http://www.w3.org/2000/svg" xmlns:xlink="http://www.w3.org/1999/xlink">
<g id="graph0" class="graph" transform="scale(1 1) rotate(0) translate(4 112)">
<title>%3</title>
<polygon fill="transparent" stroke="transparent" points="-4,4 -4,-112 252,-112 252,4 -4,4"/>
<!-- terragrunt.hcl -->
<g id="node1" class="node">
<title>terragrunt.hcl</title>
<polygon fill="#c0c0c0" stroke="#404040" points="177,-36 65,-36 65,0 183,0 183,-30 177,-36"/>
<polyline fill="none" stroke="#404040" points="177,-36 177,-30 "/>
<polyline fill="none" stroke="#404040" points="183,-30 177,-30 "/>
<text text-anchor="middle" x="124" y="-14.3" font-family="Times,serif" font-size="14.00">terragrunt.hcl</text>
</g>
<!-- aws/poc/management/boot/state -->
<g id="node2" class="node">
<title>aws/poc/management/boot/state</title>
<polygon fill="#c0c0c0" stroke="#404040" points="248,-108 4,-108 0,-104 0,-72 244,-72 248,-76 248,-108"/>
<polyline fill="none" stroke="#404040" points="244,-104 0,-104 "/>
<polyline fill="none" stroke="#404040" points="244,-104 244,-72 "/>
<polyline fill="none" stroke="#404040" points="244,-104 248,-108 "/>
<text text-anchor="middle" x="124" y="-86.3" font-family="Times,serif" font-size="14.00">aws/poc/management/boot/state</text>
</g>
<!-- aws/poc/management/boot/state&#45;&gt;terragrunt.hcl -->
<g id="edge1" class="edge">
<title>aws/poc/management/boot/state&#45;&gt;terragrunt.hcl</title>
<path fill="none" stroke="#808080" d="M124,-71.7C124,-63.98 124,-54.71 124,-46.11"/>
<polygon fill="#808080" stroke="#808080" points="127.5,-46.1 124,-36.1 120.5,-46.1 127.5,-46.1"/>
</g>
</g>
</svg>
