<?xml version="1.0" encoding="UTF-8" standalone="no"?>
<!DOCTYPE svg PUBLIC "-//W3C//DTD SVG 1.1//EN"
 "http://www.w3.org/Graphics/SVG/1.1/DTD/svg11.dtd">
<!-- Generated by graphviz version 2.43.0 (0)
 -->
<!-- Title: %3 Pages: 1 -->
<svg width="473pt" height="188pt"
 viewBox="0.00 0.00 473.00 188.00" xmlns="http://www.w3.org/2000/svg" xmlns:xlink="http://www.w3.org/1999/xlink">
<g id="graph0" class="graph" transform="scale(1 1) rotate(0) translate(4 184)">
<title>%3</title>
<polygon fill="transparent" stroke="transparent" points="-4,4 -4,-184 469,-184 469,4 -4,4"/>
<!-- aws/poc/management/boot/organizations/roots/organization -->
<g id="node1" class="node">
<title>aws/poc/management/boot/organizations/roots/organization</title>
<polygon fill="#c0c0c0" stroke="#404040" points="454,-36 15,-36 11,-32 11,0 450,0 454,-4 454,-36"/>
<polyline fill="none" stroke="#404040" points="450,-32 11,-32 "/>
<polyline fill="none" stroke="#404040" points="450,-32 450,0 "/>
<polyline fill="none" stroke="#404040" points="450,-32 454,-36 "/>
<text text-anchor="middle" x="232.5" y="-14.3" font-family="Times,serif" font-size="14.00">aws/poc/management/boot/organizations/roots/organization</text>
</g>
<!-- aws/poc/management/boot/organizations/units/workloads -->
<g id="node2" class="node">
<title>aws/poc/management/boot/organizations/units/workloads</title>
<polygon fill="#c0c0c0" stroke="#404040" points="445.5,-108 23.5,-108 19.5,-104 19.5,-72 441.5,-72 445.5,-76 445.5,-108"/>
<polyline fill="none" stroke="#404040" points="441.5,-104 19.5,-104 "/>
<polyline fill="none" stroke="#404040" points="441.5,-104 441.5,-72 "/>
<polyline fill="none" stroke="#404040" points="441.5,-104 445.5,-108 "/>
<text text-anchor="middle" x="232.5" y="-86.3" font-family="Times,serif" font-size="14.00">aws/poc/management/boot/organizations/units/workloads</text>
</g>
<!-- aws/poc/management/boot/organizations/units/workloads&#45;&gt;aws/poc/management/boot/organizations/roots/organization -->
<g id="edge1" class="edge">
<title>aws/poc/management/boot/organizations/units/workloads&#45;&gt;aws/poc/management/boot/organizations/roots/organization</title>
<path fill="none" stroke="#808080" d="M232.5,-71.7C232.5,-63.98 232.5,-54.71 232.5,-46.11"/>
<polygon fill="#808080" stroke="#808080" points="236,-46.1 232.5,-36.1 229,-46.1 236,-46.1"/>
</g>
<!-- aws/poc/management/prod/organizations/units/workloads&#45;prod -->
<g id="node3" class="node">
<title>aws/poc/management/prod/organizations/units/workloads&#45;prod</title>
<polygon fill="#c0c0c0" stroke="#404040" points="465,-180 4,-180 0,-176 0,-144 461,-144 465,-148 465,-180"/>
<polyline fill="none" stroke="#404040" points="461,-176 0,-176 "/>
<polyline fill="none" stroke="#404040" points="461,-176 461,-144 "/>
<polyline fill="none" stroke="#404040" points="461,-176 465,-180 "/>
<text text-anchor="middle" x="232.5" y="-158.3" font-family="Times,serif" font-size="14.00">aws/poc/management/prod/organizations/units/workloads&#45;prod</text>
</g>
<!-- aws/poc/management/prod/organizations/units/workloads&#45;prod&#45;&gt;aws/poc/management/boot/organizations/units/workloads -->
<g id="edge2" class="edge">
<title>aws/poc/management/prod/organizations/units/workloads&#45;prod&#45;&gt;aws/poc/management/boot/organizations/units/workloads</title>
<path fill="none" stroke="#808080" d="M232.5,-143.7C232.5,-135.98 232.5,-126.71 232.5,-118.11"/>
<polygon fill="#808080" stroke="#808080" points="236,-118.1 232.5,-108.1 229,-118.1 236,-118.1"/>
</g>
</g>
</svg>
