<?xml version="1.0" encoding="UTF-8" standalone="no"?>
<!DOCTYPE svg PUBLIC "-//W3C//DTD SVG 1.1//EN"
 "http://www.w3.org/Graphics/SVG/1.1/DTD/svg11.dtd">
<!-- Generated by graphviz version 2.43.0 (0)
 -->
<!-- Title: %3 Pages: 1 -->
<svg width="473pt" height="260pt"
 viewBox="0.00 0.00 473.00 260.00" xmlns="http://www.w3.org/2000/svg" xmlns:xlink="http://www.w3.org/1999/xlink">
<g id="graph0" class="graph" transform="scale(1 1) rotate(0) translate(4 256)">
<title>%3</title>
<polygon fill="transparent" stroke="transparent" points="-4,4 -4,-256 469,-256 469,4 -4,4"/>
<!-- terragrunt.hcl -->
<g id="node1" class="node">
<title>terragrunt.hcl</title>
<polygon fill="#c0c0c0" stroke="#404040" points="285.5,-36 173.5,-36 173.5,0 291.5,0 291.5,-30 285.5,-36"/>
<polyline fill="none" stroke="#404040" points="285.5,-36 285.5,-30 "/>
<polyline fill="none" stroke="#404040" points="291.5,-30 285.5,-30 "/>
<text text-anchor="middle" x="232.5" y="-14.3" font-family="Times,serif" font-size="14.00">terragrunt.hcl</text>
</g>
<!-- aws/poc/management/boot/organizations/roots/organization -->
<g id="node2" class="node">
<title>aws/poc/management/boot/organizations/roots/organization</title>
<polygon fill="#c0c0c0" stroke="#404040" points="454,-108 15,-108 11,-104 11,-72 450,-72 454,-76 454,-108"/>
<polyline fill="none" stroke="#404040" points="450,-104 11,-104 "/>
<polyline fill="none" stroke="#404040" points="450,-104 450,-72 "/>
<polyline fill="none" stroke="#404040" points="450,-104 454,-108 "/>
<text text-anchor="middle" x="232.5" y="-86.3" font-family="Times,serif" font-size="14.00">aws/poc/management/boot/organizations/roots/organization</text>
</g>
<!-- aws/poc/management/boot/organizations/roots/organization&#45;&gt;terragrunt.hcl -->
<g id="edge1" class="edge">
<title>aws/poc/management/boot/organizations/roots/organization&#45;&gt;terragrunt.hcl</title>
<path fill="none" stroke="#808080" d="M232.5,-71.7C232.5,-63.98 232.5,-54.71 232.5,-46.11"/>
<polygon fill="#808080" stroke="#808080" points="236,-46.1 232.5,-36.1 229,-46.1 236,-46.1"/>
</g>
<!-- aws/poc/management/boot/organizations/units/workloads -->
<g id="node3" class="node">
<title>aws/poc/management/boot/organizations/units/workloads</title>
<polygon fill="#c0c0c0" stroke="#404040" points="445.5,-180 23.5,-180 19.5,-176 19.5,-144 441.5,-144 445.5,-148 445.5,-180"/>
<polyline fill="none" stroke="#404040" points="441.5,-176 19.5,-176 "/>
<polyline fill="none" stroke="#404040" points="441.5,-176 441.5,-144 "/>
<polyline fill="none" stroke="#404040" points="441.5,-176 445.5,-180 "/>
<text text-anchor="middle" x="232.5" y="-158.3" font-family="Times,serif" font-size="14.00">aws/poc/management/boot/organizations/units/workloads</text>
</g>
<!-- aws/poc/management/boot/organizations/units/workloads&#45;&gt;aws/poc/management/boot/organizations/roots/organization -->
<g id="edge2" class="edge">
<title>aws/poc/management/boot/organizations/units/workloads&#45;&gt;aws/poc/management/boot/organizations/roots/organization</title>
<path fill="none" stroke="#808080" d="M232.5,-143.7C232.5,-135.98 232.5,-126.71 232.5,-118.11"/>
<polygon fill="#808080" stroke="#808080" points="236,-118.1 232.5,-108.1 229,-118.1 236,-118.1"/>
</g>
<!-- aws/poc/management/prod/organizations/units/workloads&#45;prod -->
<g id="node4" class="node">
<title>aws/poc/management/prod/organizations/units/workloads&#45;prod</title>
<polygon fill="#c0c0c0" stroke="#404040" points="465,-252 4,-252 0,-248 0,-216 461,-216 465,-220 465,-252"/>
<polyline fill="none" stroke="#404040" points="461,-248 0,-248 "/>
<polyline fill="none" stroke="#404040" points="461,-248 461,-216 "/>
<polyline fill="none" stroke="#404040" points="461,-248 465,-252 "/>
<text text-anchor="middle" x="232.5" y="-230.3" font-family="Times,serif" font-size="14.00">aws/poc/management/prod/organizations/units/workloads&#45;prod</text>
</g>
<!-- aws/poc/management/prod/organizations/units/workloads&#45;prod&#45;&gt;aws/poc/management/boot/organizations/units/workloads -->
<g id="edge3" class="edge">
<title>aws/poc/management/prod/organizations/units/workloads&#45;prod&#45;&gt;aws/poc/management/boot/organizations/units/workloads</title>
<path fill="none" stroke="#808080" d="M232.5,-215.7C232.5,-207.98 232.5,-198.71 232.5,-190.11"/>
<polygon fill="#808080" stroke="#808080" points="236,-190.1 232.5,-180.1 229,-190.1 236,-190.1"/>
</g>
</g>
</svg>
