<?xml version="1.0" encoding="UTF-8" standalone="no"?>
<!DOCTYPE svg PUBLIC "-//W3C//DTD SVG 1.1//EN"
 "http://www.w3.org/Graphics/SVG/1.1/DTD/svg11.dtd">
<!-- Generated by graphviz version 2.43.0 (0)
 -->
<!-- Title: %3 Pages: 1 -->
<svg width="350pt" height="116pt"
 viewBox="0.00 0.00 350.00 116.00" xmlns="http://www.w3.org/2000/svg" xmlns:xlink="http://www.w3.org/1999/xlink">
<g id="graph0" class="graph" transform="scale(1 1) rotate(0) translate(4 112)">
<title>%3</title>
<polygon fill="transparent" stroke="transparent" points="-4,4 -4,-112 346,-112 346,4 -4,4"/>
<!-- terragrunt.hcl -->
<g id="node1" class="node">
<title>terragrunt.hcl</title>
<polygon fill="#4179ea" stroke="#5754dd" points="224,-36 112,-36 112,0 230,0 230,-30 224,-36"/>
<polyline fill="none" stroke="#5754dd" points="224,-36 224,-30 "/>
<polyline fill="none" stroke="#5754dd" points="230,-30 224,-30 "/>
<text text-anchor="middle" x="171" y="-14.3" font-family="Times,serif" font-size="14.00" fill="#c9d1d8">terragrunt.hcl</text>
</g>
<!-- aws/poc/management/boot/organizations/root -->
<g id="node2" class="node">
<title>aws/poc/management/boot/organizations/root</title>
<polygon fill="#4447cc" stroke="#5754dd" points="342,-108 4,-108 0,-104 0,-72 338,-72 342,-76 342,-108"/>
<polyline fill="none" stroke="#5754dd" points="338,-104 0,-104 "/>
<polyline fill="none" stroke="#5754dd" points="338,-104 338,-72 "/>
<polyline fill="none" stroke="#5754dd" points="338,-104 342,-108 "/>
<text text-anchor="middle" x="171" y="-86.3" font-family="Times,serif" font-size="14.00" fill="#c9d1d8">aws/poc/management/boot/organizations/root</text>
</g>
<!-- aws/poc/management/boot/organizations/root&#45;&gt;terragrunt.hcl -->
<g id="edge1" class="edge">
<title>aws/poc/management/boot/organizations/root&#45;&gt;terragrunt.hcl</title>
<path fill="none" stroke="#4ba8f1" d="M171,-71.7C171,-63.98 171,-54.71 171,-46.11"/>
<polygon fill="#4ba8f1" stroke="#4ba8f1" points="174.5,-46.1 171,-36.1 167.5,-46.1 174.5,-46.1"/>
</g>
</g>
</svg>
