<?xml version="1.0" encoding="UTF-8" standalone="no"?>
<!DOCTYPE svg PUBLIC "-//W3C//DTD SVG 1.1//EN"
 "http://www.w3.org/Graphics/SVG/1.1/DTD/svg11.dtd">
<!-- Generated by graphviz version 2.43.0 (0)
 -->
<!-- Title: %3 Pages: 1 -->
<svg width="557pt" height="332pt"
 viewBox="0.00 0.00 557.00 332.00" xmlns="http://www.w3.org/2000/svg" xmlns:xlink="http://www.w3.org/1999/xlink">
<g id="graph0" class="graph" transform="scale(1 1) rotate(0) translate(4 328)">
<title>%3</title>
<polygon fill="transparent" stroke="transparent" points="-4,4 -4,-328 553,-328 553,4 -4,4"/>
<!-- aws/poc/management/boot/organizations/roots/organization -->
<g id="node1" class="node">
<title>aws/poc/management/boot/organizations/roots/organization</title>
<polygon fill="#c0c0c0" stroke="#404040" points="496,-36 57,-36 53,-32 53,0 492,0 496,-4 496,-36"/>
<polyline fill="none" stroke="#404040" points="492,-32 53,-32 "/>
<polyline fill="none" stroke="#404040" points="492,-32 492,0 "/>
<polyline fill="none" stroke="#404040" points="492,-32 496,-36 "/>
<text text-anchor="middle" x="274.5" y="-14.3" font-family="Times,serif" font-size="14.00">aws/poc/management/boot/organizations/roots/organization</text>
</g>
<!-- aws/poc/management/boot/organizations/units/workloads -->
<g id="node2" class="node">
<title>aws/poc/management/boot/organizations/units/workloads</title>
<polygon fill="#c0c0c0" stroke="#404040" points="487.5,-108 65.5,-108 61.5,-104 61.5,-72 483.5,-72 487.5,-76 487.5,-108"/>
<polyline fill="none" stroke="#404040" points="483.5,-104 61.5,-104 "/>
<polyline fill="none" stroke="#404040" points="483.5,-104 483.5,-72 "/>
<polyline fill="none" stroke="#404040" points="483.5,-104 487.5,-108 "/>
<text text-anchor="middle" x="274.5" y="-86.3" font-family="Times,serif" font-size="14.00">aws/poc/management/boot/organizations/units/workloads</text>
</g>
<!-- aws/poc/management/boot/organizations/units/workloads&#45;&gt;aws/poc/management/boot/organizations/roots/organization -->
<g id="edge1" class="edge">
<title>aws/poc/management/boot/organizations/units/workloads&#45;&gt;aws/poc/management/boot/organizations/roots/organization</title>
<path fill="none" stroke="#808080" d="M274.5,-71.7C274.5,-63.98 274.5,-54.71 274.5,-46.11"/>
<polygon fill="#808080" stroke="#808080" points="278,-46.1 274.5,-36.1 271,-46.1 278,-46.1"/>
</g>
<!-- aws/poc/management/prod/organizations/accounts/workload&#45;example&#45;prod -->
<g id="node3" class="node">
<title>aws/poc/management/prod/organizations/accounts/workload&#45;example&#45;prod</title>
<polygon fill="#c0c0c0" stroke="#404040" points="549,-252 4,-252 0,-248 0,-216 545,-216 549,-220 549,-252"/>
<polyline fill="none" stroke="#404040" points="545,-248 0,-248 "/>
<polyline fill="none" stroke="#404040" points="545,-248 545,-216 "/>
<polyline fill="none" stroke="#404040" points="545,-248 549,-252 "/>
<text text-anchor="middle" x="274.5" y="-230.3" font-family="Times,serif" font-size="14.00">aws/poc/management/prod/organizations/accounts/workload&#45;example&#45;prod</text>
</g>
<!-- aws/poc/management/prod/organizations/units/workloads&#45;prod -->
<g id="node4" class="node">
<title>aws/poc/management/prod/organizations/units/workloads&#45;prod</title>
<polygon fill="#c0c0c0" stroke="#404040" points="507,-180 46,-180 42,-176 42,-144 503,-144 507,-148 507,-180"/>
<polyline fill="none" stroke="#404040" points="503,-176 42,-176 "/>
<polyline fill="none" stroke="#404040" points="503,-176 503,-144 "/>
<polyline fill="none" stroke="#404040" points="503,-176 507,-180 "/>
<text text-anchor="middle" x="274.5" y="-158.3" font-family="Times,serif" font-size="14.00">aws/poc/management/prod/organizations/units/workloads&#45;prod</text>
</g>
<!-- aws/poc/management/prod/organizations/accounts/workload&#45;example&#45;prod&#45;&gt;aws/poc/management/prod/organizations/units/workloads&#45;prod -->
<g id="edge2" class="edge">
<title>aws/poc/management/prod/organizations/accounts/workload&#45;example&#45;prod&#45;&gt;aws/poc/management/prod/organizations/units/workloads&#45;prod</title>
<path fill="none" stroke="#808080" d="M274.5,-215.7C274.5,-207.98 274.5,-198.71 274.5,-190.11"/>
<polygon fill="#808080" stroke="#808080" points="278,-190.1 274.5,-180.1 271,-190.1 278,-190.1"/>
</g>
<!-- aws/poc/management/prod/organizations/units/workloads&#45;prod&#45;&gt;aws/poc/management/boot/organizations/units/workloads -->
<g id="edge3" class="edge">
<title>aws/poc/management/prod/organizations/units/workloads&#45;prod&#45;&gt;aws/poc/management/boot/organizations/units/workloads</title>
<path fill="none" stroke="#808080" d="M274.5,-143.7C274.5,-135.98 274.5,-126.71 274.5,-118.11"/>
<polygon fill="#808080" stroke="#808080" points="278,-118.1 274.5,-108.1 271,-118.1 278,-118.1"/>
</g>
<!-- aws/poc/workloads/prod/workload&#45;example&#45;prod/eu&#45;west&#45;3/website -->
<g id="node5" class="node">
<title>aws/poc/workloads/prod/workload&#45;example&#45;prod/eu&#45;west&#45;3/website</title>
<polygon fill="#c0c0c0" stroke="#404040" points="521.5,-324 31.5,-324 27.5,-320 27.5,-288 517.5,-288 521.5,-292 521.5,-324"/>
<polyline fill="none" stroke="#404040" points="517.5,-320 27.5,-320 "/>
<polyline fill="none" stroke="#404040" points="517.5,-320 517.5,-288 "/>
<polyline fill="none" stroke="#404040" points="517.5,-320 521.5,-324 "/>
<text text-anchor="middle" x="274.5" y="-302.3" font-family="Times,serif" font-size="14.00">aws/poc/workloads/prod/workload&#45;example&#45;prod/eu&#45;west&#45;3/website</text>
</g>
<!-- aws/poc/workloads/prod/workload&#45;example&#45;prod/eu&#45;west&#45;3/website&#45;&gt;aws/poc/management/prod/organizations/accounts/workload&#45;example&#45;prod -->
<g id="edge4" class="edge">
<title>aws/poc/workloads/prod/workload&#45;example&#45;prod/eu&#45;west&#45;3/website&#45;&gt;aws/poc/management/prod/organizations/accounts/workload&#45;example&#45;prod</title>
<path fill="none" stroke="#808080" d="M274.5,-287.7C274.5,-279.98 274.5,-270.71 274.5,-262.11"/>
<polygon fill="#808080" stroke="#808080" points="278,-262.1 274.5,-252.1 271,-262.1 278,-262.1"/>
</g>
</g>
</svg>
