<?xml version="1.0" encoding="UTF-8" standalone="no"?>
<!DOCTYPE svg PUBLIC "-//W3C//DTD SVG 1.1//EN"
 "http://www.w3.org/Graphics/SVG/1.1/DTD/svg11.dtd">
<!-- Generated by graphviz version 2.43.0 (0)
 -->
<!-- Title: %3 Pages: 1 -->
<svg width="1299pt" height="404pt"
 viewBox="0.00 0.00 1298.50 404.00" xmlns="http://www.w3.org/2000/svg" xmlns:xlink="http://www.w3.org/1999/xlink">
<g id="graph0" class="graph" transform="scale(1 1) rotate(0) translate(4 400)">
<title>%3</title>
<polygon fill="transparent" stroke="transparent" points="-4,4 -4,-400 1294.5,-400 1294.5,4 -4,4"/>
<!-- terragrunt.hcl -->
<g id="node1" class="node">
<title>terragrunt.hcl</title>
<polygon fill="#c0c0c0" stroke="#404040" points="427,-36 315,-36 315,0 433,0 433,-30 427,-36"/>
<polyline fill="none" stroke="#404040" points="427,-36 427,-30 "/>
<polyline fill="none" stroke="#404040" points="433,-30 427,-30 "/>
<text text-anchor="middle" x="374" y="-14.3" font-family="Times,serif" font-size="14.00">terragrunt.hcl</text>
</g>
<!-- aws/poc/management/boot/organizations/roots/organization -->
<g id="node2" class="node">
<title>aws/poc/management/boot/organizations/roots/organization</title>
<polygon fill="#c0c0c0" stroke="#404040" points="738.5,-108 299.5,-108 295.5,-104 295.5,-72 734.5,-72 738.5,-76 738.5,-108"/>
<polyline fill="none" stroke="#404040" points="734.5,-104 295.5,-104 "/>
<polyline fill="none" stroke="#404040" points="734.5,-104 734.5,-72 "/>
<polyline fill="none" stroke="#404040" points="734.5,-104 738.5,-108 "/>
<text text-anchor="middle" x="517" y="-86.3" font-family="Times,serif" font-size="14.00">aws/poc/management/boot/organizations/roots/organization</text>
</g>
<!-- aws/poc/management/boot/organizations/roots/organization&#45;&gt;terragrunt.hcl -->
<g id="edge1" class="edge">
<title>aws/poc/management/boot/organizations/roots/organization&#45;&gt;terragrunt.hcl</title>
<path fill="none" stroke="#808080" d="M482.02,-71.88C462.8,-62.47 438.77,-50.71 418.26,-40.67"/>
<polygon fill="#808080" stroke="#808080" points="419.64,-37.44 409.12,-36.19 416.56,-43.73 419.64,-37.44"/>
</g>
<!-- aws/poc/management/boot/organizations/units/workloads -->
<g id="node3" class="node">
<title>aws/poc/management/boot/organizations/units/workloads</title>
<polygon fill="#c0c0c0" stroke="#404040" points="766,-180 344,-180 340,-176 340,-144 762,-144 766,-148 766,-180"/>
<polyline fill="none" stroke="#404040" points="762,-176 340,-176 "/>
<polyline fill="none" stroke="#404040" points="762,-176 762,-144 "/>
<polyline fill="none" stroke="#404040" points="762,-176 766,-180 "/>
<text text-anchor="middle" x="553" y="-158.3" font-family="Times,serif" font-size="14.00">aws/poc/management/boot/organizations/units/workloads</text>
</g>
<!-- aws/poc/management/boot/organizations/units/workloads&#45;&gt;aws/poc/management/boot/organizations/roots/organization -->
<g id="edge2" class="edge">
<title>aws/poc/management/boot/organizations/units/workloads&#45;&gt;aws/poc/management/boot/organizations/roots/organization</title>
<path fill="none" stroke="#808080" d="M544.1,-143.7C540,-135.73 535.05,-126.1 530.51,-117.26"/>
<polygon fill="#808080" stroke="#808080" points="533.48,-115.4 525.8,-108.1 527.26,-118.6 533.48,-115.4"/>
</g>
<!-- aws/poc/management/boot/terraform&#45;state -->
<g id="node4" class="node">
<title>aws/poc/management/boot/terraform&#45;state</title>
<polygon fill="#c0c0c0" stroke="#404040" points="322,-180 4,-180 0,-176 0,-144 318,-144 322,-148 322,-180"/>
<polyline fill="none" stroke="#404040" points="318,-176 0,-176 "/>
<polyline fill="none" stroke="#404040" points="318,-176 318,-144 "/>
<polyline fill="none" stroke="#404040" points="318,-176 322,-180 "/>
<text text-anchor="middle" x="161" y="-158.3" font-family="Times,serif" font-size="14.00">aws/poc/management/boot/terraform&#45;state</text>
</g>
<!-- aws/poc/management/boot/terraform&#45;state&#45;&gt;terragrunt.hcl -->
<g id="edge3" class="edge">
<title>aws/poc/management/boot/terraform&#45;state&#45;&gt;terragrunt.hcl</title>
<path fill="none" stroke="#808080" d="M184.13,-143.72C208.94,-125.38 249.69,-95.81 286,-72 301.96,-61.54 319.95,-50.56 335.49,-41.33"/>
<polygon fill="#808080" stroke="#808080" points="337.49,-44.21 344.32,-36.11 333.93,-38.18 337.49,-44.21"/>
</g>
<!-- aws/poc/management/dev/organizations/accounts/workload&#45;example&#45;dev -->
<g id="node5" class="node">
<title>aws/poc/management/dev/organizations/accounts/workload&#45;example&#45;dev</title>
<polygon fill="#c0c0c0" stroke="#404040" points="723,-324 193,-324 189,-320 189,-288 719,-288 723,-292 723,-324"/>
<polyline fill="none" stroke="#404040" points="719,-320 189,-320 "/>
<polyline fill="none" stroke="#404040" points="719,-320 719,-288 "/>
<polyline fill="none" stroke="#404040" points="719,-320 723,-324 "/>
<text text-anchor="middle" x="456" y="-302.3" font-family="Times,serif" font-size="14.00">aws/poc/management/dev/organizations/accounts/workload&#45;example&#45;dev</text>
</g>
<!-- aws/poc/management/dev/organizations/units/workloads&#45;dev -->
<g id="node6" class="node">
<title>aws/poc/management/dev/organizations/units/workloads&#45;dev</title>
<polygon fill="#c0c0c0" stroke="#404040" points="702,-252 256,-252 252,-248 252,-216 698,-216 702,-220 702,-252"/>
<polyline fill="none" stroke="#404040" points="698,-248 252,-248 "/>
<polyline fill="none" stroke="#404040" points="698,-248 698,-216 "/>
<polyline fill="none" stroke="#404040" points="698,-248 702,-252 "/>
<text text-anchor="middle" x="477" y="-230.3" font-family="Times,serif" font-size="14.00">aws/poc/management/dev/organizations/units/workloads&#45;dev</text>
</g>
<!-- aws/poc/management/dev/organizations/accounts/workload&#45;example&#45;dev&#45;&gt;aws/poc/management/dev/organizations/units/workloads&#45;dev -->
<g id="edge4" class="edge">
<title>aws/poc/management/dev/organizations/accounts/workload&#45;example&#45;dev&#45;&gt;aws/poc/management/dev/organizations/units/workloads&#45;dev</title>
<path fill="none" stroke="#808080" d="M461.19,-287.7C463.53,-279.9 466.35,-270.51 468.95,-261.83"/>
<polygon fill="#808080" stroke="#808080" points="472.35,-262.69 471.87,-252.1 465.64,-260.68 472.35,-262.69"/>
</g>
<!-- aws/poc/management/dev/organizations/units/workloads&#45;dev&#45;&gt;aws/poc/management/boot/organizations/units/workloads -->
<g id="edge5" class="edge">
<title>aws/poc/management/dev/organizations/units/workloads&#45;dev&#45;&gt;aws/poc/management/boot/organizations/units/workloads</title>
<path fill="none" stroke="#808080" d="M495.79,-215.7C505.17,-207.05 516.68,-196.45 526.91,-187.03"/>
<polygon fill="#808080" stroke="#808080" points="529.45,-189.45 534.43,-180.1 524.7,-184.3 529.45,-189.45"/>
</g>
<!-- aws/poc/management/prod/iam/access -->
<g id="node7" class="node">
<title>aws/poc/management/prod/iam/access</title>
<polygon fill="#c0c0c0" stroke="#404040" points="601,-396 315,-396 311,-392 311,-360 597,-360 601,-364 601,-396"/>
<polyline fill="none" stroke="#404040" points="597,-392 311,-392 "/>
<polyline fill="none" stroke="#404040" points="597,-392 597,-360 "/>
<polyline fill="none" stroke="#404040" points="597,-392 601,-396 "/>
<text text-anchor="middle" x="456" y="-374.3" font-family="Times,serif" font-size="14.00">aws/poc/management/prod/iam/access</text>
</g>
<!-- aws/poc/management/prod/iam/access&#45;&gt;aws/poc/management/boot/terraform&#45;state -->
<g id="edge6" class="edge">
<title>aws/poc/management/prod/iam/access&#45;&gt;aws/poc/management/boot/terraform&#45;state</title>
<path fill="none" stroke="#808080" d="M310.68,-364.65C254.26,-356.76 198.69,-344.1 180,-324 146.47,-287.96 149.89,-226.01 155.42,-190.38"/>
<polygon fill="#808080" stroke="#808080" points="158.92,-190.67 157.16,-180.23 152.02,-189.49 158.92,-190.67"/>
</g>
<!-- aws/poc/management/prod/iam/access&#45;&gt;aws/poc/management/dev/organizations/accounts/workload&#45;example&#45;dev -->
<g id="edge7" class="edge">
<title>aws/poc/management/prod/iam/access&#45;&gt;aws/poc/management/dev/organizations/accounts/workload&#45;example&#45;dev</title>
<path fill="none" stroke="#808080" d="M456,-359.7C456,-351.98 456,-342.71 456,-334.11"/>
<polygon fill="#808080" stroke="#808080" points="459.5,-334.1 456,-324.1 452.5,-334.1 459.5,-334.1"/>
</g>
<!-- aws/poc/management/prod/organizations/accounts/workload&#45;example&#45;prod -->
<g id="node8" class="node">
<title>aws/poc/management/prod/organizations/accounts/workload&#45;example&#45;prod</title>
<polygon fill="#c0c0c0" stroke="#404040" points="1290.5,-324 745.5,-324 741.5,-320 741.5,-288 1286.5,-288 1290.5,-292 1290.5,-324"/>
<polyline fill="none" stroke="#404040" points="1286.5,-320 741.5,-320 "/>
<polyline fill="none" stroke="#404040" points="1286.5,-320 1286.5,-288 "/>
<polyline fill="none" stroke="#404040" points="1286.5,-320 1290.5,-324 "/>
<text text-anchor="middle" x="1016" y="-302.3" font-family="Times,serif" font-size="14.00">aws/poc/management/prod/organizations/accounts/workload&#45;example&#45;prod</text>
</g>
<!-- aws/poc/management/prod/iam/access&#45;&gt;aws/poc/management/prod/organizations/accounts/workload&#45;example&#45;prod -->
<g id="edge8" class="edge">
<title>aws/poc/management/prod/iam/access&#45;&gt;aws/poc/management/prod/organizations/accounts/workload&#45;example&#45;prod</title>
<path fill="none" stroke="#808080" d="M592.28,-359.97C676.2,-349.47 783.77,-336.03 869.52,-325.31"/>
<polygon fill="#808080" stroke="#808080" points="870.11,-328.76 879.6,-324.05 869.24,-321.82 870.11,-328.76"/>
</g>
<!-- aws/poc/management/prod/organizations/units/workloads&#45;prod -->
<g id="node9" class="node">
<title>aws/poc/management/prod/organizations/units/workloads&#45;prod</title>
<polygon fill="#c0c0c0" stroke="#404040" points="1227.5,-252 766.5,-252 762.5,-248 762.5,-216 1223.5,-216 1227.5,-220 1227.5,-252"/>
<polyline fill="none" stroke="#404040" points="1223.5,-248 762.5,-248 "/>
<polyline fill="none" stroke="#404040" points="1223.5,-248 1223.5,-216 "/>
<polyline fill="none" stroke="#404040" points="1223.5,-248 1227.5,-252 "/>
<text text-anchor="middle" x="995" y="-230.3" font-family="Times,serif" font-size="14.00">aws/poc/management/prod/organizations/units/workloads&#45;prod</text>
</g>
<!-- aws/poc/management/prod/organizations/accounts/workload&#45;example&#45;prod&#45;&gt;aws/poc/management/prod/organizations/units/workloads&#45;prod -->
<g id="edge9" class="edge">
<title>aws/poc/management/prod/organizations/accounts/workload&#45;example&#45;prod&#45;&gt;aws/poc/management/prod/organizations/units/workloads&#45;prod</title>
<path fill="none" stroke="#808080" d="M1010.81,-287.7C1008.47,-279.9 1005.65,-270.51 1003.05,-261.83"/>
<polygon fill="#808080" stroke="#808080" points="1006.36,-260.68 1000.13,-252.1 999.65,-262.69 1006.36,-260.68"/>
</g>
<!-- aws/poc/management/prod/organizations/units/workloads&#45;prod&#45;&gt;aws/poc/management/boot/organizations/units/workloads -->
<g id="edge10" class="edge">
<title>aws/poc/management/prod/organizations/units/workloads&#45;prod&#45;&gt;aws/poc/management/boot/organizations/units/workloads</title>
<path fill="none" stroke="#808080" d="M887.44,-215.97C821.94,-205.59 738.19,-192.33 670.89,-181.67"/>
<polygon fill="#808080" stroke="#808080" points="671.08,-178.16 660.66,-180.05 669.99,-185.07 671.08,-178.16"/>
</g>
</g>
</svg>
