<?xml version="1.0" encoding="UTF-8" standalone="no"?>
<!DOCTYPE svg PUBLIC "-//W3C//DTD SVG 1.1//EN"
 "http://www.w3.org/Graphics/SVG/1.1/DTD/svg11.dtd">
<!-- Generated by graphviz version 2.43.0 (0)
 -->
<!-- Title: %3 Pages: 1 -->
<svg width="1299pt" height="404pt"
 viewBox="0.00 0.00 1298.50 404.00" xmlns="http://www.w3.org/2000/svg" xmlns:xlink="http://www.w3.org/1999/xlink">
<g id="graph0" class="graph" transform="scale(1 1) rotate(0) translate(4 400)">
<title>%3</title>
<polygon fill="transparent" stroke="transparent" points="-4,4 -4,-400 1294.5,-400 1294.5,4 -4,4"/>
<!-- terragrunt.hcl -->
<g id="node1" class="node">
<title>terragrunt.hcl</title>
<polygon fill="#4179ea" stroke="#5754dd" points="433,-36 321,-36 321,0 439,0 439,-30 433,-36"/>
<polyline fill="none" stroke="#5754dd" points="433,-36 433,-30 "/>
<polyline fill="none" stroke="#5754dd" points="439,-30 433,-30 "/>
<text text-anchor="middle" x="380" y="-14.3" font-family="Times,serif" font-size="14.00" fill="#c9d1d8">terragrunt.hcl</text>
</g>
<!-- aws/poc/management/boot/organizations/root -->
<g id="node2" class="node">
<title>aws/poc/management/boot/organizations/root</title>
<polygon fill="#4447cc" stroke="#5754dd" points="675,-108 337,-108 333,-104 333,-72 671,-72 675,-76 675,-108"/>
<polyline fill="none" stroke="#5754dd" points="671,-104 333,-104 "/>
<polyline fill="none" stroke="#5754dd" points="671,-104 671,-72 "/>
<polyline fill="none" stroke="#5754dd" points="671,-104 675,-108 "/>
<text text-anchor="middle" x="504" y="-86.3" font-family="Times,serif" font-size="14.00" fill="#c9d1d8">aws/poc/management/boot/organizations/root</text>
</g>
<!-- aws/poc/management/boot/organizations/root&#45;&gt;terragrunt.hcl -->
<g id="edge1" class="edge">
<title>aws/poc/management/boot/organizations/root&#45;&gt;terragrunt.hcl</title>
<path fill="none" stroke="#4ba8f1" d="M473.67,-71.88C457.3,-62.64 436.92,-51.13 419.35,-41.21"/>
<polygon fill="#4ba8f1" stroke="#4ba8f1" points="420.88,-38.06 410.45,-36.19 417.44,-44.15 420.88,-38.06"/>
</g>
<!-- aws/poc/management/boot/organizations/units/workloads -->
<g id="node3" class="node">
<title>aws/poc/management/boot/organizations/units/workloads</title>
<polygon fill="#4447cc" stroke="#5754dd" points="766,-180 344,-180 340,-176 340,-144 762,-144 766,-148 766,-180"/>
<polyline fill="none" stroke="#5754dd" points="762,-176 340,-176 "/>
<polyline fill="none" stroke="#5754dd" points="762,-176 762,-144 "/>
<polyline fill="none" stroke="#5754dd" points="762,-176 766,-180 "/>
<text text-anchor="middle" x="553" y="-158.3" font-family="Times,serif" font-size="14.00" fill="#c9d1d8">aws/poc/management/boot/organizations/units/workloads</text>
</g>
<!-- aws/poc/management/boot/organizations/units/workloads&#45;&gt;aws/poc/management/boot/organizations/root -->
<g id="edge2" class="edge">
<title>aws/poc/management/boot/organizations/units/workloads&#45;&gt;aws/poc/management/boot/organizations/root</title>
<path fill="none" stroke="#4ba8f1" d="M540.89,-143.7C535.13,-135.47 528.14,-125.48 521.79,-116.42"/>
<polygon fill="#4ba8f1" stroke="#4ba8f1" points="524.58,-114.29 515.97,-108.1 518.84,-118.3 524.58,-114.29"/>
</g>
<!-- aws/poc/management/boot/terraform&#45;state -->
<g id="node4" class="node">
<title>aws/poc/management/boot/terraform&#45;state</title>
<polygon fill="#4447cc" stroke="#5754dd" points="322,-180 4,-180 0,-176 0,-144 318,-144 322,-148 322,-180"/>
<polyline fill="none" stroke="#5754dd" points="318,-176 0,-176 "/>
<polyline fill="none" stroke="#5754dd" points="318,-176 318,-144 "/>
<polyline fill="none" stroke="#5754dd" points="318,-176 322,-180 "/>
<text text-anchor="middle" x="161" y="-158.3" font-family="Times,serif" font-size="14.00" fill="#c9d1d8">aws/poc/management/boot/terraform&#45;state</text>
</g>
<!-- aws/poc/management/boot/terraform&#45;state&#45;&gt;terragrunt.hcl -->
<g id="edge3" class="edge">
<title>aws/poc/management/boot/terraform&#45;state&#45;&gt;terragrunt.hcl</title>
<path fill="none" stroke="#4ba8f1" d="M187.42,-143.87C226.8,-118.34 300.95,-70.25 344.87,-41.78"/>
<polygon fill="#4ba8f1" stroke="#4ba8f1" points="347,-44.57 353.49,-36.19 343.2,-38.69 347,-44.57"/>
</g>
<!-- aws/poc/management/dev/organizations/accounts/workload&#45;example&#45;dev -->
<g id="node5" class="node">
<title>aws/poc/management/dev/organizations/accounts/workload&#45;example&#45;dev</title>
<polygon fill="#4447cc" stroke="#5754dd" points="723,-324 193,-324 189,-320 189,-288 719,-288 723,-292 723,-324"/>
<polyline fill="none" stroke="#5754dd" points="719,-320 189,-320 "/>
<polyline fill="none" stroke="#5754dd" points="719,-320 719,-288 "/>
<polyline fill="none" stroke="#5754dd" points="719,-320 723,-324 "/>
<text text-anchor="middle" x="456" y="-302.3" font-family="Times,serif" font-size="14.00" fill="#c9d1d8">aws/poc/management/dev/organizations/accounts/workload&#45;example&#45;dev</text>
</g>
<!-- aws/poc/management/dev/organizations/units/workloads&#45;dev -->
<g id="node6" class="node">
<title>aws/poc/management/dev/organizations/units/workloads&#45;dev</title>
<polygon fill="#4447cc" stroke="#5754dd" points="702,-252 256,-252 252,-248 252,-216 698,-216 702,-220 702,-252"/>
<polyline fill="none" stroke="#5754dd" points="698,-248 252,-248 "/>
<polyline fill="none" stroke="#5754dd" points="698,-248 698,-216 "/>
<polyline fill="none" stroke="#5754dd" points="698,-248 702,-252 "/>
<text text-anchor="middle" x="477" y="-230.3" font-family="Times,serif" font-size="14.00" fill="#c9d1d8">aws/poc/management/dev/organizations/units/workloads&#45;dev</text>
</g>
<!-- aws/poc/management/dev/organizations/accounts/workload&#45;example&#45;dev&#45;&gt;aws/poc/management/dev/organizations/units/workloads&#45;dev -->
<g id="edge4" class="edge">
<title>aws/poc/management/dev/organizations/accounts/workload&#45;example&#45;dev&#45;&gt;aws/poc/management/dev/organizations/units/workloads&#45;dev</title>
<path fill="none" stroke="#4ba8f1" d="M461.19,-287.7C463.53,-279.9 466.35,-270.51 468.95,-261.83"/>
<polygon fill="#4ba8f1" stroke="#4ba8f1" points="472.35,-262.69 471.87,-252.1 465.64,-260.68 472.35,-262.69"/>
</g>
<!-- aws/poc/management/dev/organizations/units/workloads&#45;dev&#45;&gt;aws/poc/management/boot/organizations/units/workloads -->
<g id="edge5" class="edge">
<title>aws/poc/management/dev/organizations/units/workloads&#45;dev&#45;&gt;aws/poc/management/boot/organizations/units/workloads</title>
<path fill="none" stroke="#4ba8f1" d="M495.79,-215.7C505.17,-207.05 516.68,-196.45 526.91,-187.03"/>
<polygon fill="#4ba8f1" stroke="#4ba8f1" points="529.45,-189.45 534.43,-180.1 524.7,-184.3 529.45,-189.45"/>
</g>
<!-- aws/poc/management/prod/iam/access -->
<g id="node7" class="node">
<title>aws/poc/management/prod/iam/access</title>
<polygon fill="#4447cc" stroke="#5754dd" points="601,-396 315,-396 311,-392 311,-360 597,-360 601,-364 601,-396"/>
<polyline fill="none" stroke="#5754dd" points="597,-392 311,-392 "/>
<polyline fill="none" stroke="#5754dd" points="597,-392 597,-360 "/>
<polyline fill="none" stroke="#5754dd" points="597,-392 601,-396 "/>
<text text-anchor="middle" x="456" y="-374.3" font-family="Times,serif" font-size="14.00" fill="#c9d1d8">aws/poc/management/prod/iam/access</text>
</g>
<!-- aws/poc/management/prod/iam/access&#45;&gt;aws/poc/management/boot/terraform&#45;state -->
<g id="edge6" class="edge">
<title>aws/poc/management/prod/iam/access&#45;&gt;aws/poc/management/boot/terraform&#45;state</title>
<path fill="none" stroke="#4ba8f1" d="M310.68,-364.65C254.26,-356.76 198.69,-344.1 180,-324 146.47,-287.96 149.89,-226.01 155.42,-190.38"/>
<polygon fill="#4ba8f1" stroke="#4ba8f1" points="158.92,-190.67 157.16,-180.23 152.02,-189.49 158.92,-190.67"/>
</g>
<!-- aws/poc/management/prod/iam/access&#45;&gt;aws/poc/management/dev/organizations/accounts/workload&#45;example&#45;dev -->
<g id="edge7" class="edge">
<title>aws/poc/management/prod/iam/access&#45;&gt;aws/poc/management/dev/organizations/accounts/workload&#45;example&#45;dev</title>
<path fill="none" stroke="#4ba8f1" d="M456,-359.7C456,-351.98 456,-342.71 456,-334.11"/>
<polygon fill="#4ba8f1" stroke="#4ba8f1" points="459.5,-334.1 456,-324.1 452.5,-334.1 459.5,-334.1"/>
</g>
<!-- aws/poc/management/prod/organizations/accounts/workload&#45;example&#45;prod -->
<g id="node8" class="node">
<title>aws/poc/management/prod/organizations/accounts/workload&#45;example&#45;prod</title>
<polygon fill="#4447cc" stroke="#5754dd" points="1290.5,-324 745.5,-324 741.5,-320 741.5,-288 1286.5,-288 1290.5,-292 1290.5,-324"/>
<polyline fill="none" stroke="#5754dd" points="1286.5,-320 741.5,-320 "/>
<polyline fill="none" stroke="#5754dd" points="1286.5,-320 1286.5,-288 "/>
<polyline fill="none" stroke="#5754dd" points="1286.5,-320 1290.5,-324 "/>
<text text-anchor="middle" x="1016" y="-302.3" font-family="Times,serif" font-size="14.00" fill="#c9d1d8">aws/poc/management/prod/organizations/accounts/workload&#45;example&#45;prod</text>
</g>
<!-- aws/poc/management/prod/iam/access&#45;&gt;aws/poc/management/prod/organizations/accounts/workload&#45;example&#45;prod -->
<g id="edge8" class="edge">
<title>aws/poc/management/prod/iam/access&#45;&gt;aws/poc/management/prod/organizations/accounts/workload&#45;example&#45;prod</title>
<path fill="none" stroke="#4ba8f1" d="M592.28,-359.97C676.2,-349.47 783.77,-336.03 869.52,-325.31"/>
<polygon fill="#4ba8f1" stroke="#4ba8f1" points="870.11,-328.76 879.6,-324.05 869.24,-321.82 870.11,-328.76"/>
</g>
<!-- aws/poc/management/prod/organizations/units/workloads&#45;prod -->
<g id="node9" class="node">
<title>aws/poc/management/prod/organizations/units/workloads&#45;prod</title>
<polygon fill="#4447cc" stroke="#5754dd" points="1227.5,-252 766.5,-252 762.5,-248 762.5,-216 1223.5,-216 1227.5,-220 1227.5,-252"/>
<polyline fill="none" stroke="#5754dd" points="1223.5,-248 762.5,-248 "/>
<polyline fill="none" stroke="#5754dd" points="1223.5,-248 1223.5,-216 "/>
<polyline fill="none" stroke="#5754dd" points="1223.5,-248 1227.5,-252 "/>
<text text-anchor="middle" x="995" y="-230.3" font-family="Times,serif" font-size="14.00" fill="#c9d1d8">aws/poc/management/prod/organizations/units/workloads&#45;prod</text>
</g>
<!-- aws/poc/management/prod/organizations/accounts/workload&#45;example&#45;prod&#45;&gt;aws/poc/management/prod/organizations/units/workloads&#45;prod -->
<g id="edge9" class="edge">
<title>aws/poc/management/prod/organizations/accounts/workload&#45;example&#45;prod&#45;&gt;aws/poc/management/prod/organizations/units/workloads&#45;prod</title>
<path fill="none" stroke="#4ba8f1" d="M1010.81,-287.7C1008.47,-279.9 1005.65,-270.51 1003.05,-261.83"/>
<polygon fill="#4ba8f1" stroke="#4ba8f1" points="1006.36,-260.68 1000.13,-252.1 999.65,-262.69 1006.36,-260.68"/>
</g>
<!-- aws/poc/management/prod/organizations/units/workloads&#45;prod&#45;&gt;aws/poc/management/boot/organizations/units/workloads -->
<g id="edge10" class="edge">
<title>aws/poc/management/prod/organizations/units/workloads&#45;prod&#45;&gt;aws/poc/management/boot/organizations/units/workloads</title>
<path fill="none" stroke="#4ba8f1" d="M887.44,-215.97C821.94,-205.59 738.19,-192.33 670.89,-181.67"/>
<polygon fill="#4ba8f1" stroke="#4ba8f1" points="671.08,-178.16 660.66,-180.05 669.99,-185.07 671.08,-178.16"/>
</g>
</g>
</svg>
