<?xml version="1.0" encoding="UTF-8" standalone="no"?>
<!DOCTYPE svg PUBLIC "-//W3C//DTD SVG 1.1//EN"
 "http://www.w3.org/Graphics/SVG/1.1/DTD/svg11.dtd">
<!-- Generated by graphviz version 2.43.0 (0)
 -->
<!-- Title: %3 Pages: 1 -->
<svg width="1689pt" height="404pt"
 viewBox="0.00 0.00 1688.78 404.00" xmlns="http://www.w3.org/2000/svg" xmlns:xlink="http://www.w3.org/1999/xlink">
<g id="graph0" class="graph" transform="scale(1 1) rotate(0) translate(4 400)">
<title>%3</title>
<polygon fill="transparent" stroke="transparent" points="-4,4 -4,-400 1684.78,-400 1684.78,4 -4,4"/>
<!-- terragrunt.hcl -->
<g id="node1" class="node">
<title>terragrunt.hcl</title>
<polygon fill="#4179ea" stroke="#5754dd" points="482.28,-36 370.28,-36 370.28,0 488.28,0 488.28,-30 482.28,-36"/>
<polyline fill="none" stroke="#5754dd" points="482.28,-36 482.28,-30 "/>
<polyline fill="none" stroke="#5754dd" points="488.28,-30 482.28,-30 "/>
<text text-anchor="middle" x="429.28" y="-14.3" font-family="Times,serif" font-size="14.00" fill="#c9d1d8">terragrunt.hcl</text>
</g>
<!-- aws/poc/management/boot/organizations/root -->
<g id="node2" class="node">
<title>aws/poc/management/boot/organizations/root</title>
<polygon fill="#4447cc" stroke="#5754dd" points="752.28,-108 414.28,-108 410.28,-104 410.28,-72 748.28,-72 752.28,-76 752.28,-108"/>
<polyline fill="none" stroke="#5754dd" points="748.28,-104 410.28,-104 "/>
<polyline fill="none" stroke="#5754dd" points="748.28,-104 748.28,-72 "/>
<polyline fill="none" stroke="#5754dd" points="748.28,-104 752.28,-108 "/>
<text text-anchor="middle" x="581.28" y="-86.3" font-family="Times,serif" font-size="14.00" fill="#c9d1d8">aws/poc/management/boot/organizations/root</text>
</g>
<!-- aws/poc/management/boot/organizations/root&#45;&gt;terragrunt.hcl -->
<g id="edge1" class="edge">
<title>aws/poc/management/boot/organizations/root&#45;&gt;terragrunt.hcl</title>
<path fill="none" stroke="#4ba8f1" d="M544.1,-71.88C523.41,-62.35 497.48,-50.41 475.5,-40.28"/>
<polygon fill="#4ba8f1" stroke="#4ba8f1" points="476.89,-37.07 466.35,-36.07 473.96,-43.43 476.89,-37.07"/>
</g>
<!-- aws/poc/management/boot/organizations/units/workloads -->
<g id="node3" class="node">
<title>aws/poc/management/boot/organizations/units/workloads</title>
<polygon fill="#4447cc" stroke="#5754dd" points="900.28,-180 478.28,-180 474.28,-176 474.28,-144 896.28,-144 900.28,-148 900.28,-180"/>
<polyline fill="none" stroke="#5754dd" points="896.28,-176 474.28,-176 "/>
<polyline fill="none" stroke="#5754dd" points="896.28,-176 896.28,-144 "/>
<polyline fill="none" stroke="#5754dd" points="896.28,-176 900.28,-180 "/>
<text text-anchor="middle" x="687.28" y="-158.3" font-family="Times,serif" font-size="14.00" fill="#c9d1d8">aws/poc/management/boot/organizations/units/workloads</text>
</g>
<!-- aws/poc/management/boot/organizations/units/workloads&#45;&gt;aws/poc/management/boot/organizations/root -->
<g id="edge2" class="edge">
<title>aws/poc/management/boot/organizations/units/workloads&#45;&gt;aws/poc/management/boot/organizations/root</title>
<path fill="none" stroke="#4ba8f1" d="M661.35,-143.88C647.62,-134.81 630.58,-123.55 615.75,-113.76"/>
<polygon fill="#4ba8f1" stroke="#4ba8f1" points="617.59,-110.78 607.31,-108.19 613.73,-116.62 617.59,-110.78"/>
</g>
<!-- aws/poc/management/boot/terraform&#45;state -->
<g id="node4" class="node">
<title>aws/poc/management/boot/terraform&#45;state</title>
<polygon fill="#4447cc" stroke="#5754dd" points="342.28,-180 24.28,-180 20.28,-176 20.28,-144 338.28,-144 342.28,-148 342.28,-180"/>
<polyline fill="none" stroke="#5754dd" points="338.28,-176 20.28,-176 "/>
<polyline fill="none" stroke="#5754dd" points="338.28,-176 338.28,-144 "/>
<polyline fill="none" stroke="#5754dd" points="338.28,-176 342.28,-180 "/>
<text text-anchor="middle" x="181.28" y="-158.3" font-family="Times,serif" font-size="14.00" fill="#c9d1d8">aws/poc/management/boot/terraform&#45;state</text>
</g>
<!-- aws/poc/management/boot/terraform&#45;state&#45;&gt;terragrunt.hcl -->
<g id="edge3" class="edge">
<title>aws/poc/management/boot/terraform&#45;state&#45;&gt;terragrunt.hcl</title>
<path fill="none" stroke="#4ba8f1" d="M211.2,-143.87C256.07,-118.18 340.82,-69.65 390.43,-41.25"/>
<polygon fill="#4ba8f1" stroke="#4ba8f1" points="392.32,-44.2 399.26,-36.19 388.85,-38.12 392.32,-44.2"/>
</g>
<!-- aws/poc/management/dev/organizations/accounts/workload&#45;example&#45;dev -->
<g id="node5" class="node">
<title>aws/poc/management/dev/organizations/accounts/workload&#45;example&#45;dev</title>
<polygon fill="#4447cc" stroke="#5754dd" points="556.28,-324 26.28,-324 22.28,-320 22.28,-288 552.28,-288 556.28,-292 556.28,-324"/>
<polyline fill="none" stroke="#5754dd" points="552.28,-320 22.28,-320 "/>
<polyline fill="none" stroke="#5754dd" points="552.28,-320 552.28,-288 "/>
<polyline fill="none" stroke="#5754dd" points="552.28,-320 556.28,-324 "/>
<text text-anchor="middle" x="289.28" y="-302.3" font-family="Times,serif" font-size="14.00" fill="#c9d1d8">aws/poc/management/dev/organizations/accounts/workload&#45;example&#45;dev</text>
</g>
<!-- aws/poc/management/dev/organizations/units/workloads&#45;dev -->
<g id="node6" class="node">
<title>aws/poc/management/dev/organizations/units/workloads&#45;dev</title>
<polygon fill="#4447cc" stroke="#5754dd" points="535.28,-252 89.28,-252 85.28,-248 85.28,-216 531.28,-216 535.28,-220 535.28,-252"/>
<polyline fill="none" stroke="#5754dd" points="531.28,-248 85.28,-248 "/>
<polyline fill="none" stroke="#5754dd" points="531.28,-248 531.28,-216 "/>
<polyline fill="none" stroke="#5754dd" points="531.28,-248 535.28,-252 "/>
<text text-anchor="middle" x="310.28" y="-230.3" font-family="Times,serif" font-size="14.00" fill="#c9d1d8">aws/poc/management/dev/organizations/units/workloads&#45;dev</text>
</g>
<!-- aws/poc/management/dev/organizations/accounts/workload&#45;example&#45;dev&#45;&gt;aws/poc/management/dev/organizations/units/workloads&#45;dev -->
<g id="edge4" class="edge">
<title>aws/poc/management/dev/organizations/accounts/workload&#45;example&#45;dev&#45;&gt;aws/poc/management/dev/organizations/units/workloads&#45;dev</title>
<path fill="none" stroke="#4ba8f1" d="M294.47,-287.7C296.81,-279.9 299.63,-270.51 302.23,-261.83"/>
<polygon fill="#4ba8f1" stroke="#4ba8f1" points="305.63,-262.69 305.15,-252.1 298.93,-260.68 305.63,-262.69"/>
</g>
<!-- aws/poc/management/dev/organizations/units/workloads&#45;dev&#45;&gt;aws/poc/management/boot/organizations/units/workloads -->
<g id="edge5" class="edge">
<title>aws/poc/management/dev/organizations/units/workloads&#45;dev&#45;&gt;aws/poc/management/boot/organizations/units/workloads</title>
<path fill="none" stroke="#4ba8f1" d="M402.03,-215.97C457.44,-205.68 528.15,-192.55 585.31,-181.93"/>
<polygon fill="#4ba8f1" stroke="#4ba8f1" points="586.26,-185.32 595.46,-180.05 584.99,-178.43 586.26,-185.32"/>
</g>
<!-- aws/poc/management/prod/iam/access -->
<g id="node7" class="node">
<title>aws/poc/management/prod/iam/access</title>
<polygon fill="#4447cc" stroke="#5754dd" points="711.28,-396 425.28,-396 421.28,-392 421.28,-360 707.28,-360 711.28,-364 711.28,-396"/>
<polyline fill="none" stroke="#5754dd" points="707.28,-392 421.28,-392 "/>
<polyline fill="none" stroke="#5754dd" points="707.28,-392 707.28,-360 "/>
<polyline fill="none" stroke="#5754dd" points="707.28,-392 711.28,-396 "/>
<text text-anchor="middle" x="566.28" y="-374.3" font-family="Times,serif" font-size="14.00" fill="#c9d1d8">aws/poc/management/prod/iam/access</text>
</g>
<!-- aws/poc/management/prod/iam/access&#45;&gt;aws/poc/management/boot/terraform&#45;state -->
<g id="edge6" class="edge">
<title>aws/poc/management/prod/iam/access&#45;&gt;aws/poc/management/boot/terraform&#45;state</title>
<path fill="none" stroke="#4ba8f1" d="M421.02,-373C266.42,-367.21 40.3,-353.73 13.28,-324 -34.88,-271 64.23,-214.19 129.73,-184.27"/>
<polygon fill="#4ba8f1" stroke="#4ba8f1" points="131.44,-187.34 139.13,-180.06 128.58,-180.96 131.44,-187.34"/>
</g>
<!-- aws/poc/management/prod/iam/access&#45;&gt;aws/poc/management/dev/organizations/accounts/workload&#45;example&#45;dev -->
<g id="edge7" class="edge">
<title>aws/poc/management/prod/iam/access&#45;&gt;aws/poc/management/dev/organizations/accounts/workload&#45;example&#45;dev</title>
<path fill="none" stroke="#4ba8f1" d="M498.88,-359.97C458.99,-349.89 408.32,-337.08 366.79,-326.59"/>
<polygon fill="#4ba8f1" stroke="#4ba8f1" points="367.55,-323.17 356.99,-324.11 365.83,-329.95 367.55,-323.17"/>
</g>
<!-- aws/poc/management/test/organizations/accounts/workload&#45;example&#45;test -->
<g id="node8" class="node">
<title>aws/poc/management/test/organizations/accounts/workload&#45;example&#45;test</title>
<polygon fill="#4447cc" stroke="#5754dd" points="1113.78,-324 578.78,-324 574.78,-320 574.78,-288 1109.78,-288 1113.78,-292 1113.78,-324"/>
<polyline fill="none" stroke="#5754dd" points="1109.78,-320 574.78,-320 "/>
<polyline fill="none" stroke="#5754dd" points="1109.78,-320 1109.78,-288 "/>
<polyline fill="none" stroke="#5754dd" points="1109.78,-320 1113.78,-324 "/>
<text text-anchor="middle" x="844.28" y="-302.3" font-family="Times,serif" font-size="14.00" fill="#c9d1d8">aws/poc/management/test/organizations/accounts/workload&#45;example&#45;test</text>
</g>
<!-- aws/poc/management/prod/iam/access&#45;&gt;aws/poc/management/test/organizations/accounts/workload&#45;example&#45;test -->
<g id="edge8" class="edge">
<title>aws/poc/management/prod/iam/access&#45;&gt;aws/poc/management/test/organizations/accounts/workload&#45;example&#45;test</title>
<path fill="none" stroke="#4ba8f1" d="M633.93,-359.97C673.96,-349.89 724.81,-337.08 766.49,-326.59"/>
<polygon fill="#4ba8f1" stroke="#4ba8f1" points="767.49,-329.95 776.33,-324.11 765.78,-323.16 767.49,-329.95"/>
</g>
<!-- aws/poc/management/prod/organizations/accounts/workload&#45;example&#45;prod -->
<g id="node9" class="node">
<title>aws/poc/management/prod/organizations/accounts/workload&#45;example&#45;prod</title>
<polygon fill="#4447cc" stroke="#5754dd" points="1680.78,-324 1135.78,-324 1131.78,-320 1131.78,-288 1676.78,-288 1680.78,-292 1680.78,-324"/>
<polyline fill="none" stroke="#5754dd" points="1676.78,-320 1131.78,-320 "/>
<polyline fill="none" stroke="#5754dd" points="1676.78,-320 1676.78,-288 "/>
<polyline fill="none" stroke="#5754dd" points="1676.78,-320 1680.78,-324 "/>
<text text-anchor="middle" x="1406.28" y="-302.3" font-family="Times,serif" font-size="14.00" fill="#c9d1d8">aws/poc/management/prod/organizations/accounts/workload&#45;example&#45;prod</text>
</g>
<!-- aws/poc/management/prod/iam/access&#45;&gt;aws/poc/management/prod/organizations/accounts/workload&#45;example&#45;prod -->
<g id="edge9" class="edge">
<title>aws/poc/management/prod/iam/access&#45;&gt;aws/poc/management/prod/organizations/accounts/workload&#45;example&#45;prod</title>
<path fill="none" stroke="#4ba8f1" d="M711.64,-364.89C844.07,-353.85 1041.37,-337.41 1191.89,-324.87"/>
<polygon fill="#4ba8f1" stroke="#4ba8f1" points="1192.52,-328.33 1202.19,-324.01 1191.93,-321.35 1192.52,-328.33"/>
</g>
<!-- aws/poc/management/test/organizations/units/workloads&#45;test -->
<g id="node11" class="node">
<title>aws/poc/management/test/organizations/units/workloads&#45;test</title>
<polygon fill="#4447cc" stroke="#5754dd" points="1050.78,-252 599.78,-252 595.78,-248 595.78,-216 1046.78,-216 1050.78,-220 1050.78,-252"/>
<polyline fill="none" stroke="#5754dd" points="1046.78,-248 595.78,-248 "/>
<polyline fill="none" stroke="#5754dd" points="1046.78,-248 1046.78,-216 "/>
<polyline fill="none" stroke="#5754dd" points="1046.78,-248 1050.78,-252 "/>
<text text-anchor="middle" x="823.28" y="-230.3" font-family="Times,serif" font-size="14.00" fill="#c9d1d8">aws/poc/management/test/organizations/units/workloads&#45;test</text>
</g>
<!-- aws/poc/management/test/organizations/accounts/workload&#45;example&#45;test&#45;&gt;aws/poc/management/test/organizations/units/workloads&#45;test -->
<g id="edge12" class="edge">
<title>aws/poc/management/test/organizations/accounts/workload&#45;example&#45;test&#45;&gt;aws/poc/management/test/organizations/units/workloads&#45;test</title>
<path fill="none" stroke="#4ba8f1" d="M839.09,-287.7C836.75,-279.9 833.94,-270.51 831.33,-261.83"/>
<polygon fill="#4ba8f1" stroke="#4ba8f1" points="834.64,-260.68 828.41,-252.1 827.94,-262.69 834.64,-260.68"/>
</g>
<!-- aws/poc/management/prod/organizations/units/workloads&#45;prod -->
<g id="node10" class="node">
<title>aws/poc/management/prod/organizations/units/workloads&#45;prod</title>
<polygon fill="#4447cc" stroke="#5754dd" points="1596.78,-252 1135.78,-252 1131.78,-248 1131.78,-216 1592.78,-216 1596.78,-220 1596.78,-252"/>
<polyline fill="none" stroke="#5754dd" points="1592.78,-248 1131.78,-248 "/>
<polyline fill="none" stroke="#5754dd" points="1592.78,-248 1592.78,-216 "/>
<polyline fill="none" stroke="#5754dd" points="1592.78,-248 1596.78,-252 "/>
<text text-anchor="middle" x="1364.28" y="-230.3" font-family="Times,serif" font-size="14.00" fill="#c9d1d8">aws/poc/management/prod/organizations/units/workloads&#45;prod</text>
</g>
<!-- aws/poc/management/prod/organizations/accounts/workload&#45;example&#45;prod&#45;&gt;aws/poc/management/prod/organizations/units/workloads&#45;prod -->
<g id="edge10" class="edge">
<title>aws/poc/management/prod/organizations/accounts/workload&#45;example&#45;prod&#45;&gt;aws/poc/management/prod/organizations/units/workloads&#45;prod</title>
<path fill="none" stroke="#4ba8f1" d="M1395.9,-287.7C1391.02,-279.56 1385.1,-269.69 1379.7,-260.7"/>
<polygon fill="#4ba8f1" stroke="#4ba8f1" points="1382.69,-258.88 1374.55,-252.1 1376.69,-262.48 1382.69,-258.88"/>
</g>
<!-- aws/poc/management/prod/organizations/units/workloads&#45;prod&#45;&gt;aws/poc/management/boot/organizations/units/workloads -->
<g id="edge11" class="edge">
<title>aws/poc/management/prod/organizations/units/workloads&#45;prod&#45;&gt;aws/poc/management/boot/organizations/units/workloads</title>
<path fill="none" stroke="#4ba8f1" d="M1199.54,-215.97C1097.26,-205.39 965.94,-191.81 861.87,-181.05"/>
<polygon fill="#4ba8f1" stroke="#4ba8f1" points="862.19,-177.57 851.89,-180.02 861.47,-184.53 862.19,-177.57"/>
</g>
<!-- aws/poc/management/test/organizations/units/workloads&#45;test&#45;&gt;aws/poc/management/boot/organizations/units/workloads -->
<g id="edge13" class="edge">
<title>aws/poc/management/test/organizations/units/workloads&#45;test&#45;&gt;aws/poc/management/boot/organizations/units/workloads</title>
<path fill="none" stroke="#4ba8f1" d="M790.01,-215.88C771.82,-206.51 749.09,-194.81 729.64,-184.8"/>
<polygon fill="#4ba8f1" stroke="#4ba8f1" points="731.17,-181.65 720.68,-180.19 727.97,-187.88 731.17,-181.65"/>
</g>
</g>
</svg>
