<?xml version="1.0" encoding="UTF-8" standalone="no"?>
<!DOCTYPE svg PUBLIC "-//W3C//DTD SVG 1.1//EN"
 "http://www.w3.org/Graphics/SVG/1.1/DTD/svg11.dtd">
<!-- Generated by graphviz version 2.43.0 (0)
 -->
<!-- Title: %3 Pages: 1 -->
<svg width="1262pt" height="404pt"
 viewBox="0.00 0.00 1261.50 404.00" xmlns="http://www.w3.org/2000/svg" xmlns:xlink="http://www.w3.org/1999/xlink">
<g id="graph0" class="graph" transform="scale(1 1) rotate(0) translate(4 400)">
<title>%3</title>
<polygon fill="transparent" stroke="transparent" points="-4,4 -4,-400 1257.5,-400 1257.5,4 -4,4"/>
<!-- terragrunt.hcl -->
<g id="node1" class="node">
<title>terragrunt.hcl</title>
<polygon fill="#c0c0c0" stroke="#404040" points="367,-36 255,-36 255,0 373,0 373,-30 367,-36"/>
<polyline fill="none" stroke="#404040" points="367,-36 367,-30 "/>
<polyline fill="none" stroke="#404040" points="373,-30 367,-30 "/>
<text text-anchor="middle" x="314" y="-14.3" font-family="Times,serif" font-size="14.00">terragrunt.hcl</text>
</g>
<!-- aws/poc/management/boot/organizations/roots/organization -->
<g id="node2" class="node">
<title>aws/poc/management/boot/organizations/roots/organization</title>
<polygon fill="#c0c0c0" stroke="#404040" points="673.5,-108 234.5,-108 230.5,-104 230.5,-72 669.5,-72 673.5,-76 673.5,-108"/>
<polyline fill="none" stroke="#404040" points="669.5,-104 230.5,-104 "/>
<polyline fill="none" stroke="#404040" points="669.5,-104 669.5,-72 "/>
<polyline fill="none" stroke="#404040" points="669.5,-104 673.5,-108 "/>
<text text-anchor="middle" x="452" y="-86.3" font-family="Times,serif" font-size="14.00">aws/poc/management/boot/organizations/roots/organization</text>
</g>
<!-- aws/poc/management/boot/organizations/roots/organization&#45;&gt;terragrunt.hcl -->
<g id="edge1" class="edge">
<title>aws/poc/management/boot/organizations/roots/organization&#45;&gt;terragrunt.hcl</title>
<path fill="none" stroke="#808080" d="M418.24,-71.88C399.78,-62.51 376.72,-50.81 356.98,-40.8"/>
<polygon fill="#808080" stroke="#808080" points="358.39,-37.59 347.89,-36.19 355.22,-43.83 358.39,-37.59"/>
</g>
<!-- aws/poc/management/boot/organizations/units/workloads -->
<g id="node3" class="node">
<title>aws/poc/management/boot/organizations/units/workloads</title>
<polygon fill="#c0c0c0" stroke="#404040" points="692,-180 270,-180 266,-176 266,-144 688,-144 692,-148 692,-180"/>
<polyline fill="none" stroke="#404040" points="688,-176 266,-176 "/>
<polyline fill="none" stroke="#404040" points="688,-176 688,-144 "/>
<polyline fill="none" stroke="#404040" points="688,-176 692,-180 "/>
<text text-anchor="middle" x="479" y="-158.3" font-family="Times,serif" font-size="14.00">aws/poc/management/boot/organizations/units/workloads</text>
</g>
<!-- aws/poc/management/boot/organizations/units/workloads&#45;&gt;aws/poc/management/boot/organizations/roots/organization -->
<g id="edge2" class="edge">
<title>aws/poc/management/boot/organizations/units/workloads&#45;&gt;aws/poc/management/boot/organizations/roots/organization</title>
<path fill="none" stroke="#808080" d="M472.33,-143.7C469.29,-135.81 465.62,-126.3 462.24,-117.55"/>
<polygon fill="#808080" stroke="#808080" points="465.46,-116.17 458.6,-108.1 458.93,-118.69 465.46,-116.17"/>
</g>
<!-- aws/poc/management/boot/state -->
<g id="node4" class="node">
<title>aws/poc/management/boot/state</title>
<polygon fill="#c0c0c0" stroke="#404040" points="248,-180 4,-180 0,-176 0,-144 244,-144 248,-148 248,-180"/>
<polyline fill="none" stroke="#404040" points="244,-176 0,-176 "/>
<polyline fill="none" stroke="#404040" points="244,-176 244,-144 "/>
<polyline fill="none" stroke="#404040" points="244,-176 248,-180 "/>
<text text-anchor="middle" x="124" y="-158.3" font-family="Times,serif" font-size="14.00">aws/poc/management/boot/state</text>
</g>
<!-- aws/poc/management/boot/state&#45;&gt;terragrunt.hcl -->
<g id="edge3" class="edge">
<title>aws/poc/management/boot/state&#45;&gt;terragrunt.hcl</title>
<path fill="none" stroke="#808080" d="M140.51,-143.68C159.04,-124.77 190.53,-94.22 221,-72 236.44,-60.74 254.48,-49.97 270.54,-41.12"/>
<polygon fill="#808080" stroke="#808080" points="272.6,-43.98 279.73,-36.14 269.27,-37.83 272.6,-43.98"/>
</g>
<!-- aws/poc/management/dev/organizations/accounts/workload&#45;example&#45;dev -->
<g id="node5" class="node">
<title>aws/poc/management/dev/organizations/accounts/workload&#45;example&#45;dev</title>
<polygon fill="#c0c0c0" stroke="#404040" points="686,-324 156,-324 152,-320 152,-288 682,-288 686,-292 686,-324"/>
<polyline fill="none" stroke="#404040" points="682,-320 152,-320 "/>
<polyline fill="none" stroke="#404040" points="682,-320 682,-288 "/>
<polyline fill="none" stroke="#404040" points="682,-320 686,-324 "/>
<text text-anchor="middle" x="419" y="-302.3" font-family="Times,serif" font-size="14.00">aws/poc/management/dev/organizations/accounts/workload&#45;example&#45;dev</text>
</g>
<!-- aws/poc/management/dev/organizations/units/workloads&#45;dev -->
<g id="node6" class="node">
<title>aws/poc/management/dev/organizations/units/workloads&#45;dev</title>
<polygon fill="#c0c0c0" stroke="#404040" points="665,-252 219,-252 215,-248 215,-216 661,-216 665,-220 665,-252"/>
<polyline fill="none" stroke="#404040" points="661,-248 215,-248 "/>
<polyline fill="none" stroke="#404040" points="661,-248 661,-216 "/>
<polyline fill="none" stroke="#404040" points="661,-248 665,-252 "/>
<text text-anchor="middle" x="440" y="-230.3" font-family="Times,serif" font-size="14.00">aws/poc/management/dev/organizations/units/workloads&#45;dev</text>
</g>
<!-- aws/poc/management/dev/organizations/accounts/workload&#45;example&#45;dev&#45;&gt;aws/poc/management/dev/organizations/units/workloads&#45;dev -->
<g id="edge4" class="edge">
<title>aws/poc/management/dev/organizations/accounts/workload&#45;example&#45;dev&#45;&gt;aws/poc/management/dev/organizations/units/workloads&#45;dev</title>
<path fill="none" stroke="#808080" d="M424.19,-287.7C426.53,-279.9 429.35,-270.51 431.95,-261.83"/>
<polygon fill="#808080" stroke="#808080" points="435.35,-262.69 434.87,-252.1 428.64,-260.68 435.35,-262.69"/>
</g>
<!-- aws/poc/management/dev/organizations/units/workloads&#45;dev&#45;&gt;aws/poc/management/boot/organizations/units/workloads -->
<g id="edge5" class="edge">
<title>aws/poc/management/dev/organizations/units/workloads&#45;dev&#45;&gt;aws/poc/management/boot/organizations/units/workloads</title>
<path fill="none" stroke="#808080" d="M449.64,-215.7C454.13,-207.64 459.56,-197.89 464.52,-188.98"/>
<polygon fill="#808080" stroke="#808080" points="467.66,-190.54 469.47,-180.1 461.55,-187.14 467.66,-190.54"/>
</g>
<!-- aws/poc/management/prod/iam/access -->
<g id="node7" class="node">
<title>aws/poc/management/prod/iam/access</title>
<polygon fill="#c0c0c0" stroke="#404040" points="564,-396 278,-396 274,-392 274,-360 560,-360 564,-364 564,-396"/>
<polyline fill="none" stroke="#404040" points="560,-392 274,-392 "/>
<polyline fill="none" stroke="#404040" points="560,-392 560,-360 "/>
<polyline fill="none" stroke="#404040" points="560,-392 564,-396 "/>
<text text-anchor="middle" x="419" y="-374.3" font-family="Times,serif" font-size="14.00">aws/poc/management/prod/iam/access</text>
</g>
<!-- aws/poc/management/prod/iam/access&#45;&gt;aws/poc/management/boot/state -->
<g id="edge6" class="edge">
<title>aws/poc/management/prod/iam/access&#45;&gt;aws/poc/management/boot/state</title>
<path fill="none" stroke="#808080" d="M273.68,-364.65C217.26,-356.76 161.69,-344.1 143,-324 109.47,-287.96 112.89,-226.01 118.42,-190.38"/>
<polygon fill="#808080" stroke="#808080" points="121.92,-190.67 120.16,-180.23 115.02,-189.49 121.92,-190.67"/>
</g>
<!-- aws/poc/management/prod/iam/access&#45;&gt;aws/poc/management/dev/organizations/accounts/workload&#45;example&#45;dev -->
<g id="edge7" class="edge">
<title>aws/poc/management/prod/iam/access&#45;&gt;aws/poc/management/dev/organizations/accounts/workload&#45;example&#45;dev</title>
<path fill="none" stroke="#808080" d="M419,-359.7C419,-351.98 419,-342.71 419,-334.11"/>
<polygon fill="#808080" stroke="#808080" points="422.5,-334.1 419,-324.1 415.5,-334.1 422.5,-334.1"/>
</g>
<!-- aws/poc/management/prod/organizations/accounts/workload&#45;example&#45;prod -->
<g id="node8" class="node">
<title>aws/poc/management/prod/organizations/accounts/workload&#45;example&#45;prod</title>
<polygon fill="#c0c0c0" stroke="#404040" points="1253.5,-324 708.5,-324 704.5,-320 704.5,-288 1249.5,-288 1253.5,-292 1253.5,-324"/>
<polyline fill="none" stroke="#404040" points="1249.5,-320 704.5,-320 "/>
<polyline fill="none" stroke="#404040" points="1249.5,-320 1249.5,-288 "/>
<polyline fill="none" stroke="#404040" points="1249.5,-320 1253.5,-324 "/>
<text text-anchor="middle" x="979" y="-302.3" font-family="Times,serif" font-size="14.00">aws/poc/management/prod/organizations/accounts/workload&#45;example&#45;prod</text>
</g>
<!-- aws/poc/management/prod/iam/access&#45;&gt;aws/poc/management/prod/organizations/accounts/workload&#45;example&#45;prod -->
<g id="edge8" class="edge">
<title>aws/poc/management/prod/iam/access&#45;&gt;aws/poc/management/prod/organizations/accounts/workload&#45;example&#45;prod</title>
<path fill="none" stroke="#808080" d="M555.28,-359.97C639.2,-349.47 746.77,-336.03 832.52,-325.31"/>
<polygon fill="#808080" stroke="#808080" points="833.11,-328.76 842.6,-324.05 832.24,-321.82 833.11,-328.76"/>
</g>
<!-- aws/poc/management/prod/organizations/units/workloads&#45;prod -->
<g id="node9" class="node">
<title>aws/poc/management/prod/organizations/units/workloads&#45;prod</title>
<polygon fill="#c0c0c0" stroke="#404040" points="1190.5,-252 729.5,-252 725.5,-248 725.5,-216 1186.5,-216 1190.5,-220 1190.5,-252"/>
<polyline fill="none" stroke="#404040" points="1186.5,-248 725.5,-248 "/>
<polyline fill="none" stroke="#404040" points="1186.5,-248 1186.5,-216 "/>
<polyline fill="none" stroke="#404040" points="1186.5,-248 1190.5,-252 "/>
<text text-anchor="middle" x="958" y="-230.3" font-family="Times,serif" font-size="14.00">aws/poc/management/prod/organizations/units/workloads&#45;prod</text>
</g>
<!-- aws/poc/management/prod/organizations/accounts/workload&#45;example&#45;prod&#45;&gt;aws/poc/management/prod/organizations/units/workloads&#45;prod -->
<g id="edge9" class="edge">
<title>aws/poc/management/prod/organizations/accounts/workload&#45;example&#45;prod&#45;&gt;aws/poc/management/prod/organizations/units/workloads&#45;prod</title>
<path fill="none" stroke="#808080" d="M973.81,-287.7C971.47,-279.9 968.65,-270.51 966.05,-261.83"/>
<polygon fill="#808080" stroke="#808080" points="969.36,-260.68 963.13,-252.1 962.65,-262.69 969.36,-260.68"/>
</g>
<!-- aws/poc/management/prod/organizations/units/workloads&#45;prod&#45;&gt;aws/poc/management/boot/organizations/units/workloads -->
<g id="edge10" class="edge">
<title>aws/poc/management/prod/organizations/units/workloads&#45;prod&#45;&gt;aws/poc/management/boot/organizations/units/workloads</title>
<path fill="none" stroke="#808080" d="M841.44,-215.97C770.16,-205.55 678.95,-192.22 605.86,-181.54"/>
<polygon fill="#808080" stroke="#808080" points="606.07,-178.03 595.67,-180.05 605.06,-184.96 606.07,-178.03"/>
</g>
</g>
</svg>
