<?xml version="1.0" encoding="UTF-8" standalone="no"?>
<!DOCTYPE svg PUBLIC "-//W3C//DTD SVG 1.1//EN"
 "http://www.w3.org/Graphics/SVG/1.1/DTD/svg11.dtd">
<!-- Generated by graphviz version 2.43.0 (0)
 -->
<!-- Title: %3 Pages: 1 -->
<svg width="250pt" height="116pt"
 viewBox="0.00 0.00 250.00 116.00" xmlns="http://www.w3.org/2000/svg" xmlns:xlink="http://www.w3.org/1999/xlink">
<g id="graph0" class="graph" transform="scale(1 1) rotate(0) translate(4 112)">
<title>%3</title>
<polygon fill="transparent" stroke="transparent" points="-4,4 -4,-112 246,-112 246,4 -4,4"/>
<!-- examples/remote&#45;state/oranges -->
<g id="node1" class="node">
<title>examples/remote&#45;state/oranges</title>
<polygon fill="#c0c0c0" stroke="#404040" points="242,-108 4,-108 0,-104 0,-72 238,-72 242,-76 242,-108"/>
<polyline fill="none" stroke="#404040" points="238,-104 0,-104 "/>
<polyline fill="none" stroke="#404040" points="238,-104 238,-72 "/>
<polyline fill="none" stroke="#404040" points="238,-104 242,-108 "/>
<text text-anchor="middle" x="121" y="-86.3" font-family="Times,serif" font-size="14.00">examples/remote&#45;state/oranges</text>
</g>
<!-- examples/remote&#45;state/states -->
<g id="node2" class="node">
<title>examples/remote&#45;state/states</title>
<polygon fill="#c0c0c0" stroke="#404040" points="235,-36 11,-36 7,-32 7,0 231,0 235,-4 235,-36"/>
<polyline fill="none" stroke="#404040" points="231,-32 7,-32 "/>
<polyline fill="none" stroke="#404040" points="231,-32 231,0 "/>
<polyline fill="none" stroke="#404040" points="231,-32 235,-36 "/>
<text text-anchor="middle" x="121" y="-14.3" font-family="Times,serif" font-size="14.00">examples/remote&#45;state/states</text>
</g>
<!-- examples/remote&#45;state/oranges&#45;&gt;examples/remote&#45;state/states -->
<g id="edge1" class="edge">
<title>examples/remote&#45;state/oranges&#45;&gt;examples/remote&#45;state/states</title>
<path fill="none" stroke="#808080" d="M121,-71.7C121,-63.98 121,-54.71 121,-46.11"/>
<polygon fill="#808080" stroke="#808080" points="124.5,-46.1 121,-36.1 117.5,-46.1 124.5,-46.1"/>
</g>
</g>
</svg>
