<?xml version="1.0" encoding="UTF-8" standalone="no"?>
<!DOCTYPE svg PUBLIC "-//W3C//DTD SVG 1.1//EN"
 "http://www.w3.org/Graphics/SVG/1.1/DTD/svg11.dtd">
<!-- Generated by graphviz version 2.43.0 (0)
 -->
<!-- Title: %3 Pages: 1 -->
<svg width="250pt" height="188pt"
 viewBox="0.00 0.00 250.00 188.00" xmlns="http://www.w3.org/2000/svg" xmlns:xlink="http://www.w3.org/1999/xlink">
<g id="graph0" class="graph" transform="scale(1 1) rotate(0) translate(4 184)">
<title>%3</title>
<polygon fill="transparent" stroke="transparent" points="-4,4 -4,-184 246,-184 246,4 -4,4"/>
<!-- terragrunt.hcl -->
<g id="node1" class="node">
<title>terragrunt.hcl</title>
<polygon fill="#c0c0c0" stroke="#404040" points="174,-36 62,-36 62,0 180,0 180,-30 174,-36"/>
<polyline fill="none" stroke="#404040" points="174,-36 174,-30 "/>
<polyline fill="none" stroke="#404040" points="180,-30 174,-30 "/>
<text text-anchor="middle" x="121" y="-14.3" font-family="Times,serif" font-size="14.00">terragrunt.hcl</text>
</g>
<!-- examples/remote&#45;state/oranges -->
<g id="node2" class="node">
<title>examples/remote&#45;state/oranges</title>
<polygon fill="#c0c0c0" stroke="#404040" points="242,-180 4,-180 0,-176 0,-144 238,-144 242,-148 242,-180"/>
<polyline fill="none" stroke="#404040" points="238,-176 0,-176 "/>
<polyline fill="none" stroke="#404040" points="238,-176 238,-144 "/>
<polyline fill="none" stroke="#404040" points="238,-176 242,-180 "/>
<text text-anchor="middle" x="121" y="-158.3" font-family="Times,serif" font-size="14.00">examples/remote&#45;state/oranges</text>
</g>
<!-- examples/remote&#45;state/states -->
<g id="node3" class="node">
<title>examples/remote&#45;state/states</title>
<polygon fill="#c0c0c0" stroke="#404040" points="235,-108 11,-108 7,-104 7,-72 231,-72 235,-76 235,-108"/>
<polyline fill="none" stroke="#404040" points="231,-104 7,-104 "/>
<polyline fill="none" stroke="#404040" points="231,-104 231,-72 "/>
<polyline fill="none" stroke="#404040" points="231,-104 235,-108 "/>
<text text-anchor="middle" x="121" y="-86.3" font-family="Times,serif" font-size="14.00">examples/remote&#45;state/states</text>
</g>
<!-- examples/remote&#45;state/oranges&#45;&gt;examples/remote&#45;state/states -->
<g id="edge1" class="edge">
<title>examples/remote&#45;state/oranges&#45;&gt;examples/remote&#45;state/states</title>
<path fill="none" stroke="#808080" d="M121,-143.7C121,-135.98 121,-126.71 121,-118.11"/>
<polygon fill="#808080" stroke="#808080" points="124.5,-118.1 121,-108.1 117.5,-118.1 124.5,-118.1"/>
</g>
<!-- examples/remote&#45;state/states&#45;&gt;terragrunt.hcl -->
<g id="edge2" class="edge">
<title>examples/remote&#45;state/states&#45;&gt;terragrunt.hcl</title>
<path fill="none" stroke="#808080" d="M121,-71.7C121,-63.98 121,-54.71 121,-46.11"/>
<polygon fill="#808080" stroke="#808080" points="124.5,-46.1 121,-36.1 117.5,-46.1 124.5,-46.1"/>
</g>
</g>
</svg>
